<?xml version="1.0" standalone="no"?>
<!DOCTYPE svg PUBLIC "-//W3C//DTD SVG 20010904//EN"
 "http://www.w3.org/TR/2001/REC-SVG-20010904/DTD/svg10.dtd">
<svg version="1.0" xmlns="http://www.w3.org/2000/svg"
 width="700.000000pt" height="700.000000pt" viewBox="0 0 700.000000 700.000000"
 preserveAspectRatio="xMidYMid meet">
<metadata>
Created by potrace 1.11, written by Peter Selinger 2001-2013
</metadata>
<g transform="translate(0.000000,700.000000) scale(0.100000,-0.100000)"
fill="#000000" stroke="none">
<path d="M3278 6995 c-2 -2 -39 -6 -83 -9 -91 -8 -133 -13 -225 -28 -36 -5
-81 -12 -100 -15 -19 -2 -48 -8 -65 -13 -16 -5 -46 -12 -65 -15 -113 -18 -456
-126 -577 -181 -28 -13 -54 -24 -57 -24 -12 0 -248 -119 -326 -164 -47 -27
-94 -54 -105 -60 -57 -33 -181 -117 -270 -185 -283 -213 -528 -460 -727 -732
l-56 -76 35 -39 c196 -221 297 -405 418 -757 78 -227 135 -426 270 -952 20
-77 40 -153 45 -170 5 -16 16 -57 25 -90 61 -219 150 -475 212 -603 92 -193
191 -315 298 -367 46 -23 70 -28 133 -28 109 -1 182 34 302 146 19 18 55 57
80 87 25 30 50 59 56 65 17 15 157 231 191 295 17 30 45 80 62 109 18 30 135
260 260 510 294 588 359 710 496 916 231 348 474 554 741 626 115 32 307 32
423 1 102 -28 174 -60 263 -119 190 -127 373 -381 499 -694 25 -63 128 -360
139 -404 4 -16 33 -120 63 -230 31 -110 79 -290 107 -400 95 -369 204 -732
251 -834 11 -24 29 -65 39 -92 44 -112 141 -262 214 -332 75 -72 144 -102 236
-102 63 1 85 5 140 32 36 18 73 38 82 46 35 28 152 363 202 577 41 178 70 356
84 515 14 164 6 570 -13 705 -3 19 -7 56 -10 81 -3 25 -7 54 -9 65 -2 10 -11
60 -21 109 -98 525 -337 1054 -671 1480 -43 55 -83 105 -88 112 -214 233 -340
355 -501 484 -419 333 -929 573 -1452 683 -101 22 -257 46 -398 62 -57 6 -541
14 -547 9z"/>
<path d="M321 4958 c-113 -252 -211 -545 -245 -733 -12 -62 -26 -141 -31 -164
-2 -13 -7 -49 -11 -80 -3 -31 -8 -63 -9 -72 -19 -100 -27 -534 -13 -699 7 -77
23 -209 33 -268 5 -29 24 -131 29 -157 41 -208 142 -519 227 -703 22 -46 39
-86 39 -88 0 -13 153 -285 213 -379 418 -658 1078 -1177 1814 -1426 107 -36
339 -101 410 -114 15 -2 53 -9 83 -15 30 -6 66 -12 80 -15 14 -3 52 -8 85 -11
33 -3 63 -8 66 -9 15 -10 228 -20 409 -19 224 0 397 10 485 29 11 2 43 7 70
10 28 4 82 14 120 22 39 8 82 17 97 19 50 9 302 82 393 114 655 231 1237 663
1657 1232 l57 76 -52 12 c-189 42 -322 115 -458 250 -123 122 -246 312 -324
500 -15 36 -33 79 -41 95 -46 101 -212 644 -249 815 -7 32 -89 342 -126 480
-199 729 -382 1045 -625 1078 -33 4 -77 4 -98 0 -110 -23 -244 -124 -355 -268
-28 -36 -54 -69 -59 -75 -86 -106 -225 -360 -493 -896 -256 -513 -348 -682
-477 -879 -146 -224 -317 -407 -479 -513 -270 -178 -591 -198 -867 -54 -283
147 -487 441 -659 947 -43 128 -94 292 -102 334 -3 11 -11 40 -19 65 -12 37
-78 283 -92 341 -15 67 -105 403 -108 409 -3 4 -7 18 -10 32 -17 89 -124 410
-178 536 -46 106 -109 227 -141 267 l-22 28 -24 -54z"/>
</g>
</svg>
