<?xml version="1.0" encoding="UTF-8" standalone="no"?>
<!DOCTYPE svg PUBLIC "-//W3C//DTD SVG 1.1//EN" "http://www.w3.org/Graphics/SVG/1.1/DTD/svg11.dtd">
<svg xmlns="http://www.w3.org/2000/svg" width="192" height="46" viewBox="0 0 110 26">
    <title>Logo Qucosa</title>
    <desc>Das ist das Logo des sächsischen Dokumenten- und Publikationsservers QUCOSA</desc>
    <path d="M23.377,0V.888a2.6,2.6,0,0,1,.73,1.779,2.858,2.858,0,0,1-.831,1.958l-7.867,8.311a3.591,3.591,0,0,1-4.964.193L1.628,5.167A2.6,2.6,0,0,1,.683,3.245a2.333,2.333,0,0,1,.788-1.7V.683A3.143,3.143,0,0,0,0,3.245,3.284,3.284,0,0,0,1.171,5.673l8.818,7.964a4.273,4.273,0,0,0,5.917-.233l7.867-8.312A3.539,3.539,0,0,0,24.79,2.667,3.358,3.358,0,0,0,23.377,0Z" transform="translate(0 10.811)" fill="#fff"/>
    <path d="M8.624,9.863l8.783-4.974a2.1,2.1,0,0,0-.6-.581L9.8.264a2.451,2.451,0,0,0-2.213,0l-7,4.044A2.072,2.072,0,0,0,0,4.867Z" transform="translate(3.728)" fill="#fff"/>
    <path d="M8.8,13.667,7.019,12.54a1.669,1.669,0,0,1-.656-1.386L8.8,12.694V11.682l-3.3-2.073a1.7,1.7,0,0,1-.667-1.386L8.8,10.7V9.74L3.875,6.689a1.5,1.5,0,0,1-.6-1.332L8.8,8.755V7.8L2.355,3.859a1.693,1.693,0,0,1-.6-1.322L8.8,6.813V5.031L.119,0A1.958,1.958,0,0,0,0,.618V8.707a2.454,2.454,0,0,0,1.106,1.916l7,4.044a2.04,2.04,0,0,0,.685.217Z" transform="translate(3.207 5.605)" fill="#fff"/>
    <path d="M8.689,0,0,4.921v9.938a2.035,2.035,0,0,0,.688-.217l7-4.044A2.454,2.454,0,0,0,8.8,8.682V.593A1.961,1.961,0,0,0,8.689,0Z" transform="translate(12.844 5.631)" fill="#fff"/>
    <path d="M15.192,23.806a16.3,16.3,0,0,1-3.55-.446l-.073-.015a15.114,15.114,0,0,0-3.293-.431A11.361,11.361,0,0,0,6.85,23V19.448a15.2,15.2,0,0,1,1.813-.112,16.708,16.708,0,0,1,3.549.433l.054.011a15.623,15.623,0,0,0,3.347.422,13.248,13.248,0,0,0,1.956-.151v3.555A14.819,14.819,0,0,1,15.192,23.806ZM8.13,18.325a7.721,7.721,0,0,1-6.114-2.392A9.679,9.679,0,0,1,0,9.384,9.556,9.556,0,0,1,2.575,2.536,8.541,8.541,0,0,1,8.757,0a8,8,0,0,1,5.81,2.121c1.54,1.536,2.32,3.813,2.32,6.768a9.674,9.674,0,0,1-2.545,6.894A8.527,8.527,0,0,1,8.13,18.325ZM8.445,3.712A3.756,3.756,0,0,0,5.585,5,6.033,6.033,0,0,0,4.314,9.045c0,3.625,1.4,5.541,4.054,5.541A3.85,3.85,0,0,0,11.2,13.367a6.031,6.031,0,0,0,1.378-4.22C12.575,5.591,11.147,3.712,8.445,3.712Z" transform="translate(30.046 1.268)" fill="#fff"/>
    <path d="M6.3,13.855C1.96,13.855,0,11.791,0,8.732V0H4.025V7.764c0,1.934.784,2.745,2.51,2.745,1.7,0,2.432-.967,2.432-2.8V0H12.94V8.313C12.939,11.4,10.927,13.855,6.3,13.855Z" transform="translate(47.644 5.659)" fill="#fff"/>
    <path d="M6.9,14.063C2.248,14.063,0,11.4,0,7.371,0,3.582,2.353,0,7.634,0a10.684,10.684,0,0,1,2.613.34L9.881,3.818a8.247,8.247,0,0,0-2.4-.366c-1.882,0-3.163,1.333-3.163,3.581a3.1,3.1,0,0,0,3.32,3.45,5.265,5.265,0,0,0,2.325-.471l.34,3.556A11.716,11.716,0,0,1,6.9,14.063Z" transform="translate(61.323 5.399)" fill="#fff"/>
    <path d="M7,14.116a7.1,7.1,0,0,1-5.178-1.872A6.936,6.936,0,0,1,0,7.215,6.978,6.978,0,0,1,2.284,1.961,7.783,7.783,0,0,1,7.528,0a7.4,7.4,0,0,1,4.947,1.63,6.571,6.571,0,0,1,2.085,5.219,6.954,6.954,0,0,1-2.277,5.31A7.816,7.816,0,0,1,7,14.116ZM7.267,3.555C5.8,3.555,4.314,4.622,4.314,7c0,2.211,1.085,3.531,2.9,3.531a2.9,2.9,0,0,0,2.114-.818,3.631,3.631,0,0,0,.918-2.66,3.853,3.853,0,0,0-.834-2.614A2.784,2.784,0,0,0,7.267,3.555Z" transform="translate(71.424 5.398)" fill="#fff"/>
    <path d="M2.98,14.2A12.969,12.969,0,0,1,.5,13.908l.131-3.477a7.658,7.658,0,0,0,2.693.443c.967,0,1.567-.443,1.567-1.123C4.888,8.1,0,9.149,0,4.652,0,1.882,2.039,0,6.014,0A14.58,14.58,0,0,1,8.339.209l-.1,3.321a8.866,8.866,0,0,0-2.379-.34c-1.1,0-1.541.419-1.541,1.045,0,1.491,4.966.915,4.966,5.021C9.281,12.156,7.085,14.2,2.98,14.2Z" transform="translate(86.032 5.371)" fill="#fff"/>
    <path d="M4.025,13.593H0L4.89,0H9.726l4.888,13.591H10.17l-.706-2.065H4.733l-.707,2.065ZM7.059,4.26c-.119.524-.3,1.146-.5,1.752l-.94,2.641H8.55L7.659,6.117c-.176-.527-.416-1.249-.574-1.858Z" transform="translate(94.559 5.66)" fill="#fff"/>
</svg>
