<?xml version="1.0" encoding="UTF-8" standalone="no"?>
<!-- Created with Inkscape (http://www.inkscape.org/) -->

<svg
   xmlns:dc="http://purl.org/dc/elements/1.1/"
   xmlns:cc="http://creativecommons.org/ns#"
   xmlns:rdf="http://www.w3.org/1999/02/22-rdf-syntax-ns#"
   xmlns:svg="http://www.w3.org/2000/svg"
   xmlns="http://www.w3.org/2000/svg"
   xmlns:sodipodi="http://sodipodi.sourceforge.net/DTD/sodipodi-0.dtd"
   xmlns:inkscape="http://www.inkscape.org/namespaces/inkscape"
   viewBox="0 0 906.00001 295"
   id="svg3365"
   version="1.1"
   inkscape:version="0.91 r13725"
   sodipodi:docname="headerlogo.svg">
  <title
     id="title3381">Universitaetsbibliothek Leipzig</title>
  <defs
     id="defs3367" />
  <sodipodi:namedview
     id="base"
     pagecolor="#002f51"
     bordercolor="#666666"
     borderopacity="1.0"
     inkscape:pageopacity="0"
     inkscape:pageshadow="2"
     inkscape:zoom="1"
     inkscape:cx="214"
     inkscape:cy="255.73113"
     inkscape:document-units="px"
     inkscape:current-layer="layer1"
     showgrid="false"
     units="px"
     inkscape:window-width="1920"
     inkscape:window-height="1137"
     inkscape:window-x="-4"
     inkscape:window-y="-4"
     inkscape:window-maximized="1"
     showborder="true" />
  <metadata
     id="metadata3370">
    <rdf:RDF>
      <cc:Work
         rdf:about="">
        <dc:format>image/svg+xml</dc:format>
        <dc:type
           rdf:resource="http://purl.org/dc/dcmitype/StillImage" />
        <dc:title>Universitaetsbibliothek Leipzig</dc:title>
      </cc:Work>
    </rdf:RDF>
  </metadata>
  <g
     inkscape:label="Ebene 1"
     inkscape:groupmode="layer"
     id="layer1"
     transform="translate(0,-757.3622)">
    <path
       inkscape:connector-curvature="0"
       style="display:inline;fill:#ffffff;fill-opacity:1"
       d="m 528.12347,1052.3511 c -9.22814,-0.5287 -10.53992,-17.8522 -11.195,-23.2813 -0.7696,-6.8397 -1.66208,-16.3781 -2.39735,-24.4981 -0.78675,-10.96395 -1.56009,-19.04737 -1.72973,-30.47552 -0.0393,-8.92967 0.13727,-18.44664 -0.0531,-29.19689 0.47991,-7.41023 0.22162,-16.09354 0.33992,-26.00879 0.48405,-10.97338 0.31983,-15.34772 0.97603,-26.87034 0.70403,-10.59814 1.30764,-18.5243 1.87887,-29.43436 1.3869,-15.58086 2.37051,-28.18729 4.09117,-42.26086 1.14877,-9.81256 1.93941,-20.40561 2.95879,-29.68571 0.88812,-8.4074 1.50939,-17.06843 3.72088,-25.35536 2.78886,-8.95271 15.17904,-7.43367 19.8236,-0.71877 5.11763,7.58395 2.41003,14.34321 0.51573,23.25168 -3.40007,15.41569 -6.05526,28.53055 -8.71411,45.28657 -1.92123,12.80061 -3.1999,23.66497 -5.38346,37.3045 -1.22805,10.28815 -3.52634,21.74504 -4.3173,30.74792 -1.29014,8.62852 -1.35783,14.25486 -1.86552,23.21859 -0.99569,9.94829 -1.04093,17.28192 -1.06154,27.23026 0.23008,5.78731 0.19131,21.59543 2.75078,8.22227 2.39636,-10.84761 3.87876,-20.62127 6.12588,-31.46069 2.38084,-10.14194 4.88477,-20.56929 7.78082,-30.77884 3.2861,-10.16034 6.49049,-18.82201 11.20062,-26.53951 5.79287,-8.32801 10.87063,-13.00905 18.88086,-15.21958 8.94058,-1.97097 16.67504,-0.98274 23.82203,3.79354 6.10463,4.14733 9.45201,8.17994 11.37332,19.43459 1.57468,17.79226 -1.34713,24.48418 -2.94537,36.62218 -1.84275,10.5141 -2.58352,13.51515 -5.18137,25.18926 -2.1275,8.79121 -3.16798,12.78315 -5.62696,21.40343 -2.05419,6.87624 -4.49932,15.37661 -6.93994,23.55306 -3.62758,10.54 -5.50648,20.29147 -8.31314,29.25267 -1.61817,7.3096 -3.01229,16.0931 -3.90111,19.2911 -2.37099,8.1516 -10.24141,15.5879 -18.99185,13.625 -8.62565,-2.1147 -12.47032,-11.6858 -15.34188,-19.3681 -3.32787,-8.3706 -4.58832,-18.7629 -3.95362,-24.9012 1.18653,-7.26312 8.7165,-9.5615 13.54819,-4.9772 8.05955,7.4893 12.5911,-12.75531 13.97976,-18.37695 3.15301,-11.96381 5.75637,-21.41416 8.27724,-32.27932 2.34223,-11.10311 5.04573,-21.99734 7.19334,-33.34354 1.95033,-8.85288 3.5511,-19.50165 4.11212,-24.3733 0.57861,-8.07609 -3.07275,-17.95854 -10.34115,-15.95235 -4.90792,1.88488 -8.40842,6.00417 -10.86501,10.39452 -4.53766,7.29121 -6.78875,15.42091 -9.42744,23.61136 -2.53566,7.22511 -6.35973,20.4042 -8.8027,29.78156 -3.31759,12.68874 -5.28397,19.9037 -8.12024,31.56809 -2.67911,13.27986 -4.05666,25.60423 -4.26732,30.38033 -0.2935,4.7668 -0.40888,17.6433 0.4554,26.9752 0.96258,10.0676 5.4685,25.7052 -4.06918,25.2189 z M 387.62412,1027.103 c -2.63811,-11.7886 -2.3621,-17.291 -0.55546,-38.25769 1.00563,-9.74804 2.97623,-18.63248 4.54293,-28.80424 2.64382,-11.72981 4.16555,-20.587 8.0131,-35.43372 2.22322,-9.95527 5.85872,-22.67573 8.88812,-32.2527 3.20002,-10.81888 5.83542,-17.85601 9.49858,-28.74185 3.15153,-7.60509 5.10699,-17.31789 11.71003,-22.57963 6.84423,-5.3565 21.34479,4.38973 15.60527,15.37394 -3.41371,7.02545 -7.40348,15.29902 -11.0482,22.54456 -3.28874,6.31648 -6.44657,12.52542 -9.34132,18.93999 -3.00376,6.36026 -4.18512,9.54938 -7.43235,17.45496 -2.76711,7.52521 -5.42292,13.84487 -8.19575,22.31304 -3.8473,12.70693 -5.37105,15.76244 -8.26279,27.0091 -2.85164,11.41288 -6.79452,29.79761 -7.37528,37.08464 -0.5077,9.6708 -2.53359,32.3497 10.88073,31.3058 6.66109,-1.2395 9.6594,-6.4825 13.71328,-12.2169 9.65288,-14.8529 12.37834,-21.1934 19.66345,-36.28959 3.63438,-8.59624 6.13683,-15.11357 9.30116,-23.26939 3.32603,-9.37669 5.80734,-15.80416 9.00999,-25.10097 1.59277,-5.66707 3.9871,-13.6254 5.71674,-20.11658 1.51882,-5.83702 4.09713,-14.0951 5.06664,-19.69684 3.52881,-12.45256 4.21504,-22.20184 6.36184,-35.50386 0.44248,-6.32741 3.36201,-14.74742 9.23172,-15.92724 9.4525,-1.28928 17.65666,4.89364 17.875,14.68321 -1.15801,15.34407 -2.78275,16.82841 -4.59422,32.25131 -1.01129,10.18153 -1.90342,21.02244 -2.57325,33.22644 -0.40867,11.08588 -0.63949,23.56196 -0.23278,32.20818 0.90946,16.68815 1.7118,33.92396 3.34696,50.33113 1.02998,9.1948 5.14195,16.3793 5.67926,23.5863 0.34645,10.2888 -12.89799,13.8379 -20.56707,9.2828 -9.12483,-7.1467 -9.50722,-18.5944 -10.23315,-27.8682 -1.02438,-12.1207 -1.1905,-18.77882 -1.67946,-36.39794 -0.16684,-9.78003 -0.52755,-20.6494 -0.42255,-28.86261 -4.12332,6.90967 -8.15923,13.85212 -11.29023,20.48488 -4.09613,7.58942 -7.32831,13.78666 -11.07618,21.42232 -2.80844,5.76739 -8.1008,16.16895 -11.29182,21.80325 -3.12326,5.4024 -6.415,10.8243 -10.60063,17.1841 -4.55517,6.8893 -11.29776,16.0836 -21.93376,15.3426 -9.16191,-1.0181 -13.20802,-8.8502 -15.39855,-16.5126 z m 250.25073,16.4042 c -6.36435,-1.2566 -12.34667,-10.074 -15.25251,-16.0566 -2.65011,-5.7318 -5.02551,-14.9298 -5.95852,-23.9763 -1.54847,-16.57894 -1.10742,-28.27826 -0.80004,-42.23703 0.20835,-11.04637 0.61223,-23.14218 0.94373,-34.085 0.46369,-8.6142 0.95295,-17.20158 1.67313,-28.52359 0.74771,-11.15749 1.64578,-23.57581 2.60565,-34.4422 0.89657,-7.84118 1.6459,-13.28319 2.82714,-23.13162 1.35551,-10.27949 1.97201,-15.81466 2.85994,-22.82056 1.49532,-9.72721 2.89795,-19.09408 4.35142,-28.09829 1.37662,-7.22971 4.32404,-22.81163 7.24771,-30.16236 2.13278,-5.56532 13.19466,-0.35297 17.39097,4.43205 3.69325,4.16641 6.11225,9.63826 4.93603,15.11998 -1.87185,8.23128 -6.19146,27.14863 -7.62568,33.14833 -1.5737,6.56604 -3.85677,17.07792 -5.44494,25.15265 -1.33102,7.31055 -4.37109,25.69354 -5.67542,33.51277 -0.83634,5.99234 -2.34666,17.63692 -3.18378,24.89959 -0.84315,8.99879 -2.1019,23.89146 -2.66984,31.34566 -0.83506,10.97855 -1.02613,20.42001 -1.35538,32.9203 0.0493,10.66745 -1.00006,27.17764 1.50018,36.18292 2.86301,10.7747 8.21569,14.2479 12.35658,20.5168 4.02115,6.138 5.96698,12.1954 2.72713,19.6351 -2.12515,4.821 -7.61866,7.7248 -13.4535,6.6674 z"
       id="path2753"
       sodipodi:nodetypes="ccccccccccccccccccccccccccccccccccccccccccccccccccccccccccccccccccccccccccccccccccccccccccccccccccccccccccccc" />
    <path
       inkscape:connector-curvature="0"
       id="path2748"
       d="m 876.48641,909.02819 c -9.8539,-2.21068 -17.1441,-9.2082 -19.86739,-19.06981 -0.83822,-3.03535 -0.77634,-9.46041 0.12132,-12.59764 3.23801,-11.31634 12.43009,-18.76422 23.88794,-19.35522 7.63359,-0.39374 14.03974,2.07885 19.59061,7.56143 1.49321,1.47487 2.66854,2.86364 2.61182,3.08615 -0.0567,0.22252 -0.9351,1.19004 -1.95201,2.15005 l -1.84887,1.74546 -1.46048,-1.74546 c -1.96385,-2.3471 -4.19194,-4.16875 -6.60747,-5.40215 -3.27075,-1.67009 -5.18209,-2.10938 -9.13569,-2.09971 -3.09991,0.008 -3.81556,0.11544 -6.13855,0.92517 -6.14663,2.14254 -10.99698,7.03423 -13.11056,13.22231 -0.92964,2.72181 -1.16196,8.20937 -0.46541,10.99255 1.44461,5.77193 5.42924,10.7638 10.79459,13.52327 4.55221,2.34126 8.54404,2.87504 12.9925,1.73731 6.65343,-1.70166 11.80171,-6.5226 12.98128,-12.15588 0.647,-3.08991 1.36509,-2.80744 -7.13712,-2.80744 l -7.47569,0 0,-2.5936 0,-2.59361 10.57368,0 10.57364,0 -0.18796,3.43271 c -0.21456,3.91878 -1.0317,7.45841 -2.31429,10.0251 -2.81974,5.64278 -8.87626,10.24663 -15.59377,11.85355 -3.0459,0.72862 -7.98556,0.80407 -10.83212,0.16546 z m -710.9533,-0.1957 c -13.81048,-2.54875 -23.40839,-15.8069 -21.09267,-29.13654 0.99086,-5.70355 3.0972,-9.97814 6.85491,-13.91129 5.46088,-5.71583 12.16862,-8.42439 20.03523,-8.09013 4.24865,0.18053 7.41739,1.04103 11.12573,3.02128 11.78199,6.29161 16.8498,20.48443 11.69483,32.75229 -1.81877,4.32834 -6.17239,9.45298 -9.9361,11.6958 -2.62908,1.56667 -6.23576,3.01291 -8.82862,3.54015 -2.54659,0.51784 -7.40048,0.58111 -9.85331,0.12844 z m 8.63279,-5.31296 c 3.88358,-0.78528 7.09771,-2.56442 10.14137,-5.61364 4.24445,-4.25218 6.09395,-8.69671 6.09395,-14.64435 0,-8.05524 -4.41423,-15.00969 -11.75617,-18.52139 -5.44893,-2.60627 -11.83127,-2.50471 -17.53633,0.27902 -3.66465,1.78814 -7.28286,5.40562 -9.07498,9.07316 -7.51749,15.38439 5.56377,32.77739 22.13216,29.4272 z m 511.15646,-19.66303 0,-25.02067 2.74617,0 2.74617,0 0,22.2745 0,22.2745 6.86543,0 6.86543,0 0,2.74617 0,2.74617 -9.6116,0 -9.6116,0 0,-25.02067 z m 26.75302,24.82052 c -0.11369,-0.11368 -0.2067,-11.37445 -0.2067,-25.02394 l 0,-24.81725 13.1206,0 13.1206,0 0,2.5936 0,2.59361 -10.22186,0 -10.22186,0 0,7.3189 0,7.31889 9.84045,0.0805 9.84044,0.0805 0,2.59361 0,2.5936 -9.84044,0.0805 -9.84045,0.0805 0,9.60326 0,9.60326 10.14558,0.0804 10.14557,0.0804 0,2.59361 0,2.59361 -12.83762,0.0795 c -7.06071,0.0437 -12.93065,-0.0135 -13.04431,-0.12714 z m 37.5387,0.008 c -0.1179,-0.11792 -0.21438,-11.38216 -0.21438,-25.03165 l 0,-24.81725 2.9005,0 2.90054,0 -0.0781,24.94439 -0.0781,24.94439 -2.60807,0.0873 c -1.43441,0.048 -2.70452,-0.009 -2.82245,-0.12714 z m 20.12764,-0.011 c -0.11189,-0.11188 -0.20343,-11.37118 -0.20343,-25.02067 l 0,-24.81725 6.63658,0.005 c 7.20171,0.006 9.55603,0.31608 12.45019,1.64106 5.9216,2.711 8.85534,10.40156 6.53769,17.13795 -2.21359,6.43391 -7.22356,9.28767 -16.30512,9.28767 l -3.52187,0 0,10.98469 0,10.98468 -2.69531,0 c -1.48244,0 -2.78687,-0.0915 -2.89873,-0.20342 z m 12.42655,-27.26923 c 3.69399,-0.53397 5.9493,-1.89605 7.30771,-4.41345 0.54942,-1.01822 0.65859,-1.72627 0.65859,-4.27182 0,-3.28532 -0.46785,-4.70337 -2.03372,-6.16398 -1.73354,-1.61701 -5.37429,-2.51449 -10.24777,-2.52619 l -2.51732,-0.006 0,8.84877 0,8.84878 2.36476,-0.006 c 1.30062,-0.003 3.31109,-0.14283 4.46775,-0.31002 z m 14.22147,27.2106 c 0,-0.14683 6.04381,-10.20579 13.43064,-22.35324 l 13.43067,-22.08628 -11.75245,-0.0799 -11.75243,-0.0799 0,-2.59002 0,-2.59002 16.50193,0 16.5019,0 -0.60318,0.99167 c -0.33177,0.54542 -6.33301,10.39731 -13.33611,21.89309 -7.00311,11.49578 -12.79912,21.07305 -12.88007,21.28283 -0.11631,0.30151 2.61082,0.38141 13.01796,0.38141 l 13.16514,0 -0.0882,2.66989 -0.0882,2.66989 -17.77384,0.0787 c -10.01193,0.0444 -17.77383,-0.0378 -17.77383,-0.18823 z m 44.24388,-24.75862 0,-25.02067 2.74617,0 2.74617,0 0,25.02067 0,25.02067 -2.74617,0 -2.74617,0 0,-25.02067 z M 0,883.39464 l 0,-24.92191 6.94171,0.12904 c 7.91368,0.1471 9.53959,0.48508 12.79667,2.66007 3.50804,2.34257 5.08706,5.61718 5.08338,10.54202 -0.003,3.93342 -0.73186,5.95909 -2.97937,8.27951 l -1.57328,1.62432 1.32681,0.45209 c 3.12387,1.06441 6.21934,4.48171 7.3074,8.06714 0.74705,2.46171 0.67564,6.6887 -0.15154,8.96993 -1.39374,3.84369 -4.38614,6.51626 -9.02286,8.05847 -2.42727,0.80733 -2.70307,0.83078 -11.109,0.94455 L 0,908.31654 0,883.39464 Z m 15.5598,19.35897 c 3.63768,-0.59017 6.02108,-2.10144 7.4258,-4.70856 0.53428,-0.99161 0.65761,-1.73556 0.65761,-3.96669 0,-3.95868 -0.97181,-5.60773 -4.27971,-7.26217 -2.15533,-1.07798 -4.47693,-1.43404 -9.35025,-1.43404 l -4.21578,0 0,8.84877 0,8.84878 3.89041,-0.002 c 2.13972,-0.001 4.78209,-0.14698 5.87192,-0.32379 z m -1.62851,-23.01355 c 2.13427,-0.63381 3.48459,-1.62683 4.37652,-3.21849 0.67882,-1.21137 0.76283,-1.71412 0.76283,-4.56515 0,-2.85103 -0.084,-3.35378 -0.76283,-4.56514 -1.44998,-2.58751 -3.28315,-3.33688 -8.7725,-3.58608 l -3.73784,-0.16968 0,8.27971 0,8.27971 3.30105,0 c 2.03675,0 3.8877,-0.17422 4.83277,-0.45488 z m 25.73563,3.65874 0,-24.8681 2.89874,0 2.89873,0 0,24.8681 0,24.86811 -2.89873,0 -2.89874,0 0,-24.86811 z m 19.52833,0 0,-24.8681 6.02631,0.005 c 6.7292,0.006 9.07314,0.35072 12.13986,1.78581 2.51539,1.17709 4.19435,2.74783 5.29808,4.95658 2.56495,5.13292 1.85793,11.47629 -1.66445,14.93324 l -1.34305,1.3181 1.8958,0.90989 c 5.54095,2.6594 8.42065,9.28565 6.77733,15.59477 -1.02433,3.93268 -3.16314,6.45825 -7.00795,8.27523 -3.47675,1.64303 -5.80182,1.9573 -14.48082,1.9573 l -7.64111,0 0,-24.86811 z m 17.59104,18.94874 c 2.51289,-0.7899 4.38179,-2.22968 5.38682,-4.14992 0.81973,-1.56621 0.87047,-1.86616 0.76022,-4.49404 -0.10621,-2.5317 -0.21007,-2.94734 -1.02936,-4.11926 -2.17853,-3.11616 -5.40148,-4.20217 -12.47082,-4.20217 l -4.44044,0 0,8.8878 0,8.8878 5.11094,-0.15808 c 3.46497,-0.10717 5.61709,-0.31719 6.68264,-0.65213 z m -3.43174,-22.66932 c 2.22448,-0.62416 4.11857,-2.34033 4.68863,-4.2482 0.45852,-1.53457 0.48707,-5.34719 0.0518,-6.91465 -0.45031,-1.62159 -1.84286,-3.07849 -3.71041,-3.88189 -1.28043,-0.55083 -2.37039,-0.71849 -5.49456,-0.8452 l -3.89728,-0.15807 0,8.28237 0,8.28236 3.26014,0 c 2.13499,0 3.89569,-0.17833 5.1017,-0.51672 z m 26.11787,3.72058 0,-24.8681 2.89874,0 2.89874,0 0,22.26866 0,22.26866 6.78914,0.0821 6.78915,0.0821 0.0886,2.51733 0.0886,2.51732 -9.7765,0 -9.77651,0 0,-24.86811 z m 28.07198,0 0,-24.8681 2.89874,0 2.89873,0 0,24.8681 0,24.86811 -2.89873,0 -2.89874,0 0,-24.86811 z m 82.99541,2.59361 0,-22.2745 -5.95004,0 -5.95004,0 0,-2.59361 0,-2.5936 14.95138,0 14.95138,0 0,2.5936 0,2.59361 -6.10261,0 -6.1026,0 0,22.2745 0,22.2745 -2.89874,0 -2.89873,0 0,-22.2745 z m 25.02067,-2.59361 0,-24.8681 2.89874,0 2.89874,0 0,10.06929 0,10.0693 12.6629,0 12.6629,0 0,-10.0693 0,-10.06929 2.89874,0 2.89873,0 0,24.8681 0,24.86811 -2.89873,0 -2.89874,0 0,-12.2052 0,-12.20521 -12.6629,0 -12.6629,0 0,12.20521 0,12.2052 -2.89874,0 -2.89874,0 0,-24.86811 z m 50.34648,0 0,-24.8681 12.96803,0 12.96804,0 0,2.5936 0,2.59361 -10.22187,0 -10.22186,0 0,7.32312 0,7.32313 9.91673,0 9.91674,0 0,2.5936 0,2.59361 -9.91674,0 -9.91673,0 0,9.76416 0,9.76417 10.22186,0 10.22187,0 0,2.59361 0,2.5936 -12.96804,0 -12.96803,0 0,-24.86811 z m 36.61562,0 0,-24.8681 2.74617,0 2.74617,0 0,10.60163 0,10.60164 10.6049,-10.60164 10.60489,-10.60163 3.81251,0.008 3.81251,0.008 -11.73641,11.53152 -11.7364,11.53151 11.96525,13.16695 c 6.58089,7.24183 11.96525,13.23957 11.96525,13.32833 0,0.0888 -1.69783,0.16136 -3.77293,0.16136 l -3.77297,0 -9.72904,-10.88914 c -5.35101,-5.98902 -9.88964,-11.10377 -10.0859,-11.36609 -0.31608,-0.42249 -0.44677,-0.39248 -1.14424,0.26276 l -0.78742,0.73974 0,10.62636 0,10.62637 -2.74617,0 -2.74617,0 0,-24.86811 z m -187.4294,-83.09451 c -5.49791,-14.37814 -9.99477,-26.24507 -9.99301,-26.37093 0.002,-0.12587 1.34284,-0.22885 2.9802,-0.22885 l 2.97701,0 7.00589,18.76036 c 3.85324,10.3182 7.09838,18.65969 7.21141,18.53666 0.11304,-0.12304 3.12135,-8.05029 6.68514,-17.61612 3.56379,-9.56583 6.68319,-17.90733 6.932,-18.53666 l 0.45238,-1.14424 3.05082,0 c 2.78025,0 3.03262,0.0474 2.84571,0.53398 -0.11281,0.29369 -4.61282,12.0679 -10.00002,26.16491 -5.3872,14.09701 -9.8751,25.72364 -9.97312,25.83696 -0.098,0.11331 -4.6765,-11.55792 -10.17441,-25.93607 z m -60.48886,5.09432 -19.2232,-20.14631 -0.0786,19.09421 -0.0786,19.09422 -2.74387,0 -2.74388,0 0.0144,-26.01235 0.0144,-26.01235 1.7401,1.87328 c 0.95706,1.03031 9.63534,10.13847 19.28508,20.24036 l 17.54498,18.36709 0.0786,-19.09613 0.0786,-19.09612 2.89645,0 2.89644,0 0,25.93606 c 0,14.26484 -0.10298,25.92893 -0.22885,25.92021 -0.12586,-0.009 -8.87928,-9.0817 -19.45204,-20.16217 z m -61.31088,18.4869 C 8.3272,822.63449 3.67531,819.08704 1.82997,815.14364 0.06574,811.37356 0.01111,810.66048 0.00529,791.32578 l -0.005,-17.62127 2.88754,0 2.88755,0 0.0875,18.54358 0.0875,18.54358 c 0.005,0.7278 1.44819,3.78438 3.07078,4.99697 1.63051,1.43161 4.44765,2.72695 6.8126,3.1325 4.07568,0.6989 8.47259,-0.81059 11.26691,-3.86802 2.73825,-2.99608 2.62259,-2.02407 2.73259,-22.96452 l 0.0966,-18.38409 2.90275,0 2.90275,0 -0.10852,18.38409 c -0.0966,16.36079 -0.16692,18.58373 -0.63922,20.198 -0.76055,2.59947 -2.02718,4.6278 -4.22902,6.77218 -2.33469,2.27376 -3.68565,3.132 -6.66258,4.23257 -2.84553,1.052 -7.88441,1.32916 -10.80219,0.59416 z m 246.14792,2.2e-4 c -3.69698,-0.99564 -7.64711,-4.01486 -9.3527,-7.1486 -1.06361,-1.95419 -2.08982,-4.94545 -1.79239,-5.2245 0.44355,-0.41614 5.03342,-1.54782 5.25066,-1.29461 0.12017,0.14007 0.38837,0.87256 0.59601,1.62776 0.44983,1.63606 2.125,4.20599 3.31518,5.08593 2.21658,1.63879 3.4819,2.06112 6.17434,2.06081 3.30603,-3.7e-4 5.35501,-0.90342 7.5843,-3.34261 1.94816,-2.1316 2.61603,-4.03412 2.41288,-6.87342 -0.26808,-3.74677 -1.977,-5.74469 -6.94588,-8.12051 -10.56637,-5.0522 -10.43176,-4.97615 -12.53108,-7.07928 -2.52802,-2.5326 -3.36251,-4.50374 -3.36283,-7.94326 -4.7e-4,-4.98853 2.38966,-8.96162 6.70735,-11.14956 5.63384,-2.85488 12.39236,-2.10398 16.80976,1.86764 1.4352,1.29037 3.56082,3.98496 3.31462,4.20185 -0.0581,0.0512 -1.09356,0.72231 -2.30095,1.49135 l -2.19526,1.39824 -0.64663,-1.04627 c -0.35564,-0.57545 -1.27583,-1.60011 -2.04485,-2.27703 -4.97335,-4.37772 -13.14942,-1.62435 -14.01916,4.72109 -0.43251,3.15548 1.68032,5.7302 6.56035,7.99452 9.48759,4.40221 10.48332,4.96717 12.73748,7.22706 1.62101,1.62512 2.32689,2.60303 2.80408,3.88471 3.07864,8.26881 -1.99355,17.65391 -10.7776,19.94186 -2.20581,0.57454 -6.15815,0.57303 -8.29768,-0.003 z m 161.4857,-0.0992 c -5.11764,-1.47056 -9.08589,-5.44265 -10.6271,-10.63735 -0.26034,-0.87742 -0.37864,-1.65175 -0.2629,-1.72075 0.62109,-0.37023 4.98964,-1.41878 5.24738,-1.25948 0.16657,0.10294 0.30297,0.41935 0.30309,0.70314 4.6e-4,0.96375 1.75834,4.23757 2.875,5.3542 0.61151,0.61152 1.82812,1.48388 2.70357,1.93857 1.36522,0.70905 1.96083,0.82675 4.18535,0.82702 2.20457,2.7e-4 2.85288,-0.12522 4.32202,-0.83656 3.53548,-1.71181 5.49966,-4.59839 5.698,-8.37375 0.2146,-4.08553 -1.66852,-6.58964 -6.81615,-9.06382 -1.5104,-0.72596 -4.48389,-2.15307 -6.60781,-3.17136 -4.57238,-2.19222 -7.06395,-4.26812 -8.40823,-7.00557 -0.77433,-1.57683 -0.85073,-2.0338 -0.85073,-5.08883 0,-3.0029 0.0861,-3.54021 0.81778,-5.10118 3.11995,-6.65667 12.19288,-9.54747 19.34534,-6.1638 2.92364,1.3831 7.2253,5.94317 6.1968,6.56908 -0.23312,0.14187 -1.27252,0.80752 -2.30978,1.47921 l -1.88591,1.22125 -0.63342,-1.02491 c -4.2822,-6.92872 -15.02629,-5.31963 -16.08564,2.40908 -0.42215,3.08001 1.67739,5.71628 6.24366,7.8397 9.77634,4.54626 10.80707,5.12908 13.05311,7.38082 1.67141,1.67564 2.32408,2.59188 2.85196,4.00369 3.04663,8.14833 -2.08572,17.54781 -10.82444,19.82394 -2.33272,0.6076 -6.22273,0.56093 -8.53095,-0.10234 z m -311.08021,-25.21394 0,-24.86811 2.89874,0 2.89873,0 0,24.86811 0,24.86811 -2.89873,0 -2.89874,0 0,-24.86811 z m 64.07734,0 0,-24.86811 13.13293,0 13.13294,0 -0.0886,2.51732 -0.0886,2.51733 -10.14558,0.0804 -10.14558,0.0804 0,7.31901 0,7.31901 9.91673,0 9.91673,0 0,2.59361 0,2.5936 -9.91673,0 -9.91673,0 0,9.76006 0,9.76005 10.14558,0.0804 10.14558,0.0804 0.0886,2.51732 0.0886,2.51733 -13.13294,0 -13.13293,0 0,-24.86811 z m 38.75153,-0.0294 0,-24.89753 6.78915,0.13561 c 7.1849,0.14352 8.72996,0.38673 12.0298,1.89363 5.93515,2.71034 8.36095,10.35582 5.59842,17.64477 -0.81839,2.15932 -3.30069,4.94226 -5.45348,6.11395 -0.84057,0.4575 -2.48101,1.06882 -3.64542,1.35849 l -2.1171,0.52668 7.72173,10.83212 c 4.24694,5.95767 7.73014,10.9396 7.74042,11.07096 0.0103,0.13136 -1.51765,0.20002 -3.39542,0.15257 l -3.41414,-0.0863 -7.36127,-10.67955 c -5.41866,-7.86127 -7.53729,-10.70529 -8.02825,-10.77706 l -0.66697,-0.0975 0,10.85334 0,10.85335 -2.89873,0 -2.89874,0 0,-24.89754 z m 12.36574,-2.28634 c 5.30156,-0.98005 7.72173,-4.05539 7.402,-9.40581 -0.16375,-2.74013 -0.91014,-4.40893 -2.59531,-5.80266 -1.62106,-1.3407 -3.64835,-1.88029 -7.78968,-2.07332 l -3.58528,-0.16711 0,8.89066 0,8.89066 2.385,0 c 1.31176,0 3.19423,-0.14959 4.18327,-0.33242 z m 66.35784,2.31577 0,-24.86811 2.89874,0 2.89874,0 0,24.86811 0,24.86811 -2.89874,0 -2.89874,0 0,-24.86811 z m 25.32581,2.5936 0,-22.2745 -5.95004,0 -5.95004,0 0,-2.5936 0,-2.59361 14.95138,0 14.95138,0 0,2.59361 0,2.5936 -6.1026,0 -6.10261,0 0,22.2745 0,22.27451 -2.89873,0 -2.89874,0 0,-22.27451 z m 17.08729,22.07238 c 0,-0.43662 22.68295,-51.67 22.87625,-51.67 0.159,0 21.27126,48.92716 22.15739,51.34923 0.18445,0.50418 -0.0343,0.53851 -2.91674,0.4577 l -3.11617,-0.0874 -1.65646,-3.96669 c -0.91103,-2.18168 -2.21796,-5.30545 -2.90426,-6.94171 l -1.24786,-2.97502 -10.60135,0 -10.60135,0 -2.97496,7.01799 -2.97493,7.018 -3.01978,0 c -1.66088,0 -3.01978,-0.091 -3.01978,-0.20213 z m 30.82104,-19.24992 c 0.004,-0.28829 -8.03108,-19.61374 -8.11585,-19.5206 -0.0503,0.0553 -7.71857,18.00555 -8.27391,19.36803 -0.12211,0.29958 1.6193,0.38142 8.1157,0.38142 4.54916,0 8.27248,-0.10298 8.27406,-0.22885 z m 24.10239,-2.82246 0,-22.2745 -5.95004,0 -5.95004,0 0,-2.5936 0,-2.59361 14.95138,0 14.95138,0 0,2.59361 0,2.5936 -6.1026,0 -6.10261,0 0,22.2745 0,22.27451 -2.89873,0 -2.89874,0 0,-22.27451 z m -43.85645,-22.42175 c -1.09206,-0.47475 -2.21531,-2.06694 -2.21708,-3.1427 -0.005,-2.81969 2.9406,-4.58932 5.46522,-3.28379 0.92952,0.48068 1.85748,2.11261 1.85565,3.26343 -0.002,1.12416 -1.131,2.69426 -2.28424,3.17611 -1.2795,0.53461 -1.56281,0.5333 -2.81955,-0.013 z m 20.79325,0.0223 c -1.61219,-0.7082 -2.34481,-1.93026 -2.18223,-3.64008 0.19009,-1.99927 1.17334,-2.98251 3.17262,-3.17261 1.74687,-0.1661 2.95439,0.58611 3.66287,2.28173 1.16609,2.7909 -1.87453,5.75162 -4.65326,4.53096 z"
       style="display:inline;fill:#ffffff;fill-opacity:1"
       sodipodi:nodetypes="cssssscccsssssssscccccccssccsssssssccsssssccccccccccccccccccccccccccccccccccccccccccccccccccccsscccccccsssccccccccccccccccssccccccccccccccccccsscccsssccccssscccccccsssccccccccccccccccccsscccssccccssscccccccsssccccccccccccccccccccccccccccccccccccccccccccccccccccccccccccccccccccccccccccccccccccccccccccccccccccccccccccscccsccccccccscccsscccssscccccccccccccccccsccscccccccsscccccsssccsssssssssssssscccssssssccsssssssssssssssscccsssssccccccccccccccccccccccccccccccccccccccssscccscccccccccccsscccccccccccccccccccccccccccccccccssccccccccccccssscccccccccccccccccccssssccsssc" />
  </g>
</svg>
