<?xml version="1.0" encoding="UTF-8" standalone="no"?>
<!DOCTYPE svg PUBLIC "-//W3C//DTD SVG 1.1//EN" "http://www.w3.org/Graphics/SVG/1.1/DTD/svg11.dtd">
<svg width="100%" height="100%" viewBox="0 0 16 18" version="1.1" xmlns="http://www.w3.org/2000/svg" xmlns:xlink="http://www.w3.org/1999/xlink" xml:space="preserve" style="fill-rule:evenodd;clip-rule:evenodd;stroke-linejoin:round;stroke-miterlimit:1.41421;">
    <g transform="matrix(1,0,0,1,-4,-3)">
        <rect x="0" y="0" width="24" height="24" style="fill:none;"/>
    </g>
    <g transform="matrix(0.888889,0,0,0.818182,-2.66667,-0.818182)">
        <path d="M15,7L15,19.97L10.79,18.16L10,17.82L9.21,18.16L5,19.97L5,7L15,7M19,1L8.99,1C7.89,1 7,1.9 7,3L17,3C18.1,3 19,3.9 19,5L19,18L21,19L21,3C21,1.9 20.1,1 19,1ZM15,5L5,5C3.9,5 3,5.9 3,7L3,23L10,20L17,23L17,7C17,5.9 16.1,5 15,5Z" style="fill-rule:nonzero;"/>
    </g>
</svg>
