<?xml version="1.0" encoding="UTF-8" standalone="no"?>
<!DOCTYPE svg PUBLIC "-//W3C//DTD SVG 1.1//EN" "http://www.w3.org/Graphics/SVG/1.1/DTD/svg11.dtd">
<svg width="100%" height="100%" viewBox="0 0 14 18" version="1.1" xmlns="http://www.w3.org/2000/svg" xmlns:xlink="http://www.w3.org/1999/xlink" xml:space="preserve" style="fill-rule:evenodd;clip-rule:evenodd;stroke-linejoin:round;stroke-miterlimit:1.41421;">
    <g transform="matrix(1,0,0,1,-5,-3)">
        <rect x="0" y="0" width="24" height="24" style="fill:none;"/>
    </g>
    <g transform="matrix(1,0,0,1,-5,-3)">
        <path d="M16,9L16,19L8,19L8,9L16,9M14.5,3L9.5,3L8.5,4L5,4L5,6L19,6L19,4L15.5,4L14.5,3ZM18,7L6,7L6,19C6,20.1 6.9,21 8,21L16,21C17.1,21 18,20.1 18,19L18,7Z" style="fill-rule:nonzero;"/>
    </g>
</svg>
