<?xml version="1.0" encoding="UTF-8" standalone="no"?>
<!DOCTYPE svg PUBLIC "-//W3C//DTD SVG 1.1//EN" "http://www.w3.org/Graphics/SVG/1.1/DTD/svg11.dtd">
<svg width="100%" height="100%" viewBox="0 0 20 20" version="1.1" xmlns="http://www.w3.org/2000/svg" xmlns:xlink="http://www.w3.org/1999/xlink" xml:space="preserve" style="fill-rule:evenodd;clip-rule:evenodd;stroke-linejoin:round;stroke-miterlimit:1.41421;">
    <path d="M9,5L11,5L11,7L9,7L9,5ZM9,9L11,9L11,15L9,15L9,9ZM10,0C4.48,0 0,4.48 0,10C0,15.52 4.48,20 10,20C15.52,20 20,15.52 20,10C20,4.48 15.52,0 10,0ZM10,18C5.59,18 2,14.41 2,10C2,5.59 5.59,2 10,2C14.41,2 18,5.59 18,10C18,14.41 14.41,18 10,18Z" style="fill-rule:nonzero;"/>
</svg>
