<?xml version="1.0" encoding="UTF-8" standalone="no"?>
<!DOCTYPE svg PUBLIC "-//W3C//DTD SVG 1.1//EN" "http://www.w3.org/Graphics/SVG/1.1/DTD/svg11.dtd">
<svg width="100%" height="100%" viewBox="0 0 20 31" version="1.1" xmlns="http://www.w3.org/2000/svg" xmlns:xlink="http://www.w3.org/1999/xlink" xml:space="preserve" style="fill-rule:evenodd;clip-rule:evenodd;stroke-linejoin:round;stroke-miterlimit:1.41421;">
    <g transform="matrix(0.991275,0,0,0.968598,-5.85842,2.88089e-05)">
        <path d="M25.297,17.984C25.093,17.5 24.854,17.036 24.578,16.593L24.578,8.552C24.583,6.287 23.677,4.109 22.067,2.505C20.468,0.896 18.291,-0.006 16.02,0C13.748,-0.005 11.572,0.896 9.968,2.505C8.359,4.104 7.457,6.286 7.463,8.552L7.463,9.724L10.89,9.724L10.89,8.552C10.89,7.188 11.421,5.896 12.395,4.927C13.354,3.964 14.66,3.422 16.02,3.427C18.848,3.432 21.144,5.724 21.149,8.552L21.149,13.235C19.592,12.307 17.81,11.818 15.998,11.823C13.321,11.818 10.753,12.88 8.862,14.776C6.967,16.667 5.905,19.235 5.91,21.912C5.905,24.584 6.967,27.151 8.862,29.041C10.753,30.937 13.321,32.005 15.998,32.005C18.675,32.005 21.243,30.942 23.134,29.046C25.029,27.155 26.091,24.587 26.086,21.911C26.086,20.551 25.821,19.228 25.295,17.983L25.297,17.984ZM16,28.573C12.328,28.573 9.339,25.584 9.339,21.912C9.339,18.24 12.328,15.251 16,15.251C19.672,15.251 22.661,18.235 22.661,21.912C22.661,25.584 19.672,28.573 16,28.573ZM18.86,21.943C18.86,25.708 13.208,25.708 13.208,21.943C13.208,18.172 18.86,18.172 18.86,21.943Z" style="fill-rule:nonzero;"/>
    </g>
</svg>
