<?xml version="1.0" encoding="UTF-8" standalone="no"?>
<!DOCTYPE svg PUBLIC "-//W3C//DTD SVG 1.1//EN" "http://www.w3.org/Graphics/SVG/1.1/DTD/svg11.dtd">
<svg width="100%" height="100%" viewBox="0 0 16 20" version="1.1" xmlns="http://www.w3.org/2000/svg" xmlns:xlink="http://www.w3.org/1999/xlink" xml:space="preserve" style="fill-rule:evenodd;clip-rule:evenodd;stroke-linejoin:round;stroke-miterlimit:1.41421;">
    <path d="M14,20L1.99,20C0.89,20 0,19.1 0,18L0,2C0,0.9 0.9,0 2,0L10,0L16,6L16,18C16,19.1 15.1,20 14,20ZM14.147,15.69L14.132,15.742C13.903,16.353 13.448,16.699 12.877,16.696C12.24,16.694 11.874,16.373 11.874,16.373C11.2,15.842 10.515,15.257 9.832,14.627C9.456,14.606 9.083,14.595 8.721,14.595C7.202,14.595 5.895,14.779 4.834,15.142L4.711,15.468C4.072,17.098 3.188,17.341 2.719,17.341C2.666,17.341 2.619,17.337 2.578,17.333C2.479,17.322 2.417,17.303 2.406,17.299L2.346,17.276C2.088,17.149 1.923,16.953 1.85,16.702C1.703,16.193 2.018,15.648 2.082,15.544C2.082,15.544 2.539,14.726 3.99,14.299C4.438,13.109 5.186,11.101 5.533,10.058C5.253,9.715 5.111,9.528 5.111,9.527C4.559,8.761 4.39,8.113 4.608,7.599C4.814,7.111 5.308,6.917 5.567,6.878C5.632,6.868 5.7,6.862 5.766,6.862C6.12,6.862 6.427,7.014 6.627,7.29C6.964,7.752 7.01,8.546 6.769,9.718C6.763,9.745 6.755,9.778 6.746,9.815C7.415,10.61 8.701,12.072 10.29,13.567C10.555,13.586 10.821,13.61 11.08,13.639C11.972,13.736 12.564,13.853 12.628,13.866C12.653,13.869 13.542,14 13.969,14.629C14.177,14.936 14.239,15.303 14.147,15.69ZM2.748,16.243C2.712,16.358 2.874,16.531 3.046,16.397C3.053,16.395 3.245,16.212 3.783,15.3C3.121,15.74 2.812,16.043 2.748,16.243ZM12.85,15.518C12.969,15.509 13.072,15.295 12.884,15.183C12.88,15.178 12.639,15.066 11.593,14.898C12.245,15.354 12.64,15.531 12.85,15.518ZM8.609,13.452C7.71,12.553 6.949,11.715 6.391,11.075L6.391,11.076L6.35,11.028C6.038,11.916 5.613,13.065 5.311,13.873C6.285,13.636 7.429,13.514 8.661,13.508L8.609,13.452ZM5.869,7.939C5.799,7.842 5.563,7.866 5.567,8.085C5.564,8.091 5.595,8.355 6,9.334C6.047,8.539 5.99,8.111 5.869,7.939ZM14.5,7L9,1.5L9,7L14.5,7Z"/>
</svg>
