<?xml version="1.0" encoding="UTF-8" standalone="no"?>
<!DOCTYPE svg PUBLIC "-//W3C//DTD SVG 1.1//EN" "http://www.w3.org/Graphics/SVG/1.1/DTD/svg11.dtd">
<svg width="100%" height="100%" viewBox="0 0 20 18" version="1.1" xmlns="http://www.w3.org/2000/svg" xmlns:xlink="http://www.w3.org/1999/xlink" xml:space="preserve" style="fill-rule:evenodd;clip-rule:evenodd;stroke-linejoin:round;stroke-miterlimit:1.41421;">
    <g transform="matrix(1,0,0,1,-2,-3)">
        <path d="M18,3L18,8L19,8C20.66,8 22,9.34 22,11L22,17L18,17L18,21L6,21L6,17L2,17L2,11C2,9.34 3.34,8 5,8L6,8L6,3L18,3ZM16,19L16,15L8,15L8,19L16,19ZM20,15L20,11C20,10.45 19.55,10 19,10L5,10C4.45,10 4,10.45 4,11L4,15L6,15L6,13L18,13L18,15L20,15ZM18,10.5C18.552,10.5 19,10.948 19,11.5C19,12.052 18.552,12.5 18,12.5C17.448,12.5 17,12.052 17,11.5C17,10.948 17.448,10.5 18,10.5ZM16,8L16,5L8,5L8,8L16,8Z"/>
    </g>
</svg>
