<?xml version="1.0" encoding="UTF-8" standalone="no"?>
<!DOCTYPE svg PUBLIC "-//W3C//DTD SVG 1.1//EN" "http://www.w3.org/Graphics/SVG/1.1/DTD/svg11.dtd">
<svg width="100%" height="100%" viewBox="0 0 20 17" version="1.1" xmlns="http://www.w3.org/2000/svg" xmlns:xlink="http://www.w3.org/1999/xlink" xml:space="preserve" style="fill-rule:evenodd;clip-rule:evenodd;stroke-linejoin:round;stroke-miterlimit:1.41421;">
    <g transform="matrix(0.445424,0,0,0.465894,-12.2487,-12.8172)">
        <g>
            <path d="M72.4,31.83C70.748,32.563 68.973,33.058 67.109,33.281C69.011,32.141 70.472,30.336 71.159,28.185C69.379,29.241 67.408,30.007 65.309,30.42C63.629,28.63 61.235,27.511 58.585,27.511C53.498,27.511 49.373,31.635 49.373,36.723C49.373,37.445 49.455,38.148 49.612,38.822C41.956,38.438 35.168,34.771 30.625,29.197C29.832,30.558 29.378,32.14 29.378,33.828C29.378,37.024 31.004,39.843 33.476,41.495C31.966,41.447 30.546,41.033 29.303,40.343L29.302,40.459C29.302,44.922 32.477,48.645 36.691,49.492C35.918,49.703 35.104,49.815 34.264,49.815C33.67,49.815 33.093,49.757 32.531,49.65C33.703,53.31 37.105,55.973 41.136,56.047C37.983,58.518 34.011,59.99 29.696,59.99C28.953,59.99 28.219,59.946 27.499,59.861C31.576,62.475 36.418,64 41.62,64C58.564,64 67.829,49.963 67.829,37.791C67.829,37.392 67.82,36.994 67.802,36.599C69.602,35.3 71.164,33.678 72.399,31.83" style="fill:white;fill-rule:nonzero;"/>
        </g>
    </g>
</svg>
