<?xml version="1.0" encoding="UTF-8" standalone="no"?>
<!DOCTYPE svg PUBLIC "-//W3C//DTD SVG 1.1//EN" "http://www.w3.org/Graphics/SVG/1.1/DTD/svg11.dtd">
<svg width="100%" height="100%" viewBox="0 0 24 24" version="1.1" xmlns="http://www.w3.org/2000/svg" xmlns:xlink="http://www.w3.org/1999/xlink" xml:space="preserve" style="fill-rule:evenodd;clip-rule:evenodd;stroke-linejoin:round;stroke-miterlimit:1.41421;">
    <rect x="0" y="0" width="24" height="24" style="fill:none;"/>
    <path d="M15.5,14L20.49,19L19,20.49L14,15.5L14,14.71L13.73,14.43C12.59,15.41 11.11,16 9.5,16C5.91,16 3,13.09 3,9.5C3,5.91 5.91,3 9.5,3L9.542,3C13.113,3.023 16,5.924 16,9.5C16,11.11 15.41,12.59 14.43,13.73L14.71,14L15.5,14ZM10.497,8.591L10.497,4.964L8.683,4.964L8.683,8.591L5.056,8.591L5.056,10.405L8.683,10.405L8.683,14.032L10.497,14.032L10.497,10.405L14.125,10.405L14.125,8.591L10.497,8.591Z"/>
</svg>
