<svg xmlns="http://www.w3.org/2000/svg" xml:space="preserve" viewBox="0 0 512 512"><style>@media (prefers-color-scheme:dark){path.p1,path.p2{fill:#ccc}}</style><path d="M282.253 216.621c10.529 20.918 21.199 42.258 32.289 62.614l79.742.14L256.281 16.004l-41.696 79.04c25.27 37.343 46.75 80.022 67.668 121.577Zm-56.016 28.219c-14.6-29.061-29.481-58.683-45.345-85.779l-63.176 119.612 82.128.281L199.253 512l113.013.281.311-120.173c-33.834-42.678-60.508-95.886-86.34-147.268Z" class="p1" style="fill:#005ade"/><path d="M476.131 434.646h-3.65c-24.007 0-45.767-5.756-66.404-17.408-18.813-10.67-36.361-25.972-53.77-46.89-33.132-39.871-60.227-93.64-86.339-145.584-27.096-53.91-55.033-109.504-90.552-151.902-19.514-23.304-39.449-40.432-61.069-52.506C90.059 6.879 63.666 0 35.588 0H25.199v26.814h10.389c24.007 0 45.767 5.756 66.405 17.409 18.812 10.669 36.36 25.972 53.769 46.89 33.132 39.871 60.227 93.64 86.339 145.584 27.096 53.91 55.033 109.504 90.552 151.902 19.514 23.304 39.449 40.432 61.069 52.505 24.288 13.478 50.681 20.357 78.759 20.357h4.212l10.108-.281v-26.955l-10.67.421Z" class="p2" style="fill:#f60;fill-rule:nonzero"/></svg>