<?xml version="1.0" standalone="no"?>
<!DOCTYPE svg PUBLIC "-//W3C//DTD SVG 20010904//EN"
 "http://www.w3.org/TR/2001/REC-SVG-20010904/DTD/svg10.dtd">
<svg version="1.0" xmlns="http://www.w3.org/2000/svg"
 width="672.000000pt" height="672.000000pt" viewBox="0 0 672.000000 672.000000"
 preserveAspectRatio="xMidYMid meet">
<metadata>
Created by potrace 1.11, written by Peter Selinger 2001-2013
</metadata>
<g transform="translate(0.000000,672.000000) scale(0.100000,-0.100000)"
fill="#000000" stroke="none">
<path d="M3454 6116 c-72 -17 -90 -26 -295 -144 -85 -48 -278 -160 -429 -247
-151 -86 -279 -161 -285 -165 -5 -4 -149 -88 -320 -185 -403 -231 -427 -247
-482 -314 -53 -64 -106 -172 -122 -249 -6 -29 -11 -127 -11 -218 0 -137 3
-166 15 -170 8 -4 15 -16 15 -28 0 -16 3 -18 9 -7 7 11 15 9 43 -10 52 -36 37
-56 -17 -24 -24 14 -48 25 -54 25 -8 0 -11 -60 -11 -185 0 -156 2 -187 15
-191 8 -4 15 -16 15 -28 0 -15 3 -17 9 -7 7 10 52 -12 202 -99 107 -62 211
-123 232 -136 37 -24 48 -44 25 -44 -11 0 -337 187 -348 199 -12 14 -139 75
-145 69 -3 -3 -9 -89 -12 -190 l-6 -184 24 -23 c16 -15 18 -20 7 -16 -27 10
-29 -20 -21 -248 5 -114 5 -207 1 -207 -11 0 -10 -109 2 -210 11 -99 52 -191
125 -282 55 -69 82 -87 410 -275 143 -83 406 -234 585 -338 179 -103 415 -240
525 -303 229 -132 285 -153 420 -153 158 -1 125 -17 890 426 121 70 373 215
560 322 187 108 367 215 401 239 69 49 147 153 185 249 l24 60 3 980 3 980
-25 81 c-28 89 -99 199 -164 255 -22 19 -127 84 -234 145 -106 61 -323 187
-483 279 -159 93 -396 229 -525 303 -129 74 -266 154 -305 177 -129 78 -181
95 -300 101 -56 2 -113 -1 -151 -10z m1986 -1255 c0 -3 -12 -13 -28 -22 -266
-155 -430 -249 -937 -536 -743 -421 -729 -413 -754 -418 -15 -3 -21 1 -21 15
0 20 59 55 760 452 865 491 953 538 967 527 7 -7 13 -14 13 -18z m-3593 -32
c85 -46 275 -155 858 -494 742 -431 720 -417 723 -443 2 -12 0 -22 -5 -22 -14
0 -179 94 -813 462 -820 476 -824 479 -828 506 -2 12 -1 22 2 22 3 0 32 -14
63 -31z m1743 -394 c0 -328 0 -335 -20 -335 -20 0 -20 7 -20 298 0 315 4 372
26 372 12 0 14 -58 14 -335z m-815 -548 l770 -445 3 59 c3 61 18 80 25 32 2
-16 5 -3 6 27 2 41 5 50 11 35 10 -22 13 -1927 4 -1962 -7 -24 -42 -33 -41
-11 0 7 -1 74 -2 148 l-1 135 -243 140 c-264 152 -313 192 -345 278 -22 58
-39 162 -26 155 32 -18 555 -324 582 -340 l32 -20 0 119 -1 118 -417 242
c-229 133 -432 257 -451 275 -43 42 -88 137 -97 207 l-7 55 44 -26 c35 -20
326 -189 887 -515 l42 -25 0 110 0 109 -162 93 c-411 235 -1006 586 -1039 611
-48 38 -86 111 -99 193 -6 38 -9 70 -8 71 2 1 293 -166 648 -371 355 -206 648
-374 653 -374 4 0 7 48 7 108 l0 107 -268 154 c-656 380 -1230 715 -1260 738
-61 46 -93 112 -116 241 l-6 33 53 -30 c28 -16 399 -230 822 -474z m-722 -622
c309 -178 379 -225 334 -225 -15 0 -789 448 -798 462 -3 5 -9 9 -13 9 -21 -3
-26 1 -26 20 0 24 -8 29 503 -266z m147 -538 c294 -170 552 -320 573 -333 40
-26 49 -47 17 -42 -10 2 -294 163 -629 358 -450 262 -610 360 -611 373 0 16 7
14 58 -14 31 -18 298 -172 592 -342z"/>
<path d="M3729 3903 c-13 -16 -12 -17 4 -4 16 13 21 21 13 21 -2 0 -10 -8 -17
-17z"/>
</g>
</svg>
