<svg id="Ebene_1" data-name="Ebene 1" xmlns="http://www.w3.org/2000/svg" viewBox="0 0 252.83 31.1"><defs><style>.cls-1{fill:#2056ae;}</style></defs><title>DFG_Logo</title><path class="cls-1" d="M97.67-.2h2.6a5.09,5.09,0,0,1,4,1.4,5.49,5.49,0,0,1,1.2,3.7,4.6,4.6,0,0,1-1.7,4,7.07,7.07,0,0,1-4.3,1.2h-1.8Zm1.1,9.5h.9c3.2.1,4.8-1.4,4.9-4.4q0-2.4-1.2-3.3a4.86,4.86,0,0,0-3-.9h-1.6Z"/><path class="cls-1" d="M112.77,10a5.7,5.7,0,0,1-2.2.4,3.39,3.39,0,0,1-2.7-1.1,4.88,4.88,0,0,1-.8-2.8,4.56,4.56,0,0,1,.9-2.9,2.84,2.84,0,0,1,2.3-1.1,2.59,2.59,0,0,1,2.3,1.1,4.53,4.53,0,0,1,.7,2.7v.5h-5.2a3.17,3.17,0,0,0,.6,2,2.08,2.08,0,0,0,1.9.9,5,5,0,0,0,1.2-.2,3,3,0,0,0,1-.4Zm-.5-4.1a3.42,3.42,0,0,0-.4-1.8,1.65,1.65,0,0,0-1.5-.8,1.94,1.94,0,0,0-1.6.8,2.79,2.79,0,0,0-.6,1.8Z"/><path class="cls-1" d="M121.07,8.4a10.87,10.87,0,0,0,.1,1.8h-.9V8.8h0c-.1.2-.2.3-.3.5s-.3.3-.5.5a4.35,4.35,0,0,1-.7.4,3,3,0,0,1-1,.2,2.48,2.48,0,0,1-2-.8,3.28,3.28,0,0,1-.6-2.1V2.6h.9V7.2a2.86,2.86,0,0,0,.4,1.7,1.61,1.61,0,0,0,1.4.7,2,2,0,0,0,1.1-.3,2.34,2.34,0,0,0,.7-.7,3.55,3.55,0,0,0,.4-.9,3.08,3.08,0,0,0,.1-1V2.5h.9V8.4Z"/><path class="cls-1" d="M126.67,3.4H125V8.3a2.92,2.92,0,0,0,.2.9.89.89,0,0,0,.8.4,2.92,2.92,0,0,0,.9-.2l.1.8a4.33,4.33,0,0,1-.5.1,1.48,1.48,0,0,1-.7.1,3,3,0,0,1-1-.2,1,1,0,0,1-.5-.6,1.88,1.88,0,0,1-.2-.8V3.4h-1.5V2.6h1.5V.8l.9-.3V2.7h1.7Z"/><path class="cls-1" d="M129.77,9.6a1.59,1.59,0,0,0,1.2-.4,1.23,1.23,0,0,0,.5-1,1.38,1.38,0,0,0-.6-1.1c-.4-.2-.8-.5-1.3-.7a4.88,4.88,0,0,0-.7-.3c-.2-.1-.4-.3-.6-.4a1.27,1.27,0,0,1-.4-.6,1.45,1.45,0,0,1-.2-.7,1.7,1.7,0,0,1,.8-1.6,3.37,3.37,0,0,1,1.7-.5,3.44,3.44,0,0,1,.9.1c.3.1.7.2,1,.3l-.1.8a8.47,8.47,0,0,0-1.7-.4,2.13,2.13,0,0,0-1.2.3c-.1.1-.3.2-.3.4a1.27,1.27,0,0,0-.1.6.52.52,0,0,0,.2.4c.1.1.3.2.4.4l.6.3c.2.1.5.2.7.3a5.67,5.67,0,0,1,1.3.8,1.68,1.68,0,0,1,.6,1.4,3,3,0,0,1-.2,1,4.35,4.35,0,0,1-.6.7,4.07,4.07,0,0,1-1.8.5,5.22,5.22,0,0,1-2.1-.4l.1-.9A2.64,2.64,0,0,0,129.77,9.6Z"/><path class="cls-1" d="M139.17,3.6a4.71,4.71,0,0,0-1.6-.4,2.58,2.58,0,0,0-2.1.9,3.57,3.57,0,0,0-.8,2.3,3.23,3.23,0,0,0,.7,2.2,3,3,0,0,0,2,1,4.67,4.67,0,0,0,1.7-.3l.1.9a6.45,6.45,0,0,1-2,.3,3.16,3.16,0,0,1-2.7-1.2,4.47,4.47,0,0,1-.9-2.8,4.41,4.41,0,0,1,1-2.9,3.69,3.69,0,0,1,2.7-1.1,4.12,4.12,0,0,1,1.2.1c.2,0,.3.1.4.1s.2.1.3.1Z"/><path class="cls-1" d="M140.77-1h.9V3.9h0a3.13,3.13,0,0,1,.9-1.1,2.3,2.3,0,0,1,1.4-.4,2.34,2.34,0,0,1,2.1.9,4.13,4.13,0,0,1,.5,2.3v4.6h-.8V5.7a3.4,3.4,0,0,0-.1-1,1.33,1.33,0,0,0-.3-.8c-.2-.5-.7-.7-1.5-.7a1.75,1.75,0,0,0-1.7.9,4.55,4.55,0,0,0-.5,2v4.1h-.9Z"/><path class="cls-1" d="M154.27,10a5.7,5.7,0,0,1-2.2.4,3.39,3.39,0,0,1-2.7-1.1,4.88,4.88,0,0,1-.8-2.8,4.56,4.56,0,0,1,.9-2.9,2.84,2.84,0,0,1,2.3-1.1,2.59,2.59,0,0,1,2.3,1.1,4.53,4.53,0,0,1,.7,2.7v.5h-5.2a3.17,3.17,0,0,0,.6,2,2.08,2.08,0,0,0,1.9.9,5,5,0,0,0,1.2-.2,3,3,0,0,0,1-.4Zm-.5-4.1a3.42,3.42,0,0,0-.4-1.8,1.65,1.65,0,0,0-1.5-.8,1.94,1.94,0,0,0-1.6.8,2.79,2.79,0,0,0-.6,1.8Z"/><path class="cls-1" d="M97.67,17.7h5v.9h-3.9v3.7h3.7v.9h-3.7v4.9h-1V17.7Z"/><path class="cls-1" d="M104.57,21.5a3.64,3.64,0,0,1,5.4,0,4.41,4.41,0,0,1,.8,2.8,5.12,5.12,0,0,1-.8,2.8,3.64,3.64,0,0,1-5.4,0,4.47,4.47,0,0,1-.9-2.8A6.18,6.18,0,0,1,104.57,21.5Zm.9,5.1a2.08,2.08,0,0,0,1.9.9,2.2,2.2,0,0,0,1.9-.9,3.8,3.8,0,0,0,.6-2.2,4.14,4.14,0,0,0-.6-2.3,2.2,2.2,0,0,0-1.9-.9,2.32,2.32,0,0,0-1.9.9,4.18,4.18,0,0,0-.7,2.3A3.41,3.41,0,0,0,105.47,26.6Z"/><path class="cls-1" d="M112.57,22.2a8.12,8.12,0,0,0-.1-1.7h.9V22h0a2.84,2.84,0,0,1,.8-1.1,1.66,1.66,0,0,1,1.2-.5,1.7,1.7,0,0,1,.7.1v1a1.48,1.48,0,0,0-.7-.1,1.22,1.22,0,0,0-.9.3,4.35,4.35,0,0,0-.6.7c-.1.3-.2.6-.3,1a4.1,4.1,0,0,0-.1,1.1v3.8h-.9V22.2Z"/><path class="cls-1" d="M119,27.5a1.59,1.59,0,0,0,1.2-.4,1.23,1.23,0,0,0,.5-1,1.38,1.38,0,0,0-.6-1.1c-.4-.2-.8-.5-1.3-.7a4.88,4.88,0,0,0-.7-.3c-.2-.1-.4-.3-.6-.4a1.27,1.27,0,0,1-.4-.6,1.45,1.45,0,0,1-.2-.7,1.7,1.7,0,0,1,.8-1.6,3.37,3.37,0,0,1,1.7-.5,3.44,3.44,0,0,1,.9.1c.3.1.7.2,1,.3l-.1.8a8.47,8.47,0,0,0-1.7-.4,2.13,2.13,0,0,0-1.2.3c-.1.1-.3.2-.3.4a1.27,1.27,0,0,0-.1.6.52.52,0,0,0,.2.4c.1.1.3.2.4.4l.6.3c.2.1.5.2.7.3a5.67,5.67,0,0,1,1.3.8,1.68,1.68,0,0,1,.6,1.4,3,3,0,0,1-.2,1,4.35,4.35,0,0,1-.6.7,4.07,4.07,0,0,1-1.8.5,5.22,5.22,0,0,1-2.1-.4l.1-.9A2.64,2.64,0,0,0,119,27.5Z"/><path class="cls-1" d="M128.37,21.5a4.71,4.71,0,0,0-1.6-.4,2.58,2.58,0,0,0-2.1.9,3.57,3.57,0,0,0-.8,2.3,3.23,3.23,0,0,0,.7,2.2,3,3,0,0,0,2,1,4.67,4.67,0,0,0,1.7-.3l.1.9a6.45,6.45,0,0,1-2,.3,3.16,3.16,0,0,1-2.7-1.2,4.47,4.47,0,0,1-.9-2.8,4.41,4.41,0,0,1,1-2.9,3.69,3.69,0,0,1,2.7-1.1,4.12,4.12,0,0,1,1.2.1c.2,0,.3.1.4.1s.2.1.3.1Z"/><path class="cls-1" d="M130.07,16.9h.9v4.9h0a3.13,3.13,0,0,1,.9-1.1,2.3,2.3,0,0,1,1.4-.4,2.34,2.34,0,0,1,2.1.9,4.13,4.13,0,0,1,.5,2.3v4.6H135V23.6a3.4,3.4,0,0,0-.1-1,1.33,1.33,0,0,0-.3-.8c-.2-.5-.7-.7-1.5-.7a1.75,1.75,0,0,0-1.7.9,4.55,4.55,0,0,0-.5,2v4.1H130V16.9Z"/><path class="cls-1" d="M144.27,26.3a10.87,10.87,0,0,0,.1,1.8h-.9V26.7h0c-.1.2-.2.3-.3.5s-.3.3-.5.5a4.35,4.35,0,0,1-.7.4,3,3,0,0,1-1,.2,2.48,2.48,0,0,1-2-.8,3.28,3.28,0,0,1-.6-2.1V20.5h.9v4.6a2.86,2.86,0,0,0,.4,1.7,1.61,1.61,0,0,0,1.4.7,2,2,0,0,0,1.1-.3,2.34,2.34,0,0,0,.7-.7,3.55,3.55,0,0,0,.4-.9,3.08,3.08,0,0,0,.1-1V20.4h.9v5.9Z"/><path class="cls-1" d="M146.67,22.3a10.87,10.87,0,0,0-.1-1.8h.9v1.4h0a2.19,2.19,0,0,1,.3-.5c.1-.2.3-.3.4-.5a1.61,1.61,0,0,1,.7-.4,3.08,3.08,0,0,1,1-.1,2.48,2.48,0,0,1,2,.8,3.28,3.28,0,0,1,.6,2.1v4.9h-.9V23.6a2.86,2.86,0,0,0-.4-1.7,1.68,1.68,0,0,0-1.4-.6,2,2,0,0,0-1.8.9,3.55,3.55,0,0,0-.4.9,3.4,3.4,0,0,0-.1,1v4.2h-.9v-6Z"/><path class="cls-1" d="M161,27.5a4.55,4.55,0,0,1-.8,2.7,3.33,3.33,0,0,1-2.8,1.1,5.9,5.9,0,0,1-1.4-.2,5.07,5.07,0,0,0-.9-.2l.1-.9a5.09,5.09,0,0,0,2.2.5,2.65,2.65,0,0,0,1.4-.3,2,2,0,0,0,.8-.8,2.66,2.66,0,0,0,.3-1.2c0-.5.1-1,.1-1.5h0a2.47,2.47,0,0,1-2.3,1.5,2.75,2.75,0,0,1-2.5-1.3,6.12,6.12,0,0,1-.5-1.2,5.85,5.85,0,0,1-.2-1.3,5.2,5.2,0,0,1,.7-2.9,2.78,2.78,0,0,1,2.4-1.1,5.07,5.07,0,0,1,1.3.2,2.2,2.2,0,0,1,1.1.9h0v-.9h.9v6.9Zm-5-1.1a2,2,0,0,0,1.7,1,1.9,1.9,0,0,0,1.8-1,4.55,4.55,0,0,0,.5-2,5.21,5.21,0,0,0-.5-2.3,1.81,1.81,0,0,0-1.8-.9,2,2,0,0,0-1.1.3,2.34,2.34,0,0,0-.7.7,3,3,0,0,0-.4,1,4.48,4.48,0,0,0-.1,1.1A6.46,6.46,0,0,0,156,26.4Z"/><path class="cls-1" d="M164.67,27.5a1.59,1.59,0,0,0,1.2-.4,1.23,1.23,0,0,0,.5-1,1.38,1.38,0,0,0-.6-1.1c-.4-.2-.8-.5-1.3-.7a4.88,4.88,0,0,0-.7-.3c-.2-.1-.4-.3-.6-.4a1.27,1.27,0,0,1-.4-.6,1.45,1.45,0,0,1-.2-.7,1.7,1.7,0,0,1,.8-1.6,3.37,3.37,0,0,1,1.7-.5,3.44,3.44,0,0,1,.9.1l1,.3-.1.8a8.47,8.47,0,0,0-1.7-.4,2.13,2.13,0,0,0-1.2.3c-.1.1-.3.2-.3.4a1.27,1.27,0,0,0-.1.6.52.52,0,0,0,.2.4c.1.1.3.2.4.4l.6.3c.2.1.5.2.7.3a5.67,5.67,0,0,1,1.3.8,1.68,1.68,0,0,1,.6,1.4,3,3,0,0,1-.2,1,4.35,4.35,0,0,1-.6.7,4.07,4.07,0,0,1-1.8.5,5.22,5.22,0,0,1-2.1-.4l.1-.9A2.35,2.35,0,0,0,164.67,27.5Z"/><path class="cls-1" d="M175.07,27.5a4.55,4.55,0,0,1-.8,2.7,3.33,3.33,0,0,1-2.8,1.1,5.9,5.9,0,0,1-1.4-.2,5.07,5.07,0,0,0-.9-.2l.1-.9a5.09,5.09,0,0,0,2.2.5,2.65,2.65,0,0,0,1.4-.3,2,2,0,0,0,.8-.8,2.66,2.66,0,0,0,.3-1.2c0-.5.1-1,.1-1.5h0a2.47,2.47,0,0,1-2.3,1.5,2.75,2.75,0,0,1-2.5-1.3,6.12,6.12,0,0,1-.5-1.2,5.85,5.85,0,0,1-.2-1.3,5.2,5.2,0,0,1,.7-2.9,2.78,2.78,0,0,1,2.4-1.1,5.07,5.07,0,0,1,1.3.2,2.2,2.2,0,0,1,1.1.9h0v-.9h.9v6.9Zm-5-1.1a2,2,0,0,0,1.7,1,1.9,1.9,0,0,0,1.8-1,4.55,4.55,0,0,0,.5-2,5.21,5.21,0,0,0-.5-2.3,1.81,1.81,0,0,0-1.8-.9,2,2,0,0,0-1.1.3,2.34,2.34,0,0,0-.7.7,3,3,0,0,0-.4,1,4.48,4.48,0,0,0-.1,1.1A6.46,6.46,0,0,0,170.07,26.4Z"/><path class="cls-1" d="M182.47,27.9a5.7,5.7,0,0,1-2.2.4,3.39,3.39,0,0,1-2.7-1.1,4.88,4.88,0,0,1-.8-2.8,4.56,4.56,0,0,1,.9-2.9,2.84,2.84,0,0,1,2.3-1.1,2.59,2.59,0,0,1,2.3,1.1,4.53,4.53,0,0,1,.7,2.7v.5h-5.2a3.17,3.17,0,0,0,.6,2,2.08,2.08,0,0,0,1.9.9,5,5,0,0,0,1.2-.2,3,3,0,0,0,1-.4Zm-.5-4.1a3.42,3.42,0,0,0-.4-1.8,1.65,1.65,0,0,0-1.5-.8,1.94,1.94,0,0,0-1.6.8,2.79,2.79,0,0,0-.6,1.8Z"/><path class="cls-1" d="M194,28.1V23a2.2,2.2,0,0,0-.1-.8l-.3-.6a1,1,0,0,0-.5-.4,2,2,0,0,0-.8-.1,1.75,1.75,0,0,0-1.4.7,3.28,3.28,0,0,0-.6,2.1v4.2h-.9V23a2.2,2.2,0,0,0-.1-.8l-.3-.6a1,1,0,0,0-.5-.4,2,2,0,0,0-.8-.1,1.75,1.75,0,0,0-1.4.7,3.28,3.28,0,0,0-.6,2.1v4.2h-.9V22.3a10.87,10.87,0,0,0-.1-1.8h.9v1.3h0a2.19,2.19,0,0,0,.3-.5,1.76,1.76,0,0,1,.4-.5,4.35,4.35,0,0,1,.7-.4,3.08,3.08,0,0,1,1-.1,1.27,1.27,0,0,1,.6.1,1.42,1.42,0,0,1,.6.2,1.21,1.21,0,0,1,.5.5,1.91,1.91,0,0,1,.3.8h0a2.7,2.7,0,0,1,2.4-1.6,2.14,2.14,0,0,1,1.8.7,2.79,2.79,0,0,1,.6,1.8V28H194Z"/><path class="cls-1" d="M202.37,27.9a5.7,5.7,0,0,1-2.2.4,3.39,3.39,0,0,1-2.7-1.1,4.88,4.88,0,0,1-.8-2.8,4.56,4.56,0,0,1,.9-2.9,2.84,2.84,0,0,1,2.3-1.1,2.59,2.59,0,0,1,2.3,1.1,4.53,4.53,0,0,1,.7,2.7v.5h-5.2a3.17,3.17,0,0,0,.6,2,2.08,2.08,0,0,0,1.9.9,5,5,0,0,0,1.2-.2,3,3,0,0,0,1-.4Zm-.5-4.1a3.42,3.42,0,0,0-.4-1.8,1.65,1.65,0,0,0-1.5-.8,1.94,1.94,0,0,0-1.6.8,2.79,2.79,0,0,0-.6,1.8Z"/><path class="cls-1" d="M205.67,18.5h-.9V17.2h.9Zm-1,2h.9v7.6h-.9Z"/><path class="cls-1" d="M208,22.3a10.87,10.87,0,0,0-.1-1.8h.9v1.4h0a2.19,2.19,0,0,1,.3-.5c.1-.2.3-.3.4-.5a1.61,1.61,0,0,1,.7-.4,3.08,3.08,0,0,1,1-.1,2.48,2.48,0,0,1,2,.8,3.28,3.28,0,0,1,.6,2.1v4.9h-.9V23.6a2.86,2.86,0,0,0-.4-1.7,1.68,1.68,0,0,0-1.4-.6,2,2,0,0,0-1.8.9,3.55,3.55,0,0,0-.4.9,3.4,3.4,0,0,0-.1,1v4.2h-.9v-6Z"/><path class="cls-1" d="M217.67,27.5a1.59,1.59,0,0,0,1.2-.4,1.23,1.23,0,0,0,.5-1,1.38,1.38,0,0,0-.6-1.1c-.4-.2-.8-.5-1.3-.7a4.88,4.88,0,0,0-.7-.3c-.3-.1-.4-.3-.6-.4a1.27,1.27,0,0,1-.4-.6,1.45,1.45,0,0,1-.2-.7,1.7,1.7,0,0,1,.8-1.6,3.37,3.37,0,0,1,1.7-.5,3.44,3.44,0,0,1,.9.1l1,.3-.1.8a8.47,8.47,0,0,0-1.7-.4,2.13,2.13,0,0,0-1.2.3c-.1.1-.3.2-.3.4a1.27,1.27,0,0,0-.1.6.52.52,0,0,0,.2.4c.1.1.3.2.4.4l.6.3c.2.1.5.2.7.3a5.67,5.67,0,0,1,1.3.8,1.68,1.68,0,0,1,.6,1.4,3,3,0,0,1-.2,1,4.35,4.35,0,0,1-.6.7,4.07,4.07,0,0,1-1.8.5,5.22,5.22,0,0,1-2.1-.4l.1-.9A2.64,2.64,0,0,0,217.67,27.5Z"/><path class="cls-1" d="M227.07,21.5a4.71,4.71,0,0,0-1.6-.4,2.58,2.58,0,0,0-2.1.9,3.57,3.57,0,0,0-.8,2.3,3.23,3.23,0,0,0,.7,2.2,3,3,0,0,0,2,1,4.67,4.67,0,0,0,1.7-.3l.1.9a6.45,6.45,0,0,1-2,.3,3.16,3.16,0,0,1-2.7-1.2,4.47,4.47,0,0,1-.9-2.8,4.41,4.41,0,0,1,1-2.9,3.69,3.69,0,0,1,2.7-1.1,4.12,4.12,0,0,1,1.2.1c.2,0,.3.1.4.1s.2.1.3.1Z"/><path class="cls-1" d="M228.77,16.9h.9v4.9h0a3.13,3.13,0,0,1,.9-1.1,2.3,2.3,0,0,1,1.4-.4,2.34,2.34,0,0,1,2.1.9,4.13,4.13,0,0,1,.5,2.3v4.6h-.8V23.6a3.4,3.4,0,0,0-.1-1,1.33,1.33,0,0,0-.3-.8c-.2-.5-.7-.7-1.5-.7a1.75,1.75,0,0,0-1.7.9,4.55,4.55,0,0,0-.5,2v4.1h-.9Z"/><path class="cls-1" d="M241.37,26.9h0a2.41,2.41,0,0,1-1,1,3.26,3.26,0,0,1-1.4.4,2.5,2.5,0,0,1-1.3-.3,1.56,1.56,0,0,1-.8-.6,1.79,1.79,0,0,1-.4-1.3,2.46,2.46,0,0,1,.5-1.5,2.84,2.84,0,0,1,1.1-.8,4,4,0,0,1,1.5-.3h1.8v-.4c0-1.3-.5-2-1.7-2a4.28,4.28,0,0,0-2.2.6v-.9a5.85,5.85,0,0,1,2.2-.5c1.8,0,2.7.9,2.7,2.8v3.4a8.08,8.08,0,0,0,.1,1.6h-.9V26.9Zm0-2.6h-1.5a2.66,2.66,0,0,0-1.2.3,1.56,1.56,0,0,0-.8.6,1.49,1.49,0,0,0-.3,1,1.1,1.1,0,0,0,.5,1,2,2,0,0,0,1.1.3,2.5,2.5,0,0,0,1.3-.3,4.62,4.62,0,0,0,.7-.7l.3-.9V24.3Z"/><path class="cls-1" d="M245.17,21.3h-1.5v-.8h1.5v-.6a4.87,4.87,0,0,1,.1-1.2,3,3,0,0,1,.2-1,1.06,1.06,0,0,1,.6-.7,1.8,1.8,0,0,1,1.1-.3h.5c.2,0,.3.1.4.1l-.1.8a1.7,1.7,0,0,0-.7-.1,1.45,1.45,0,0,0-.7.2.86.86,0,0,0-.3.6,1.7,1.7,0,0,0-.1.7v1.5h1.7v.8h-1.7v6.8h-.9V21.3Z"/><path class="cls-1" d="M252.77,21.3h-1.7v4.9a2.92,2.92,0,0,0,.2.9.89.89,0,0,0,.8.4,2.92,2.92,0,0,0,.9-.2l.1.8a4.33,4.33,0,0,1-.5.1,1.48,1.48,0,0,1-.7.1,3,3,0,0,1-1-.2,1,1,0,0,1-.5-.6,1.88,1.88,0,0,1-.2-.8V21.3h-1.5v-.8h1.5V18.7l.9-.3v2.2h1.7v.7Z"/><path class="cls-1" d="M24.37,3.2A10.58,10.58,0,0,0,20.17,1a22,22,0,0,0-5.3-.6H-.33V6.8h12.9a5.21,5.21,0,0,1,2.3.5,3.16,3.16,0,0,1,1.4,1.4A6.93,6.93,0,0,1,17,11a26.89,26.89,0,0,1,.2,3.1,26.89,26.89,0,0,1-.2,3.1,6.33,6.33,0,0,1-.7,2.2,3.76,3.76,0,0,1-1.4,1.4,5.21,5.21,0,0,1-2.3.5H10V12.1H-.33V28.2h14.8a19,19,0,0,0,5.4-.7,9.45,9.45,0,0,0,4.3-2.3,11.67,11.67,0,0,0,2.9-4.2,17.77,17.77,0,0,0,1-6.5,19.36,19.36,0,0,0-1-6.9A9.7,9.7,0,0,0,24.37,3.2Zm50,10.9v7.4a3.59,3.59,0,0,1-1.1.2h-1.1a5.26,5.26,0,0,1-2.6-.6,4.36,4.36,0,0,1-1.7-1.6,8,8,0,0,1-1-2.3,12.41,12.41,0,0,1-.3-2.7,8.11,8.11,0,0,1,.6-3.3,7,7,0,0,1,1.7-2.4,8.65,8.65,0,0,1,2.7-1.5,12.3,12.3,0,0,1,3.5-.5,17.71,17.71,0,0,1,4.1.5,11.21,11.21,0,0,1,3,1.1V1a11.8,11.8,0,0,0-2-.4L78,.3c-.8-.1-1.7-.1-2.6-.2S73.27,0,72,0a21.13,21.13,0,0,0-6.2.9,16.91,16.91,0,0,0-5.2,2.6,12.3,12.3,0,0,0-3.5,4.3,13.06,13.06,0,0,0-1.3,6.1,14.07,14.07,0,0,0,1.3,6.4,12.27,12.27,0,0,0,3.5,4.6,15.14,15.14,0,0,0,5.2,2.7,21.81,21.81,0,0,0,6.3.9,36.49,36.49,0,0,0,5.9-.4,33.3,33.3,0,0,0,5.3-1.1V14h-8.9Zm-43.5,14h10.4V18.3h12.4V11.7H41.27V7.2h12.8V.6H30.87Z"/></svg>