<svg version="1.1" id="Layer_1" xmlns="http://www.w3.org/2000/svg" x="0" y="0" width="4808.4" height="119.4" xml:space="preserve"><style>.st0{fill:#f60}.st1{fill:#005be3}</style><g id="Layer_1_1_"><path class="st0" d="M1194.4 59.4c-12.2 24.3-24.9 49.4-49.5 49.4s-37.2-25.1-49.5-49.4c-12.4-24.7-25.3-50.2-50.7-50.2s-38.3 25.5-50.7 50.2c-12.2 24.3-24.9 49.4-49.5 49.4S907.2 83.7 895 59.4c-12.4-24.7-25.3-50.2-50.7-50.2S806 34.7 793.6 59.4c-12.3 24.3-24.9 49.4-49.5 49.4s-37.3-25.1-49.5-49.4c-12.4-24.7-25.3-50.2-50.7-50.2s-38.3 25.5-50.7 50.2c-12.2 24.3-24.9 49.4-49.5 49.4s-37.2-25.1-49.5-49.4C482 34.7 469.1 9.2 443.7 9.2S405.4 34.7 393 59.4c-12.2 24.3-24.9 49.4-49.5 49.4S306.2 83.7 294 59.4c-12.4-24.7-25.3-50.2-50.7-50.2S205 34.7 192.6 59.4c-12.3 24.3-24.9 49.4-49.5 49.4s-37.3-25.1-49.5-49.4C81.3 34.7 68.4 9.2 43 9.2v1.4c24.6 0 37.3 25.1 49.5 49.4 12.4 24.7 25.3 50.2 50.7 50.2s38.3-25.5 50.7-50.2c12.3-24.3 24.9-49.4 49.5-49.4s37.3 25.1 49.5 49.4c12.4 24.7 25.3 50.2 50.7 50.2 25.4 0 38.3-25.5 50.7-50.2 12.2-24.3 24.9-49.4 49.5-49.4S481 35.7 493.3 60c12.4 24.7 25.3 50.2 50.7 50.2s38.3-25.5 50.7-50.2c12.2-24.3 24.9-49.4 49.5-49.4s37.3 25.1 49.5 49.4c12.4 24.7 25.3 50.2 50.7 50.2s38.3-25.5 50.7-50.2c12.3-24.3 24.9-49.4 49.5-49.4s37.3 25.1 49.5 49.4c12.4 24.7 25.3 50.2 50.7 50.2s38.3-25.5 50.7-50.2c12.2-24.3 24.9-49.4 49.5-49.4s37.2 25.1 49.5 49.4c12.4 24.7 25.3 50.2 50.7 50.2 25.4 0 38.3-25.5 50.7-50.2 12.2-24.3 24.9-49.4 49.5-49.4V9.2c-25.7 0-38.6 25.5-51 50.2z"/><path class="st0" d="M2247.3 9.3c-25.4 0-38.3 25.5-50.7 50.2-12.2 24.3-24.9 49.4-49.5 49.4s-37.3-25.1-49.5-49.4c-12.4-24.7-25.3-50.2-50.7-50.2s-38.3 25.5-50.7 50.2c-12.3 24.3-24.9 49.4-49.5 49.4s-37.3-25.1-49.5-49.4c-12.4-24.7-25.3-50.2-50.7-50.2s-38.3 25.5-50.7 50.2c-12.2 24.3-24.9 49.4-49.5 49.4s-37.2-25.1-49.5-49.4c-12.4-24.7-25.3-50.2-50.7-50.2s-38.3 25.5-50.7 50.2c-12.2 24.3-24.9 49.4-49.5 49.4s-37.3-25.1-49.5-49.4c-12.4-24.7-25.3-50.2-50.7-50.2-25.4 0-38.3 25.5-50.7 50.2-12.3 24.3-24.9 49.4-49.5 49.4s-37.3-25.1-49.5-49.4c-12.4-24.7-25.3-50.2-50.7-50.2v1.4c24.6 0 37.3 25.1 49.5 49.4 12.4 24.7 25.3 50.2 50.7 50.2s38.3-25.5 50.7-50.2c12.3-24.3 24.9-49.4 49.5-49.4s37.3 25.1 49.5 49.4c12.4 24.7 25.3 50.2 50.7 50.2 25.4 0 38.3-25.5 50.7-50.2 12.2-24.3 24.9-49.4 49.5-49.4s37.2 25.1 49.5 49.4c12.4 24.7 25.3 50.2 50.7 50.2s38.3-25.5 50.7-50.2c12.2-24.3 24.9-49.4 49.5-49.4s37.3 25.1 49.5 49.4c12.4 24.7 25.3 50.2 50.7 50.2 25.4 0 38.3-25.5 50.7-50.2 12.3-24.3 24.9-49.4 49.5-49.4s37.3 25.1 49.5 49.4c12.4 24.7 25.3 50.2 50.7 50.2s38.3-25.5 50.7-50.2c12.2-24.3 24.9-49.4 49.5-49.4V9.3zM2547.4 110.2c25.4 0 38.3-25.5 50.7-50.2 12.3-24.3 24.9-49.4 49.5-49.4s37.3 25.1 49.5 49.4c12.4 24.7 25.3 50.2 50.7 50.2s38.3-25.5 50.7-50.2c12.2-24.3 24.9-49.4 49.5-49.4s37.2 25.1 49.5 49.4c12.4 24.7 25.3 50.2 50.7 50.2s38.3-25.5 50.7-50.2c12.2-24.3 24.9-49.4 49.5-49.4s37.3 25.1 49.5 49.4c12.4 24.7 25.3 50.2 50.7 50.2s38.3-25.5 50.7-50.2c12.3-24.3 24.9-49.4 49.5-49.4s37.3 25.1 49.5 49.4c12.4 24.7 25.3 50.2 50.7 50.2s38.3-25.5 50.7-50.2c12.2-24.3 24.9-49.4 49.5-49.4s37.2 25.1 49.5 49.4c12.4 24.7 25.3 50.2 50.7 50.2s38.3-25.5 50.7-50.2c12.2-24.3 24.9-49.4 49.5-49.4V9.2c-25.4 0-38.3 25.5-50.7 50.2-12.2 24.3-24.9 49.4-49.5 49.4s-37.2-25.1-49.5-49.4c-12.4-24.7-25.3-50.2-50.7-50.2s-38.3 25.5-50.7 50.2c-12.2 24.3-24.9 49.4-49.5 49.4s-37.3-25.1-49.5-49.4c-12.4-24.7-25.3-50.2-50.7-50.2s-38.3 25.5-50.7 50.2c-12.3 24.3-24.9 49.4-49.5 49.4s-37.3-25.1-49.5-49.4c-12.4-24.7-25.3-50.2-50.7-50.2s-38.3 25.5-50.7 50.2c-12.2 24.3-24.9 49.4-49.5 49.4s-37.2-25.1-49.5-49.4c-12.4-24.7-25.3-50.2-50.7-50.2s-38.3 25.5-50.7 50.2c-12.2 24.3-24.9 49.4-49.5 49.4s-37.3-25.1-49.5-49.4c-12.4-24.7-25.3-50.2-50.7-50.2s-38.3 25.5-50.7 50.2c-12.3 24.3-24.9 49.4-49.5 49.4v1.4z"/><path class="st0" d="M4800.7 59.4c-12.2 24.3-24.9 49.4-49.5 49.4s-37.2-25.1-49.5-49.4c-12.4-24.7-25.3-50.2-50.7-50.2s-38.3 25.5-50.7 50.2c-12.2 24.3-24.9 49.4-49.5 49.4s-37.3-25.1-49.5-49.4c-12.4-24.7-25.3-50.2-50.7-50.2-25.4 0-38.3 25.5-50.7 50.2-12.3 24.3-24.9 49.4-49.5 49.4s-37.3-25.1-49.5-49.4c-12.4-24.7-25.3-50.2-50.7-50.2-25.4 0-38.3 25.5-50.7 50.2-12.2 24.3-24.9 49.4-49.5 49.4s-37.2-25.1-49.5-49.4c-12.4-24.7-25.3-50.2-50.7-50.2s-38.3 25.5-50.7 50.2c-12.2 24.3-24.9 49.4-49.5 49.4s-37.3-25.1-49.5-49.4c-12.4-24.7-25.3-50.2-50.7-50.2s-38.3 25.5-50.7 50.2c-12.3 24.3-24.9 49.4-49.5 49.4s-37.3-25.1-49.5-49.4c-12.4-24.7-25.3-50.2-50.7-50.2v1.4c24.6 0 37.3 25.1 49.5 49.4 12.4 24.7 25.3 50.2 50.7 50.2s38.3-25.5 50.7-50.2c12.3-24.3 24.9-49.4 49.5-49.4s37.3 25.1 49.5 49.4c12.4 24.7 25.3 50.2 50.7 50.2s38.3-25.5 50.7-50.2c12.2-24.3 24.9-49.4 49.5-49.4s37.2 25.1 49.5 49.4c12.4 24.7 25.3 50.2 50.7 50.2s38.3-25.5 50.7-50.2c12.2-24.3 24.9-49.4 49.5-49.4s37.3 25.1 49.5 49.4c12.4 24.7 25.3 50.2 50.7 50.2 25.4 0 38.3-25.5 50.7-50.2 12.3-24.3 24.9-49.4 49.5-49.4s37.3 25.1 49.5 49.4c12.4 24.7 25.3 50.2 50.7 50.2s38.3-25.5 50.7-50.2c12.2-24.3 24.9-49.4 49.5-49.4s37.2 25.1 49.5 49.4c12.4 24.7 25.3 50.2 50.7 50.2s38.3-25.5 50.7-50.2c12.2-24.3 24.9-49.4 49.5-49.4V9.2c-25.4 0-38.2 25.5-50.7 50.2z"/></g><g id="Layer_2_1_"><path class="st1" d="M2341.1 97.4c-7.5 0-13.4-5.5-13.6-12.7V27.3h7.1v56.8a6.7 6.7 0 0013.4 0V27.3h7.1v57.4c-.4 7.2-6.4 12.7-14 12.7zm116.8.3c-7.7 0-13.6-5.5-13.7-12.7V39c.2-7.2 6.1-12.7 13.7-12.7 7.5 0 13.4 5.5 13.6 12.7v46c-.1 7.2-6.2 12.7-13.6 12.7zm0-64.7c-3.6-.2-6.6 2.6-6.7 6.2v45.3c-.1 3.6 2.7 6.6 6.3 6.7h.5c3.5.1 6.5-2.7 6.6-6.3V39.7c.1-3.5-2.6-6.5-6.2-6.7h-.5zm-70 6.3v1.1h-7.1v-.7a6.7 6.7 0 00-13.4 0v3.5c0 4.9 3.8 9.1 8.2 15 5.6 7.8 12.2 15.8 12.2 23.6V85c-.2 7.2-6.1 12.7-13.6 12.7-7.7 0-13.7-5.6-13.7-12.8v-1.2h7.1v.8c-.1 3.6 2.7 6.6 6.3 6.7h.5c3.5.1 6.5-2.7 6.6-6.3v-3.2c0-6.1-5.5-12.5-10.9-19.8-4.7-6.4-9.4-13.2-9.4-18.6v-4c.2-7.2 6.1-12.7 13.7-12.7 7.4-.2 13.5 5.4 13.5 12.7zm6.7-12h7.1v68.8h-7.1V27.3zm42.4 12v7.2h-7.1v-6.7a6.7 6.7 0 00-13.4 0v44.8c-.1 3.6 2.7 6.6 6.3 6.7h.5c3.5.1 6.5-2.7 6.6-6.3v-2.3h7.1v2.4c0 7.2-6.1 12.8-13.6 12.8-7.7 0-13.6-5.5-13.7-12.7v-46c.2-7.2 6.1-12.7 13.7-12.7 7.6-.1 13.6 5.5 13.6 12.8z"/><circle class="st1" cx="2398" cy="17.2" r="4.4"/><path class="st1" d="M2295.3 60.7c-1-1.9-1.9-3.8-2.9-5.8V96h7.1V68.9c-1.4-2.7-2.8-5.5-4.2-8.2zm-14.4-26.1c-1.3-1.9-2.6-3.7-4-5.5-2.9 2.3-4.7 5.7-4.9 9.7v57.3h7.1V38.9c0-1.7.7-3.2 1.8-4.3zm4-2h1.3c3.6.1 6.4 3.1 6.3 6.7v6c2.4 4.4 4.6 8.9 6.9 13.4.1.1.1.2.2.4V38.9c.1-3.5 3-6.4 6.6-6.3h.5c3.6.1 6.4 3.1 6.3 6.7v44.2c2.2 3.5 4.6 6.7 7.1 9.6V38.8c-.2-7.2-6.1-12.7-13.7-12.7-3.8-.1-7.5 1.4-10.2 4.2-2.7-2.7-6.4-4.3-10.2-4.2-1.7 0-3.4.3-4.9.8 1.2 1.8 2.5 3.7 3.8 5.7zm202 2.8c1.2-1.7 3.2-2.8 5.4-2.8h.5c3.6.1 6.4 3.1 6.3 6.7v18.5c.2.3.3.6.5.9 2.1 4.2 4.3 8.5 6.4 12.6V38.8c-.2-7.2-6.1-12.7-13.7-12.7-3.6 0-6.8 1.3-9.2 3.4 1.3 1.9 2.5 3.8 3.8 5.9zm-6.8-2.3c-.9 1.7-1.4 3.6-1.5 5.7v57.3h7.1V42c-1.7-3.1-3.6-6.1-5.6-8.9zm19 34.6v28.5h6.9V80.4c-2.4-4.1-4.7-8.4-6.9-12.7zm21.3 25.7V38.9c.1-3.5 3-6.4 6.6-6.3h.5c3.6.1 6.4 3.1 6.3 6.7v56.8h7.1V38.8c-.2-7.2-6.1-12.7-13.8-12.7-7.5 0-13.5 5.5-13.7 12.7v45.1c2.1 3.4 4.5 6.6 7 9.5z"/><path class="st0" d="M2371.3 99c-6.6 6.1-14.4 9.8-23.9 9.8-24.6 0-37.3-25.1-49.4-49.3-12.4-24.7-25.2-50.2-50.7-50.2v1.4c24.6 0 37.3 25.1 49.4 49.3 12.4 24.7 25.2 50.2 50.7 50.2 10.4 0 18.7-4.3 25.7-11-.6-.1-1.2-.1-1.8-.2zm31.9-52v2.9c1.6-3.1 3.3-6.1 5-9.1V39c0-.4 0-.7.1-1-1.8 2.9-3.5 5.9-5.1 9zm-10.1 19.8c-1.6 3-3.1 6.1-4.8 9 .2.6.4 1.2.5 1.9 1.4-2.6 2.9-5.2 4.3-7.9v-3zm152.9 42c-.2 0-.5-.1-.7-.1-.3 0-.6 0-.8-.1-.3 0-.6-.1-.8-.1s-.5-.1-.7-.1c-.3-.1-.6-.1-.9-.1-.1 0-.3-.1-.4-.1l-1.9-.5-.6-.1c-31.2-8.7-41-60.8-62.7-84.3-17.1-19.7-43.3-19.1-60.2 3.3.9-.4 1.8-.8 2.7-1.1 15.9-19.6 39-18.9 54-3.5 25.3 25.5 32.5 78.1 66.1 87.2l.4.1 2 .4c2 .4 4 .5 6.1.5v-.6l.1-.8"/></g><path class="st0" d="M-257.6 110.2c25.4 0 38.3-25.5 50.7-50.2 12.2-24.3 24.9-49.4 49.5-49.4s37.2 25.1 49.5 49.4c12.4 24.7 25.3 50.2 50.7 50.2S-18.9 84.7-6.5 60C5.7 35.7 18.4 10.6 43 10.6V9.2C17.6 9.2 4.8 34.7-7.7 59.4c-12.2 24.3-24.9 49.4-49.5 49.4s-37.2-25.1-49.5-49.4C-119.1 34.7-132 9.2-157.4 9.2s-38.3 25.5-50.7 50.2c-12.2 24.3-24.9 49.4-49.5 49.4"/></svg>
