<svg xmlns="http://www.w3.org/2000/svg" width="13" height="17" fill="none"><path fill="#fff" d="M9.036 7.45c0-.055.022-.107.063-.146a.22.22 0 0 1 .152-.06h2.796a.89.89 0 0 0 .472-.134.833.833 0 0 0 .318-.36.788.788 0 0 0-.159-.888L7.378.41a1.302 1.302 0 0 0-.423-.273A1.35 1.35 0 0 0 5.531.41l-5.3 5.452a.789.789 0 0 0-.159.888.833.833 0 0 0 .317.36.89.89 0 0 0 .472.134h2.797a.22.22 0 0 1 .152.06c.04.039.063.091.063.146v4.07c0 .218.09.427.252.58.161.155.38.242.608.242h3.442a.881.881 0 0 0 .609-.241.804.804 0 0 0 .252-.581V7.45ZM8.175 13.575H4.733c-.475 0-.86.368-.86.822v.822c0 .454.385.822.86.822h3.442c.476 0 .86-.368.86-.822v-.822c0-.454-.384-.822-.86-.822Z"/></svg>