<?xml version="1.0" standalone="no"?><!-- Generator: Gravit.io --><svg xmlns="http://www.w3.org/2000/svg" xmlns:xlink="http://www.w3.org/1999/xlink" style="isolation:isolate" viewBox="0 0 16 16" width="16" height="16"><defs><clipPath id="_clipPath_GuufTf09iymWMyKoAFhPZunNwUS0pWMQ"><rect width="16" height="16"/></clipPath></defs><g clip-path="url(#_clipPath_GuufTf09iymWMyKoAFhPZunNwUS0pWMQ)"><path d=" M 1 1 L 15 1 L 15 14 L 1 14 L 1 1 Z " fill="rgb(255,255,255)"/><path d=" M 14 1.929 L 14 13.071 L 2 13.071 L 2 1.929 L 14 1.929 Z  M 15 1 L 1 1 L 1 14 L 15 14 L 15 1 Z " fill="rgb(153,153,153)"/><path d=" M 3 3 L 8 3 L 8 12 L 3 12 L 3 3 Z " fill="rgb(85,153,255)"/><path d=" M 8 3 L 13 3 L 13 12 L 8 12 L 8 3 Z " fill="rgb(230,230,230)"/><path d=" M 6.5 10 L 3.5 10 L 4.25 9 L 5 8 L 5.75 9 L 6.5 10 Z " fill="rgb(255,255,255)"/><path d=" M 7.5 10 L 4.833 10 L 5.5 9.333 L 6.167 8.667 L 6.833 9.333 L 7.5 10 Z " fill="rgb(255,255,255)"/><circle vector-effect="non-scaling-stroke" cx="7" cy="7.5" r="0.5" fill="rgb(255,255,255)"/><g><path d=" M 9 6 L 13 6 L 13 7 L 9 7 L 9 6 Z " fill="rgb(185,185,185)"/><path d=" M 9 8 L 13 8 L 13 9 L 9 9 L 9 8 Z " fill="rgb(185,185,185)"/><path d=" M 9 10 L 13 10 L 13 11 L 9 11 L 9 10 Z " fill="rgb(185,185,185)"/><path d=" M 9 4 L 13 4 L 13 5 L 9 5 L 9 4 Z " fill="rgb(102,102,102)"/><path d=" M 5 4 L 8 4 L 8 5 L 5 5 L 5 4 Z " fill="rgb(230,230,230)"/></g></g></svg>