<?xml version="1.0" standalone="no"?><!-- Generator: Gravit.io --><svg xmlns="http://www.w3.org/2000/svg" xmlns:xlink="http://www.w3.org/1999/xlink" style="isolation:isolate" viewBox="0 0 16 16" width="16" height="16"><defs><clipPath id="_clipPath_Kn48BdSAzQ52fyVC6f4GYoT33MtEJDTD"><rect width="16" height="16"/></clipPath></defs><g clip-path="url(#_clipPath_Kn48BdSAzQ52fyVC6f4GYoT33MtEJDTD)"><path d=" M 1 3 L 15 3 L 15 13 L 1 13 L 1 3 Z " fill="rgb(204,204,204)"/><path d=" M 14 4 L 14 12 L 2 12 L 2 4 L 14 4 Z  M 15 3 L 1 3 L 1 13 L 15 13 L 15 3 L 15 3 Z " fill="rgb(153,153,153)"/><path d=" M 3 2 L 13 2 L 13 14 L 3 14 L 3 2 Z " fill="rgb(255,255,255)"/><path d=" M 12 3 L 12 13 L 4 13 L 4 3 L 12 3 Z  M 13 2 L 3 2 L 3 14 L 13 14 L 13 2 L 13 2 Z " fill="rgb(102,102,102)"/><path d=" M 5 4 L 11 4 L 11 12 L 5 12 L 5 4 L 5 4 Z " fill="rgb(85,153,255)"/><path d=" M 9 11 L 6 11 L 6.8 10 L 7.6 9 L 8.4 10 L 9 11 L 9 11 Z " fill="rgb(255,255,255)"/><path d=" M 10 11 L 7.3 11 L 8 10.3 L 8.7 9.6 L 9.4 10.3 L 10 11 L 10 11 Z " fill="rgb(255,255,255)"/><circle vector-effect="non-scaling-stroke" cx="9.5" cy="8.5" r="0.5" fill="rgb(255,255,255)"/><path d=" M 9.584 4 L 11 4 L 11 12 L 6.584 12 L 9.584 4 Z " fill="rgb(213,213,213)"/></g></svg>