<svg xmlns="http://www.w3.org/2000/svg" xml:space="preserve" style="fill-rule:evenodd;clip-rule:evenodd;stroke-linejoin:round;stroke-miterlimit:2" viewBox="0 0 16 16"><path d="M1 1h14v14H1z" style="fill:#fff;fill-rule:nonzero"/><path d="M14 2v12H2V2h12m1-1H1v14h14V1Z" style="fill:#999;fill-rule:nonzero"/><g transform="translate(4 4)"><path d="M3 3h6v6H3z" style="fill:#59f;fill-rule:nonzero"/><path d="M7 8H4l1.5-2L7 8Z" style="fill:#fff;fill-rule:nonzero"/><path d="M8 8H5.333L6 7.333l.667-.666L8 8Z" style="fill:#fff;fill-rule:nonzero"/><circle cx="7.5" cy="5.5" r=".5" style="fill:#fff"/></g><path d="M6 11H5V5h6v1H6v5Z" style="fill:#59f;fill-rule:nonzero"/><path d="M6 11H5V5h6v1H6v5Z" style="fill:#59f;fill-rule:nonzero" transform="translate(-2 -2)"/></svg>
