<?xml version="1.0" standalone="no"?><!-- Generator: Gravit.io --><svg xmlns="http://www.w3.org/2000/svg" xmlns:xlink="http://www.w3.org/1999/xlink" style="isolation:isolate" viewBox="0 0 16 16" width="16" height="16"><defs><clipPath id="_clipPath_03jJZSysh5yGGh0pTKChejMSuPdTXMt7"><rect width="16" height="16"/></clipPath></defs><g clip-path="url(#_clipPath_03jJZSysh5yGGh0pTKChejMSuPdTXMt7)"><clipPath id="_clipPath_o9kf0CdPUshLrZP7VpJJRgTvmHSWndT8"><rect x="0" y="0" width="16" height="16" transform="matrix(1,0,0,1,0,0)" fill="rgb(255,255,255)"/></clipPath><g clip-path="url(#_clipPath_o9kf0CdPUshLrZP7VpJJRgTvmHSWndT8)"><g><g><rect x="-1" y="-1" width="18" height="18" transform="matrix(1,0,0,1,0,0)" fill="none"/></g><g><path d=" M 1 1 L 15 1 L 15 15 L 1 15 L 1 1 Z " fill="rgb(255,255,255)"/><path d=" M 1 1 L 1 15 L 15 15 L 15 1 L 1 1 Z  M 2 2 L 14 2 L 14 14 L 2 14 L 2 2 Z " fill="rgb(153,153,153)"/><path d=" M 8.174 11 L 4.584 11 L 4.584 4 L 11.416 4 L 11.416 11 L 8.174 11 Z " fill="rgb(153,153,153)" vector-effect="non-scaling-stroke" stroke-width="1" stroke="rgb(153,153,153)" stroke-opacity="100" stroke-linejoin="miter" stroke-linecap="butt" stroke-miterlimit="4"/><path d=" M 10 4 L 11.416 4 L 11.416 11 L 7 11 L 10 4 Z " fill="rgb(213,213,213)" vector-effect="non-scaling-stroke" stroke-width="1" stroke="rgb(213,213,213)" stroke-linejoin="miter" stroke-linecap="butt" stroke-miterlimit="4"/><path d=" M 13.336 11 L 13.336 4 L 14 4 L 14 11 L 13.336 11 Z " fill="rgb(153,153,153)" vector-effect="non-scaling-stroke" stroke-width="1" stroke="rgb(153,153,153)" stroke-opacity="100" stroke-linejoin="miter" stroke-linecap="butt" stroke-miterlimit="4"/><path d=" M 2 11 L 2 4 L 2.664 4 L 2.664 11 L 2 11 Z " fill="rgb(153,153,153)" vector-effect="non-scaling-stroke" stroke-width="1" stroke="rgb(153,153,153)" stroke-opacity="100" stroke-linejoin="miter" stroke-linecap="butt" stroke-miterlimit="4"/><line x1="-12.469" y1="4.427" x2="-12.344" y2="4.365"/></g></g></g></g></svg>