<?xml version="1.0" standalone="no"?><!-- Generator: Gravit.io --><svg xmlns="http://www.w3.org/2000/svg" xmlns:xlink="http://www.w3.org/1999/xlink" style="isolation:isolate" viewBox="0 0 16 16" width="16" height="16"><defs><clipPath id="_clipPath_wN0CfvVDuQ9nxkyVpVY8c2G9ViWVmBbe"><rect width="16" height="16"/></clipPath></defs><g clip-path="url(#_clipPath_wN0CfvVDuQ9nxkyVpVY8c2G9ViWVmBbe)"><clipPath id="_clipPath_wbzrhqreihFNHTVJSUjSjcNBENWaeRKl"><rect x="0" y="0" width="16" height="16" transform="matrix(1,0,0,1,0,0)" fill="rgb(255,255,255)"/></clipPath><g clip-path="url(#_clipPath_wbzrhqreihFNHTVJSUjSjcNBENWaeRKl)"><g><g><rect x="-1" y="-1" width="18" height="18" transform="matrix(1,0,0,1,0,0)" fill="none"/></g><g><path d=" M 1 1 L 15 1 L 15 15 L 1 15 L 1 1 L 1 1 L 1 1 Z " fill="rgb(255,255,255)"/><path d=" M 1 1 L 1 15 L 15 15 L 15 1 L 1 1 L 1 1 L 1 1 Z  M 2 2 L 14 2 L 14 14 L 2 14 L 2 2 L 2 2 L 2 2 Z " fill="rgb(153,153,153)"/><path d=" M 13 3 L 13 6 L 3 6 L 3 3 L 13 3 Z " fill="rgb(153,153,153)"/><path d=" M 13 6 L 13 13 L 3 13 L 3 6 L 13 6 Z " fill="rgb(191,191,191)"/><line x1="-12.469" y1="4.427" x2="-12.344" y2="4.365"/></g></g></g></g></svg>