<svg xmlns="http://www.w3.org/2000/svg" width="1440" height="590" fill="none"><path fill="#CCC" d="m1521.68-74.146-.32-4.653-.32-5.134-5.14.32c-58.54 4.493-94.63 45.406-122.7 97.711-79.72 10.43-115.17 94.823-149.33 176.65-11.07 26.312-22.14 52.946-34.81 77.334-.48 0-.96.16-1.44.16-2.89.161-5.78.321-8.51.321-73.3 0-118.85-74.607-162.8-146.646l-.48-.802c-46.518-75.89-94.478-154.508-176.122-154.508-3.208 0-6.416.16-9.784.32-58.546 4.493-94.636 45.406-122.706 97.711-79.719 10.43-115.167 94.823-149.332 176.65-10.747 25.671-21.654 51.663-34.005 75.569-5.293-8.343-10.426-16.847-15.559-25.35l-.481-.803c-46.356-76.05-94.315-154.828-175.959-154.828-3.208 0-6.416.16-9.784.32-58.546 4.493-94.636 45.406-122.706 97.711-79.719 10.429-115.168 94.823-149.333 176.649-10.907 26.313-22.135 52.947-34.807 77.174h-.48l-1.444 1.765-2.406 3.049-.642.802-.32.962-.482 1.926-.962 3.69C2.53 546.292-30.672 581.269-82 585.12l.32 4.653c53.093-4.011 87.098-39.79 113.885-86.64l2.887-.161c87.578-6.578 124.631-94.983 160.4-180.5 12.19-29.2 24.541-58.722 38.977-84.875 77.153-.802 123.669 75.73 168.901 149.855 47.479 77.816 96.401 158.359 180.932 151.941 53.092-4.011 87.097-39.79 113.884-86.64.962 0 1.924 0 2.726-.16 87.579-6.578 124.631-94.983 160.4-180.5 11.068-26.634 22.296-53.428 35.128-77.816 4.972 7.862 9.784 15.884 14.596 23.746 47.479 77.816 96.404 158.359 180.934 151.941 53.09-4.011 87.09-39.79 113.88-86.64.96 0 1.93 0 2.73-.16 87.58-6.579 124.63-94.984 160.4-180.5 33.84-81.346 68.97-165.419 147.89-171.355l5.13-.321-.32-5.134ZM736.04 360.498c-11.068 26.313-22.135 52.946-34.807 77.334-.481 0-.962.16-1.443.16-2.888.161-5.775.321-8.502.321-59.348 0-100.57-48.935-137.462-106.053 79.879-12.836 115.167-97.39 149.492-179.217 12.191-29.201 24.542-58.723 38.978-84.875 63.839-.642 106.666 51.824 145.322 111.83-.642 1.283-1.283 2.406-1.925 3.69-80.039 10.429-115.327 94.983-149.653 176.81Zm146.606-171.676c-12.832 24.548-23.9 51.342-35.128 77.816-32.882 78.938-66.887 160.444-141.152 170.552 12.19-23.746 23.098-49.577 33.684-75.088 33.363-79.42 67.689-161.246 142.596-173.28ZM744.702 63.676c25.343-44.444 57.423-78.137 106.345-81.827 2.887-.16 5.774-.321 8.501-.321 59.348 0 100.571 48.936 137.463 106.054-49.243 8.022-81.644 43.159-107.147 88.244-38.336-59.846-81.323-111.509-145.162-112.15Zm503.338 128.997c33.04-79.26 67.53-161.247 142.43-173.28-12.83 24.548-23.9 51.342-35.13 77.816-32.88 78.938-66.88 160.444-141.15 170.552 12.35-23.746 23.1-49.577 33.85-75.088Zm-665.824 50.219c33.043-79.26 67.529-161.247 142.436-173.28-12.832 24.548-23.9 51.342-35.128 77.816l-2.406 5.936c-31.92 76.853-64.962 156.112-138.586 164.616 12.191-23.746 22.938-49.577 33.684-75.088ZM74.39 412.321c33.042-79.259 67.528-161.246 142.435-173.28-12.832 24.548-23.899 51.343-35.127 77.816l-2.406 5.936c-31.92 76.853-64.962 156.113-138.586 164.616 12.19-23.745 23.098-49.577 33.684-75.088Zm162.485-179.377c25.343-44.443 57.423-78.136 106.345-81.826 2.888-.161 5.775-.321 8.502-.321 73.302 0 118.856 74.607 162.806 146.646l.481.802c6.897 11.231 13.634 22.463 20.691 33.533-25.984 45.406-59.027 80.062-109.874 83.913-6.416-10.108-12.511-20.216-18.766-30.485-45.233-74.446-92.07-151.299-170.185-152.262ZM583.82 534.901c-69.292 5.295-114.525-50.861-155.106-114.878 50.686-4.974 83.728-39.149 109.874-84.073 39.779 62.252 84.37 116.964 152.54 116.964h1.604c-25.824 44.603-58.706 78.136-108.912 81.987Zm507.83-169.429c-81.81 6.257-129.927-73.003-176.604-149.535-5.293-8.664-10.586-17.488-16.04-26.152 25.504-46.85 57.424-83.271 106.984-88.565 5.62 8.824 11.07 17.969 16.52 26.954l.49.802c46.35 76.051 94.31 154.829 175.95 154.829h1.61c-25.99 44.283-58.87 77.816-108.91 81.667Z" opacity=".12"/></svg>