<svg id="Ebene_1" data-name="Ebene 1" xmlns="http://www.w3.org/2000/svg" viewBox="0 0 365.1 165.8" preserveAspectRatio="yes"><defs><style>.cls-1{fill:#fff;}</style></defs><title>musicon_logo_weiss</title><path class="cls-1" d="M74.9,100.5v-69a7.93,7.93,0,0,0-8.2-8.2,7.83,7.83,0,0,0-8,8.2v69H50.1v-69a7.93,7.93,0,0,0-8.2-8.2,7.83,7.83,0,0,0-8,8.2v69H25.3V30.8C25.7,22,32.9,15.4,42,15.4a17.12,17.12,0,0,1,12.4,5.1,16.79,16.79,0,0,1,12.4-5.1c9.3,0,16.5,6.7,16.7,15.4v69.8H74.9Z"/><path class="cls-1" d="M109.2,102.1c-9.1,0-16.3-6.7-16.5-15.4V16.9h8.6v69a8.1,8.1,0,1,0,16.2,0v-69h8.6V86.7C125.8,95.4,118.5,102.1,109.2,102.1Z"/><path class="cls-1" d="M166.1,31.4v1.3h-8.6v-.8a8.1,8.1,0,1,0-16.2,0v4.2c0,5.9,4.6,11,9.9,18.2C158,63.8,166,73.5,166,83v4c-.2,8.7-7.4,15.4-16.5,15.4-9.3,0-16.7-6.8-16.7-15.6V85.3h8.6v1a7.93,7.93,0,0,0,8.2,8.2,7.83,7.83,0,0,0,8-8.2V82.9c0-7.4-6.7-15.2-13.3-24.1-5.7-7.8-11.4-16-11.4-22.6V31.3c.2-8.7,7.4-15.4,16.7-15.4C158.7,15.8,166.1,22.6,166.1,31.4Z"/><path class="cls-1" d="M182.7,9.1h-8.6V0h8.6Zm-8.4,91.4V16.9h8.6v83.6Z"/><path class="cls-1" d="M225.9,31.4v8.7h-8.6V31.9a8.1,8.1,0,1,0-16.2,0V86.3a7.93,7.93,0,0,0,8.2,8.2,7.83,7.83,0,0,0,8-8.2V84h8.6v2.9c0,8.7-7.4,15.6-16.5,15.6-9.3,0-16.5-6.7-16.7-15.4V31.2c.2-8.7,7.4-15.4,16.7-15.4C218.5,15.8,225.9,22.6,225.9,31.4Z"/><path class="cls-1" d="M251.2,102.5c-9.3,0-16.5-6.7-16.7-15.4V31.2c.2-8.7,7.4-15.4,16.7-15.4,9.1,0,16.3,6.7,16.5,15.4V87.1C267.6,95.8,260.3,102.5,251.2,102.5Zm0-78.7A7.87,7.87,0,0,0,243,32V86.4a7.93,7.93,0,0,0,8.2,8.2,7.83,7.83,0,0,0,8-8.2V31.9A7.8,7.8,0,0,0,251.2,23.8Z"/><path class="cls-1" d="M301.3,100.5v-69a7.93,7.93,0,0,0-8.2-8.2,7.83,7.83,0,0,0-8,8.2v69h-8.6V30.8c.2-8.7,7.4-15.4,16.5-15.4,9.3,0,16.5,6.7,16.7,15.4v69.8h-8.4Z"/><path class="cls-1" d="M343.4,100.5v-69a7.93,7.93,0,0,0-8.2-8.2,7.83,7.83,0,0,0-8,8.2v69h-8.6V30.8c.2-8.7,7.5-15.4,16.6-15.4,9.4,0,16.6,6.7,16.8,15.4v69.8h-8.6Z"/><path class="cls-1" d="M31,115.3v2.2H27.8v21.9H25.6V104.6H31v2.2H27.8v8.5Z"/><path class="cls-1" d="M38,139.8a4.09,4.09,0,0,1-4.3-4V117.6h2.2v18.1a2.1,2.1,0,0,0,4.2,0V117.6h2.2v18.2C42.4,138.1,40.5,139.8,38,139.8Zm-2.9-26.7h2.2v2.6H35.1Zm3.7,0H41v2.6H38.8Z"/><path class="cls-1" d="M54.1,121.3v4.9H51.9v-4.8a1.52,1.52,0,0,0-1.6-1.6H47.7v19.6H45.5V117.5h5A3.76,3.76,0,0,1,54.1,121.3Z"/><path class="cls-1" d="M67.7,139.7h0s-4.3-9.3-4.4-11.4V117.5h2.2v10.2c0,1.4,2.1,6.8,2.1,6.8s2.1-5.4,2.1-6.8V117.5H72v10.8C71.8,130.3,67.6,139.7,67.7,139.7Z"/><path class="cls-1" d="M77.2,128.4v7.3a2,2,0,0,0,2.1,2.1,2,2,0,0,0,2.1-2.1v-.6h2.2v.7a4.17,4.17,0,0,1-4.3,4.1,4.24,4.24,0,0,1-4.4-4V121.3a4.17,4.17,0,0,1,4.4-4,4.09,4.09,0,0,1,4.3,4v7.2H77.2Zm2.1-9.1a2,2,0,0,0-2.1,2.1v4.7h4.2v-4.7A2.05,2.05,0,0,0,79.3,119.3Z"/><path class="cls-1" d="M95.4,121.3v4.9H93.2v-4.8a1.52,1.52,0,0,0-1.6-1.6H89v19.6H86.8V117.5h5A3.76,3.76,0,0,1,95.4,121.3Z"/><path class="cls-1" d="M105.1,139.4V121.3a2,2,0,0,0-2.1-2.1,2,2,0,0,0-2.1,2.1v18.1H98.7V121.1a4.09,4.09,0,0,1,4.3-4,4.24,4.24,0,0,1,4.4,4v18.3Z"/><path class="cls-1" d="M112.5,128.4v7.3a2,2,0,0,0,2.1,2.1,2,2,0,0,0,2.1-2.1v-.6h2.2v.7a4.17,4.17,0,0,1-4.3,4.1,4.24,4.24,0,0,1-4.4-4V121.3a4.17,4.17,0,0,1,4.4-4,4.09,4.09,0,0,1,4.3,4v7.2h-6.4Zm2.2-9.1a2,2,0,0,0-2.1,2.1v4.7h4.2v-4.7A2.18,2.18,0,0,0,114.7,119.3Z"/><path class="cls-1" d="M127.6,137.4v2.2a4.47,4.47,0,0,1-4.7-4.5V119.7h-1.5v-2.2h1.5V103.6h2.2v13.9h2v2.2h-2v15.4A2.26,2.26,0,0,0,127.6,137.4Z"/><path class="cls-1" d="M132.5,137.2h6.3v2.2h-8.7v-2.2c0-2.9,6.3-15.3,6.3-17.4h-6.3v-2.2h8.7v2.2C138.8,122,132.5,134.9,132.5,137.2Z"/><path class="cls-1" d="M147.5,137.4v2.2a4.47,4.47,0,0,1-4.7-4.5V119.7h-1.5v-2.2h1.5V103.6H145v13.9h2v2.2h-2v15.4C145,136.5,145.8,137.4,147.5,137.4Z"/><path class="cls-1" d="M152.2,128.4v7.3a2,2,0,0,0,2.1,2.1,2,2,0,0,0,2.1-2.1v-.6h2.2v.7a4.17,4.17,0,0,1-4.3,4.1,4.24,4.24,0,0,1-4.4-4V121.3a4.37,4.37,0,0,1,8.7,0v7.2h-6.4Zm2.1-9.1a2,2,0,0,0-2.1,2.1v4.7h4.2v-4.7A2.05,2.05,0,0,0,154.3,119.3Z"/><path class="cls-1" d="M175.5,139.4V117.8a.1.1,0,0,0-.1-.1v.9l-1.6,12.5h-2.2L170,118.6v-.9a.1.1,0,0,0-.1.1v21.6h-2.2V104.6h2.7l2.4,19.2-.1-.4v.7a.1.1,0,0,0,.1.1v-.8l2.4-18.8h2.6v34.8Z"/><path class="cls-1" d="M185,139.8a4.09,4.09,0,0,1-4.3-4V117.6h2.2v18.1a2.1,2.1,0,0,0,4.2,0V117.6h2.2v18.2A4,4,0,0,1,185,139.8Z"/><path class="cls-1" d="M201.1,121.3v.3h-2.2v-.2a2.1,2.1,0,1,0-4.2,0v1.1c0,1.5,1.2,2.9,2.6,4.8,1.8,2.5,3.9,5,3.9,7.5v1a4.15,4.15,0,0,1-4.3,4,4.25,4.25,0,0,1-4.4-4.1v-.4h2.2v.2a2,2,0,0,0,2.1,2.1,2,2,0,0,0,2.1-2.1v-.9c0-1.9-1.7-4-3.5-6.3-1.5-2-3-4.2-3-5.9v-1.3a4.17,4.17,0,0,1,4.4-4A4.38,4.38,0,0,1,201.1,121.3Z"/><path class="cls-1" d="M206.2,115.5H204v-2.4h2.2Zm-2.1,23.9V117.5h2.2v21.9Z"/><path class="cls-1" d="M218,125.8v13.6h-2.2V125.9a1.52,1.52,0,0,0-1.6-1.6h-2.6v15.2h-2.2V103.7h2.2V122l3.8-9.3h2.3l-3.9,9.4h.5A3.52,3.52,0,0,1,218,125.8Z"/><path class="cls-1" d="M231.8,139.8a4.45,4.45,0,0,1-3.2-1.3,4.45,4.45,0,0,1-3.2,1.3,4.09,4.09,0,0,1-4.3-4V117.6h2.2v18.1a2.1,2.1,0,0,0,4.2,0V117.6h2.2v18.1a2.1,2.1,0,0,0,4.2,0V117.6h2.2v18.2A4.09,4.09,0,0,1,231.8,139.8Z"/><path class="cls-1" d="M241.3,115.5h-2.2v-2.4h2.2Zm-2.2,23.9V117.5h2.2v21.9Z"/><path class="cls-1" d="M253,121.3v.3h-2.2v-.2a2.1,2.1,0,0,0-4.2,0v1.1c0,1.5,1.2,2.9,2.6,4.8,1.8,2.5,3.9,5,3.9,7.5v1a4.09,4.09,0,0,1-4.3,4,4.25,4.25,0,0,1-4.4-4.1v-.4h2.2v.2a2,2,0,0,0,2.1,2.1,2,2,0,0,0,2.1-2.1v-.9c0-1.9-1.7-4-3.5-6.3-1.5-2-3-4.2-3-5.9v-1.3a4.11,4.11,0,0,1,4.4-4A4.31,4.31,0,0,1,253,121.3Z"/><path class="cls-1" d="M264.7,121.3v.3h-2.2v-.2a2.1,2.1,0,1,0-4.2,0v1.1c0,1.5,1.2,2.9,2.6,4.8,1.8,2.5,3.9,5,3.9,7.5v1a4.09,4.09,0,0,1-4.3,4,4.25,4.25,0,0,1-4.4-4.1v-.4h2.2v.2a2,2,0,0,0,2.1,2.1,2,2,0,0,0,2.1-2.1v-.9c0-1.9-1.7-4-3.5-6.3-1.5-2-3-4.2-3-5.9v-1.3a4.11,4.11,0,0,1,4.4-4A4.31,4.31,0,0,1,264.7,121.3Z"/><path class="cls-1" d="M269.9,128.4v7.3a2,2,0,0,0,2.1,2.1,2,2,0,0,0,2.1-2.1v-.6h2.2v.7a4.17,4.17,0,0,1-4.3,4.1,4.24,4.24,0,0,1-4.4-4V121.3a4.17,4.17,0,0,1,4.4-4,4.09,4.09,0,0,1,4.3,4v7.2h-6.4Zm2.2-9.1a2,2,0,0,0-2.1,2.1v4.7h4.2v-4.7A2.11,2.11,0,0,0,272.1,119.3Z"/><path class="cls-1" d="M285.9,139.4V121.3a2,2,0,0,0-2.1-2.1,2,2,0,0,0-2.1,2.1v18.1h-2.2V121.1a4.15,4.15,0,0,1,4.3-4,4.24,4.24,0,0,1,4.4,4v18.3Z"/><path class="cls-1" d="M299.8,121.3v.3h-2.2v-.2a2.1,2.1,0,0,0-4.2,0v1.1c0,1.5,1.2,2.9,2.6,4.8,1.8,2.5,3.9,5,3.9,7.5v1a4.15,4.15,0,0,1-4.3,4,4.25,4.25,0,0,1-4.4-4.1v-.4h2.2v.2a2,2,0,0,0,2.1,2.1,2,2,0,0,0,2.1-2.1v-.9c0-1.9-1.7-4-3.5-6.3-1.5-2-3-4.2-3-5.9v-1.3a4.17,4.17,0,0,1,4.4-4A4.38,4.38,0,0,1,299.8,121.3Z"/><path class="cls-1" d="M311.5,121.3v2.3h-2.2v-2.1a2.1,2.1,0,0,0-4.2,0v14.2a2,2,0,0,0,2.1,2.1,2,2,0,0,0,2.1-2.1v-.6h2.2v.7a4.17,4.17,0,0,1-4.3,4.1,4.24,4.24,0,0,1-4.4-4V121.3a4.17,4.17,0,0,1,4.4-4A4.08,4.08,0,0,1,311.5,121.3Z"/><path class="cls-1" d="M323.2,121.3v18.1H321v-18a1.52,1.52,0,0,0-1.6-1.6h-2.6v19.6h-2.2V103.6h2.2v13.9h2.8A3.76,3.76,0,0,1,323.2,121.3Z"/><path class="cls-1" d="M334.8,121.2v18.2h-5a3.69,3.69,0,0,1-3.7-3.7v-5.5a3.63,3.63,0,0,1,3.7-3.7h2.8v-5.1a2,2,0,0,0-2.1-2.1,2,2,0,0,0-2.1,2.1v.1h-2.2v-.2a4.31,4.31,0,0,1,8.6-.1Zm-6.4,9.1v5.2a1.52,1.52,0,0,0,1.6,1.6h2.6v-8.5H330A1.66,1.66,0,0,0,328.4,130.3Z"/><path class="cls-1" d="M341.1,108.1v9.4H343v2.2h-1.9v19.6h-2.2V119.7h-1.5v-2.2h1.5v-9.4a4.41,4.41,0,0,1,4.7-4.5v2.2C341.9,105.9,341.1,106.8,341.1,108.1Z"/><path class="cls-1" d="M351.7,137.4v2.2a4.47,4.47,0,0,1-4.7-4.5V119.7h-1.5v-2.2H347V103.6h2.2v13.9h2v2.2h-2v15.4A2.26,2.26,0,0,0,351.7,137.4Z"/><path class="cls-1" d="M365.1,165.8c-30.9,0-46.5-31-61.6-61-14.8-29.5-30.2-60-60.1-60s-45.2,30.5-60.1,60c-15.1,30-30.7,61-61.6,61s-46.5-31-61.6-61C45.3,75.3,29.9,44.8,0,44.8V43.1c30.9,0,46.5,31,61.6,61,14.8,29.5,30.2,60,60.1,60s45.2-30.5,60.1-60c15.1-30,30.7-61,61.6-61s46.5,31,61.6,61c14.8,29.5,30.2,60,60.1,60Z"/><path class="cls-1" d="M25.5,50.6v4.2a65.16,65.16,0,0,1,8.6,8.1V58.3A61.67,61.67,0,0,0,25.5,50.6Z"/><path class="cls-1" d="M58.8,98.4c-2.8-5.5-5.6-10.9-8.6-16.1v3.5c2.7,4.8,5.2,9.8,7.7,14.8h.8V98.4Z"/><path class="cls-1" d="M192.7,83.2v3.5a140.79,140.79,0,0,1,8.6-14.2v-3A122.77,122.77,0,0,0,192.7,83.2Z"/><path class="cls-1" d="M243,42.1a40.47,40.47,0,0,0-8.6.9v3.8a47.11,47.11,0,0,1,8.6-1Z"/><path class="cls-1" d="M259.2,46.1V48a43.3,43.3,0,0,1,8.6,4.9V50.8A47.88,47.88,0,0,0,259.2,46.1Z"/><path class="cls-1" d="M301.3,100.5h2.9c-.6-1.3-2.3-3.5-2.9-4.8Z"/><path class="cls-1" d="M276.6,57.4V62a105.92,105.92,0,0,1,8.6,10.9v-5A100.38,100.38,0,0,0,276.6,57.4Z"/><path class="cls-1" d="M69.8,118.9v5.6c.7,1.3,1.5,2.3,2.2,3.6V123C71.2,121.6,70.5,120.3,69.8,118.9Z"/><path class="cls-1" d="M80.3,137.6a3,3,0,0,1-1,.2,2.66,2.66,0,0,1-1.2-.3c.5.8,1.1,1.6,1.6,2.4a4.8,4.8,0,0,0,1.7-.5A10.81,10.81,0,0,0,80.3,137.6Z"/><path class="cls-1" d="M77.2,135.7v-3.8c-.8-1.2-1.5-2.4-2.2-3.7v5.3c.7,1.2,1.6,2,2.3,3.2C77.3,136.5,77.2,135.8,77.2,135.7Z"/><path class="cls-1" d="M167.6,129.5v5.3c.8-1.2,1.5-2.4,2.2-3.7v-5.4C169.1,127,168.4,128.2,167.6,129.5Z"/><path class="cls-1" d="M173.1,120.3l-.4,3v.8c-.1,0-.1,0-.1-.1v-.7l-.4-2.9c-.6,1-1.1,1.8-1.7,2.8l.7,5c1.3-2.3,2.6-4.8,3.8-7.2l.3-2.4v-.9c.1,0,.1,0,.1.1v3c.8-1.4,1.5-2.6,2.2-4v-5.1C176.2,114.7,174.7,117.4,173.1,120.3Z"/><path class="cls-1" d="M323.2,136.8a39.56,39.56,0,0,1-2.2-3.4v3.1c.6,1,1.3,1.9,1.9,2.9h.3v-2.6Z"/><path class="cls-1" d="M314.4,121.4v5.5c.7,1.3,1.5,2.6,2.2,3.9v-5.4C315.9,124,315.2,122.7,314.4,121.4Z"/></svg>