<svg id="Ebene_1" data-name="Ebene 1" xmlns="http://www.w3.org/2000/svg" viewBox="0 0 234 234"><defs><style>.cls-1{fill:#ee7100;}.cls-2{fill:#fff;}</style></defs><title>musiconn-publish-button</title><circle class="cls-1" cx="117" cy="117" r="117"/><path class="cls-2" d="M56.8,92.7a6.87,6.87,0,0,1,.7,4.8L55,112.1l-3.5-.6L54,97.4c.5-2.6-.3-4.1-2.2-4.4a4.1,4.1,0,0,0-2.7.4,12.72,12.72,0,0,0-2.7,2.3l-2.5,14.4-3.5-.6,2.5-14.1c.5-2.6-.3-4.1-2.2-4.4a4.1,4.1,0,0,0-2.7.4,12.72,12.72,0,0,0-2.7,2.3l-2.5,14.4-3.5-.6,3.6-20.3,3,.5-.2,3a7,7,0,0,1,6.5-2.4,4.79,4.79,0,0,1,3,1.5,5.26,5.26,0,0,1,1.4,3,10.84,10.84,0,0,1,3.1-2.3,5.49,5.49,0,0,1,3.6-.3A6.89,6.89,0,0,1,56.8,92.7Z"/><path class="cls-2" d="M74.1,115.5l.3-3.2a8.07,8.07,0,0,1-3.1,2.3,6.87,6.87,0,0,1-3.8.2,5.54,5.54,0,0,1-3.9-2.3,6.87,6.87,0,0,1-.7-4.8L65.4,93l3.5.6-2.5,14.2a5,5,0,0,0,.2,3.1,2.89,2.89,0,0,0,2.2,1.3c2,.3,3.9-.5,5.7-2.6L77,95.1l3.5.6L77.2,116Z"/><path class="cls-2" d="M97.3,98.7a12.22,12.22,0,0,1,2.9,2.3l-2,2.1a13.3,13.3,0,0,0-2.4-1.9,10,10,0,0,0-2.6-.9,5.4,5.4,0,0,0-2.9.2,2.07,2.07,0,0,0-1.3,1.8,2.63,2.63,0,0,0,.6,2.1,9.41,9.41,0,0,0,3.2,1.9,12.81,12.81,0,0,1,4.7,3.2,5.3,5.3,0,0,1,1,4.3,5.49,5.49,0,0,1-3.1,4.2,9.87,9.87,0,0,1-6,.6,11.25,11.25,0,0,1-7.2-4l2.4-1.9a8.86,8.86,0,0,0,5.3,3,5.86,5.86,0,0,0,3.3-.3,2.56,2.56,0,0,0,1.6-1.9,3.53,3.53,0,0,0-.1-1.8,3.13,3.13,0,0,0-1.2-1.4,21.88,21.88,0,0,0-2.9-1.6,10.15,10.15,0,0,1-4.3-3.1,4.78,4.78,0,0,1-.8-3.9A5.41,5.41,0,0,1,86.9,99a7.08,7.08,0,0,1,3-1.5,10.13,10.13,0,0,1,3.9-.1A14.76,14.76,0,0,1,97.3,98.7Z"/><path class="cls-2" d="M102.5,120.4l3.6-20.3,3.5.6L106,121Zm8.7-28.7a2.49,2.49,0,0,1-2.5,3.9,2.7,2.7,0,0,1-1.7-1,2.23,2.23,0,0,1-.4-1.8,2.44,2.44,0,0,1,2.9-2A2,2,0,0,1,111.2,91.7Z"/><path class="cls-2" d="M127.6,103.9a8.72,8.72,0,0,1,2.6,2.2l-2.1,2a8.63,8.63,0,0,0-1.8-1.6,7.16,7.16,0,0,0-2.2-.8,4.44,4.44,0,0,0-4.2,1.3,11.24,11.24,0,0,0-2.4,5.6,9.18,9.18,0,0,0,.4,5.9,4.61,4.61,0,0,0,3.5,2.5,8.84,8.84,0,0,0,2.3,0,7.19,7.19,0,0,0,2.4-.9l1.3,2.7a9.56,9.56,0,0,1-6.6,1.1,8.3,8.3,0,0,1-6-3.9c-1.3-2.1-1.6-4.8-1-8.1a14.37,14.37,0,0,1,2.1-5.5,8.1,8.1,0,0,1,3.7-3.2,8.31,8.31,0,0,1,5-.5C125.6,103.1,126.6,103.4,127.6,103.9Z"/><path class="cls-2" d="M148.8,110.1a12.14,12.14,0,0,1,1,8.2,14.53,14.53,0,0,1-2.1,5.4,9,9,0,0,1-3.8,3.2,9.52,9.52,0,0,1-5.1.5,8.51,8.51,0,0,1-6.2-4c-1.3-2.2-1.6-4.9-1-8.2a14.53,14.53,0,0,1,2.1-5.4,9,9,0,0,1,3.8-3.2,9.52,9.52,0,0,1,5.1-.5A8.06,8.06,0,0,1,148.8,110.1Zm-13.3,5.6c-.9,5.2.4,8,3.9,8.7s5.7-1.7,6.6-6.9-.4-8-3.8-8.7C138.6,108.3,136.4,110.6,135.5,115.7Z"/><path class="cls-2" d="M171.1,112.7a6.87,6.87,0,0,1,.8,4.8l-2.5,14.6-3.5-.6,2.5-14.1a4.08,4.08,0,0,0-.3-3.2,3.08,3.08,0,0,0-2.2-1.3,5,5,0,0,0-3,.4,9.47,9.47,0,0,0-2.8,2.3L157.6,130l-3.5-.6,3.6-20.3,3,.5-.2,3.1a8.14,8.14,0,0,1,3.1-2.1,7.69,7.69,0,0,1,3.7-.3A5.75,5.75,0,0,1,171.1,112.7Z"/><path class="cls-2" d="M193.7,116.7a6.87,6.87,0,0,1,.8,4.8L192,136.1l-3.5-.6,2.5-14.1a4.08,4.08,0,0,0-.3-3.2,3.08,3.08,0,0,0-2.2-1.3,5,5,0,0,0-3,.4,9.47,9.47,0,0,0-2.8,2.3L180,134l-3.5-.6,3.6-20.3,3,.5-.2,3.1a8.14,8.14,0,0,1,3.1-2.1,7.69,7.69,0,0,1,3.7-.3A5.73,5.73,0,0,1,193.7,116.7Z"/><path class="cls-2" d="M202.6,133.7a2.39,2.39,0,0,1,.4,2,2.89,2.89,0,0,1-1.1,1.8,3,3,0,0,1-2.1.5,2.45,2.45,0,0,1-1.7-1.1,2.39,2.39,0,0,1-.4-2,2.89,2.89,0,0,1,1.1-1.8,3,3,0,0,1,3.8.6Z"/><path class="cls-2" d="M43.1,127.8a9,9,0,0,1,2,8.1c-.6,3.6-2.2,6-4.8,7.3a15,15,0,0,1-9.6,1l-4.1-.7-2.1,12-4.5-.8,5.7-32.6,8.6,1.5C38.3,124.3,41.2,125.7,43.1,127.8Zm-5.8,12.4c1.5-.8,2.6-2.5,3-5.1q.6-3.45-1.2-5.4c-1.2-1.3-3.1-2.1-5.6-2.6l-4-.7L27.2,140l3.9.7C33.7,141.1,35.8,141,37.3,140.2Z"/><path class="cls-2" d="M69.2,158.5a9.41,9.41,0,0,1-4.6,3.2,13.54,13.54,0,0,1-6.4.3c-3.6-.6-6.2-2.1-7.9-4.5a11.48,11.48,0,0,1-1.6-8.5l3.9-22.1,4.5.8-3.8,21.8c-.4,2.5-.2,4.5.7,6s2.5,2.4,4.8,2.8,4.2.1,5.5-1,2.3-2.8,2.7-5.4l3.8-21.8,4.5.8L71.6,153A12.51,12.51,0,0,1,69.2,158.5Z"/><path class="cls-2" d="M101.1,153.6c1.2,1.4,1.5,3.4,1.1,5.9-1.1,6.2-5.9,8.5-14.5,7l-9-1.6,5.7-32.6,7.7,1.3c4.1.7,7.2,2,9.1,3.7a6.77,6.77,0,0,1,2.2,6.8,6.46,6.46,0,0,1-2.6,4.4,9,9,0,0,1-4.7,1.7A11.93,11.93,0,0,1,101.1,153.6Zm-6.5,9.2c1.5-.5,2.5-1.9,2.9-4.1a5.3,5.3,0,0,0-1.2-5,8.65,8.65,0,0,0-5-2.3l-5.3-.9-2.1,11.7,4.5.8C91,163.4,93.1,163.4,94.6,162.8ZM86.5,147l4.9.9a7.89,7.89,0,0,0,4.9-.6,4.62,4.62,0,0,0,2.5-3.6,4.45,4.45,0,0,0-1.2-4.3,13.64,13.64,0,0,0-5.6-2.1l-3.7-.6Z"/><path class="cls-2" d="M126,169.2l-1.2,3.8-17.4-3,5.7-32.6,4.5.8-5,28.7Z"/><path class="cls-2" d="M131,174.1l5.7-32.6,4.5.8-5.7,32.6Z"/><path class="cls-2" d="M164.3,146.7a16.74,16.74,0,0,1,4,3.6l-3.1,2.4a13.91,13.91,0,0,0-3.1-2.9,10.94,10.94,0,0,0-3.7-1.4,7.85,7.85,0,0,0-4.4.4,4.17,4.17,0,0,0-2.3,3.2,5.18,5.18,0,0,0,.1,2.5,5.62,5.62,0,0,0,1.8,2.1,30.68,30.68,0,0,0,4.2,2.5,46.44,46.44,0,0,1,4.8,2.9,11,11,0,0,1,2.8,3.6,9.36,9.36,0,0,1,.4,5.1,9,9,0,0,1-2.3,4.8,9.27,9.27,0,0,1-4.6,2.7,13.7,13.7,0,0,1-6.4.1c-4.5-.8-8-2.8-10.3-6.1l3.1-2.4a12.16,12.16,0,0,0,7.8,4.9,8.45,8.45,0,0,0,5.3-.6,5.12,5.12,0,0,0,2.7-4,6.42,6.42,0,0,0-.1-2.8,6.05,6.05,0,0,0-1.8-2.3,23.73,23.73,0,0,0-4-2.5c-3.2-1.6-5.4-3.2-6.7-4.9a7.64,7.64,0,0,1-1.3-6.2,8.39,8.39,0,0,1,2.1-4.2,9.67,9.67,0,0,1,4.2-2.4,12.59,12.59,0,0,1,5.5-.2A29.26,29.26,0,0,1,164.3,146.7Z"/><path class="cls-2" d="M178,166.6l-2.7,15.3-4.5-.8,5.7-32.6,4.5.8-2.4,13.6,13.7,2.4,2.4-13.6,4.5.8-5.7,32.6-4.5-.8,2.7-15.3Z"/><path class="cls-2" d="M209.9,80C205,62.5,200,44.4,183.4,41.1S155.2,52.6,144.1,67c-9.1,11.7-18.4,23.7-30.4,25.3,0,.2.1.5.1.8a4,4,0,0,1-.3,1.5c13-1.4,22.8-14,32.3-26.2,9.8-12.5,19.8-25.5,33.1-25.5a19.63,19.63,0,0,1,4.1.4c15.3,3,20.2,20.5,24.9,37.4,4.8,17.4,9.8,35.3,26.2,38.8v-2.2C219.2,113.7,214.5,96.6,209.9,80Z"/><path class="cls-2" d="M55,17.9c15.3,3,20.2,20.5,24.9,37.3s9.5,34.2,24.6,38.4c0-.2-.1-.4-.1-.7a4,4,0,0,1,.3-1.5C91,87.3,86.4,70.7,81.9,54.7c-4.7-16.8-9.5-34.1-24.5-38.4-.9.5-1.7,1-2.6,1.6Z"/></svg>