<svg xmlns="http://www.w3.org/2000/svg" xml:space="preserve" style="fill-rule:evenodd;clip-rule:evenodd;stroke-linejoin:round;stroke-miterlimit:2" viewBox="0 0 90 46"><path d="M0 0h89.934v45.143H0z" style="fill:none"/><clipPath id="a"><path d="M0 0h89.934v45.143H0z"/></clipPath><g clip-path="url(#a)"><path d="M89.934 0C78.525 0 72.753 11.407 67.183 22.451 61.708 33.293 56.03 44.525 44.985 44.525S28.289 33.293 22.787 22.437C17.204 11.407 11.445 0 .022 0-11.4 0-17.145 11.407-22.729 22.437c-5.462 10.856-11.153 22.088-22.198 22.088v.618c11.409 0 17.182-11.407 22.751-22.437C-16.714 11.85-11.023.631.022.631c11.046 0 16.696 11.219 22.199 22.075 5.583 11.03 11.341 22.437 22.764 22.437s17.168-11.407 22.751-22.437C73.198 11.85 78.889.631 89.934.631V0Z" style="fill:#f60;fill-rule:nonzero"/></g></svg>