<svg id="Ebene_1" data-name="Ebene 1" xmlns="http://www.w3.org/2000/svg" viewBox="0 0 255.4 74.15"><defs><style>.cls-1{fill:#e01219;}.cls-2{fill:#413c32;}</style></defs><title>SLUB_Logo</title><path class="cls-1" d="M9.2.5V4.1L34.5,7.7l4.3.6v33l4.6.7V5.4ZM33.8,49.3-.5,44.4V7.8l34.3,4.9Z"/><polygon class="cls-2" points="106.9 39.5 97.3 39.5 97.3 16.3 100.6 16.3 100.6 13 89.3 13 89.3 16.3 92.5 16.3 92.5 39.6 89.3 39.6 89.3 42.9 111.1 42.9 111.1 35.7 106.9 35.7 106.9 39.5"/><path class="cls-2" d="M133,16.3l3.3.1V33.1a5.82,5.82,0,0,1-1.8,4.7,7.06,7.06,0,0,1-4.9,1.6,6.71,6.71,0,0,1-4.7-1.6,5.91,5.91,0,0,1-1.7-4.7V16.4l3.3-.1V13H115.2v3.3l3.3.1V33.1a9.71,9.71,0,0,0,3.1,7.6,12.49,12.49,0,0,0,8.1,2.6,12.87,12.87,0,0,0,8.3-2.6c2.2-1.8,3.2-4.3,3.2-7.6V16.4l3.3-.1V13H133.2v3.3Z"/><path class="cls-2" d="M172,29.3a7,7,0,0,0-3.2-2.4,8.76,8.76,0,0,0,2.4-1.9,5.58,5.58,0,0,0,1.3-3.7c0-2.7-.9-4.9-2.7-6.2a11.83,11.83,0,0,0-7.4-2.1H149.2v3.3h3.3V39.6l-3.3.1V43h14.4a11.15,11.15,0,0,0,7.3-2.2,7.89,7.89,0,0,0,2.8-6.4A9.7,9.7,0,0,0,172,29.3Zm-4.6,8.5a5.69,5.69,0,0,1-3.9,1.2h-6.4V29.3h7a4.19,4.19,0,0,1,3.5,1.3,5.45,5.45,0,0,1,1.1,3.7A4,4,0,0,1,167.4,37.8ZM157.1,25.4V17h5.1a6.36,6.36,0,0,1,4,1.1,3.82,3.82,0,0,1,1.3,3.2,3.77,3.77,0,0,1-1.2,3,4.69,4.69,0,0,1-3.1,1.1Z"/><path class="cls-2" d="M74.9,16.1a11.84,11.84,0,0,1,2.6.2,7.51,7.51,0,0,1,2.4.9l.1,3.4h3.5v-7a17.65,17.65,0,0,0-3.6-1.1,12.88,12.88,0,0,0-5.3-.3,11.77,11.77,0,0,0-6.9,2.9,7.79,7.79,0,0,0-2.8,6,7.23,7.23,0,0,0,2.5,5.7,10.13,10.13,0,0,0,2,1.4h0a22,22,0,0,0,4.3,1.5,12,12,0,0,1,4.8,2.2,3.65,3.65,0,0,1,1.4,2.8,4.48,4.48,0,0,1-1.4,3.2,6.72,6.72,0,0,1-4.6,1.9,11.84,11.84,0,0,1-2.6-.2,7.51,7.51,0,0,1-2.4-.9l-.1-3.4H65.3v7a17.65,17.65,0,0,0,3.6,1.1,17.31,17.31,0,0,0,6.1.2,10,10,0,0,0,6.3-2.8,7.79,7.79,0,0,0,2.8-6,7.41,7.41,0,0,0-2.4-5.6h-.1a1.79,1.79,0,0,0-.7-.5,13.62,13.62,0,0,0-5-2.3c-2.2-.6-4.1-1.2-5-2a4.23,4.23,0,0,1-1.7-3,4,4,0,0,1,1.4-3.2A6.13,6.13,0,0,1,74.9,16.1Z"/><path class="cls-2" d="M83.7,58.6l-4,15.3H77.6L74.4,61.4,71,73.9H68.9L65.1,58.6h2l3,12.9,3.4-12.6h1.7l3.5,12.6,3-12.9Z"/><path class="cls-2" d="M88.8,60.8H87V58.6h1.8Zm0,13.1H87V63.2h1.8Z"/><path class="cls-2" d="M98.3,62.8,97.9,65h-.6a1.27,1.27,0,0,0-.6.1l-.6.3c-.2.1-.4.3-.6.4a1.76,1.76,0,0,0-.4.5v7.5H93.2V63.1h1.5l.2,1.8a6,6,0,0,1,1.6-1.6,3,3,0,0,1,1.6-.5Z"/><path class="cls-2" d="M113,64.7h-2.6v9.2h-1.8V64.7h-1.7l.2-1.5h1.4V60.5a3.28,3.28,0,0,1,.6-2.1,2,2,0,0,1,1.7-.8,5.62,5.62,0,0,1,2,.3l-.3,1.7a5,5,0,0,0-1.2-.2.75.75,0,0,0-.5.1c-.1,0-.2.2-.3.3a1.72,1.72,0,0,0-.1.8v2.7H113v1.4Z"/><path class="cls-2" d="M124.4,73.9h-1.6l-.2-1.2a3.07,3.07,0,0,1-2.7,1.4c-2.4,0-3.6-1.6-3.6-4.7V63.2h1.8v5.7c0,2.3.7,3.5,2.2,3.5a2.3,2.3,0,0,0,2.2-1.2V63.3h1.8V73.9Zm-4.7-13.1h-1.4V58.6h1.4Zm3.5,0h-1.4V58.6h1.4Z"/><path class="cls-2" d="M137.2,73.9h-1.8V68.2a5.57,5.57,0,0,0-.5-2.7,2,2,0,0,0-1.8-.8,2.63,2.63,0,0,0-2.5,1.4v7.8h-1.8V57.5h1.8v6.8a3.24,3.24,0,0,1,2.8-1.4c2.5,0,3.8,1.7,3.8,5.2Z"/><path class="cls-2" d="M146.6,62.8l-.4,2.2h-.6a1.27,1.27,0,0,0-.6.1l-.6.3c-.2.1-.4.3-.6.4a1.76,1.76,0,0,0-.4.5v7.5h-1.9V63.1H143l.2,1.8a6,6,0,0,1,1.6-1.6,3,3,0,0,1,1.6-.5Z"/><path class="cls-2" d="M157.7,68.5h-7c.2,2.5,1.4,3.8,3.6,3.8a6.71,6.71,0,0,0,2.8-.6l.2,1.6a6.59,6.59,0,0,1-3.2.8,5.38,5.38,0,0,1-2.2-.4,4.81,4.81,0,0,1-1.6-1.2,5.24,5.24,0,0,1-1-1.8,7.09,7.09,0,0,1-.1-4.4,4.61,4.61,0,0,1,.9-1.7,4.43,4.43,0,0,1,1.5-1.2,4.21,4.21,0,0,1,2-.4,4.67,4.67,0,0,1,1.7.3,3.81,3.81,0,0,1,1.3.9,3.92,3.92,0,0,1,.8,1.4,5.82,5.82,0,0,1,.3,1.9A1.7,1.7,0,0,1,157.7,68.5Zm-4.1-3.8c-1.4,0-2.3.8-2.7,2.5H156a2.44,2.44,0,0,0-.6-1.8A2.14,2.14,0,0,0,153.6,64.7Z"/><path class="cls-2" d="M170.3,73.9h-1.8V68a4,4,0,0,0-.6-2.5,2.27,2.27,0,0,0-1.9-.8,2.6,2.6,0,0,0-2.6,1.4v7.8h-1.8V63.2H163l.2,1.1a4.48,4.48,0,0,1,3.2-1.4c2.6,0,3.9,1.7,3.9,5v6Z"/><path class="cls-2" d="M198.7,58.6l-4,15.3h-2.1l-3.2-12.5L186,73.9h-2.1l-3.8-15.3h2l3,12.9,3.4-12.6h1.7l3.5,12.6,3-12.9Z"/><path class="cls-2" d="M203.8,60.8H202V58.6h1.8Zm0,13.1H202V63.2h1.8Z"/><path class="cls-2" d="M211,74.1a5.39,5.39,0,0,1-3.3-.9l.2-1.9a3.46,3.46,0,0,0,1.2.7,4.84,4.84,0,0,0,1.8.3c1.3,0,1.9-.4,1.9-1.3s-.6-1.4-1.9-1.8a3.58,3.58,0,0,1-1.1-.4,2.62,2.62,0,0,1-.9-.5,2.18,2.18,0,0,1-.7-.9,2.77,2.77,0,0,1-.3-1.3,3.17,3.17,0,0,1,.9-2.3,3.67,3.67,0,0,1,2.7-.9,5.09,5.09,0,0,1,2.6.7l-.2,1.8a3.69,3.69,0,0,0-2.4-1c-1.2,0-1.9.5-1.9,1.4a1.27,1.27,0,0,0,.1.6.78.78,0,0,0,.4.4,5.74,5.74,0,0,1,.7.4,7.6,7.6,0,0,1,1.1.4,3.55,3.55,0,0,1,.9.4l.9.6a3.11,3.11,0,0,1,.7.9,2.77,2.77,0,0,1,.3,1.3,5.16,5.16,0,0,1-.2,1.1,2.07,2.07,0,0,1-.6,1,3.13,3.13,0,0,1-1.1.8A3.42,3.42,0,0,1,211,74.1Z"/><path class="cls-2" d="M221.1,74.1a5.39,5.39,0,0,1-3.3-.9l.2-1.9a3.46,3.46,0,0,0,1.2.7,4.84,4.84,0,0,0,1.8.3c1.3,0,1.9-.4,1.9-1.3s-.6-1.4-1.9-1.8a3.58,3.58,0,0,1-1.1-.4,2.62,2.62,0,0,1-.9-.5,2.18,2.18,0,0,1-.7-.9,2.77,2.77,0,0,1-.3-1.3,3.17,3.17,0,0,1,.9-2.3,3.67,3.67,0,0,1,2.7-.9,5.09,5.09,0,0,1,2.6.7l-.2,1.8a3.69,3.69,0,0,0-2.4-1c-1.2,0-1.9.5-1.9,1.4a1.27,1.27,0,0,0,.1.6.78.78,0,0,0,.4.4,5.74,5.74,0,0,1,.7.4c.3.2.7.2,1.1.4a3.55,3.55,0,0,1,.9.4l.9.6a3.11,3.11,0,0,1,.7.9,2.77,2.77,0,0,1,.3,1.3,5.16,5.16,0,0,1-.2,1.1,2.07,2.07,0,0,1-.6,1,4.44,4.44,0,0,1-1.1.8A3,3,0,0,1,221.1,74.1Z"/><path class="cls-2" d="M236.7,68.5h-7c.2,2.5,1.4,3.8,3.6,3.8a6.71,6.71,0,0,0,2.8-.6l.2,1.6a6.59,6.59,0,0,1-3.2.8,5.38,5.38,0,0,1-2.2-.4,4.81,4.81,0,0,1-1.6-1.2,5.24,5.24,0,0,1-1-1.8,7.09,7.09,0,0,1-.1-4.4,4.61,4.61,0,0,1,.9-1.7,4.43,4.43,0,0,1,1.5-1.2,4.21,4.21,0,0,1,2-.4,4.67,4.67,0,0,1,1.7.3,3.81,3.81,0,0,1,1.3.9,3.92,3.92,0,0,1,.8,1.4,5.82,5.82,0,0,1,.3,1.9A1.7,1.7,0,0,1,236.7,68.5Zm-4.1-3.8c-1.4,0-2.3.8-2.7,2.5H235a2.44,2.44,0,0,0-.6-1.8A2.14,2.14,0,0,0,232.6,64.7Z"/><path class="cls-2" d="M249.3,73.9h-1.8V68a4,4,0,0,0-.6-2.5,2.27,2.27,0,0,0-1.9-.8,2.6,2.6,0,0,0-2.6,1.4v7.8h-1.8V63.2H242l.2,1.1a4.48,4.48,0,0,1,3.2-1.4c2.6,0,3.9,1.7,3.9,5v6Z"/><path class="cls-2" d="M255.3,73.9h-1.8V72h1.8Z"/></svg>