<?xml version="1.0" encoding="UTF-8" standalone="no"?><!DOCTYPE svg PUBLIC "-//W3C//DTD SVG 1.1//EN" "http://www.w3.org/Graphics/SVG/1.1/DTD/svg11.dtd"><svg width="100%" height="100%" viewBox="0 0 500 500" version="1.1" xmlns="http://www.w3.org/2000/svg" xmlns:xlink="http://www.w3.org/1999/xlink" xml:space="preserve" xmlns:serif="http://www.serif.com/" style="fill-rule:evenodd;clip-rule:evenodd;stroke-linejoin:round;stroke-miterlimit:2;"><rect id="musiconn-icon-book-color-120x120" x="0" y="0" width="500" height="500" style="fill:none;"/><g id="musiconn-icon-book-color-120x1201" serif:id="musiconn-icon-book-color-120x120"><g><path d="M105.593,127.61l0,-14.468c0,-32.867 26.643,-59.515 59.515,-59.515l270.829,0l-0,313.357l-30.187,-0l0,133.016l-255.522,0c-24.654,0 -44.636,-19.982 -44.636,-44.635l-0,-69.052l0,-98.451l162.234,-0c6.399,-0 11.594,-5.195 11.594,-11.594c0,-6.399 -5.195,-11.594 -11.594,-11.594l-162.234,-0l0.001,-45.344l104.959,0c6.398,0 11.594,-5.195 11.594,-11.594c-0,-6.399 -5.196,-11.594 -11.594,-11.594l-104.959,0l-0,-45.344l233.829,0c6.399,0 11.594,-5.195 11.594,-11.594c0,-6.399 -5.195,-11.594 -11.594,-11.594l-233.829,-0Z" style="fill:#f60;"/><path d="M52.899,413.333l0.002,-342.224c-0,-39.27 31.833,-71.109 71.109,-71.109l296.618,0c14.622,0 26.471,11.85 26.471,26.472l0,327.342c0,14.621 -11.85,26.476 -26.471,26.476l-3.286,0l0,66.085l18.165,0c6.399,0 11.594,5.195 11.594,11.594c-0,6.399 -5.195,11.594 -11.594,11.594l-326.378,0c-31.051,0 -56.23,-25.173 -56.23,-56.23Zm352.849,-56.232l14.88,0.001c1.814,0 3.283,-1.473 3.283,-3.288l0,-327.342c0,-1.814 -1.47,-3.284 -3.283,-3.284l-296.618,0c-26.468,0 -47.921,21.457 -47.921,47.921l0,296.72c9.276,-6.747 20.694,-10.727 33.043,-10.727l296.616,-0.001Zm-11.594,23.189l-285.022,0c-18.25,0 -33.045,14.793 -33.045,33.043c0,18.25 14.795,33.042 33.042,33.042l285.025,0l0,-66.085Z" style="fill:#005ade;"/></g></g></svg>