<?xml version="1.0" encoding="UTF-8" standalone="no"?><!DOCTYPE svg PUBLIC "-//W3C//DTD SVG 1.1//EN" "http://www.w3.org/Graphics/SVG/1.1/DTD/svg11.dtd"><svg width="100%" height="100%" viewBox="0 0 125 125" version="1.1" xmlns="http://www.w3.org/2000/svg" xmlns:xlink="http://www.w3.org/1999/xlink" xml:space="preserve" xmlns:serif="http://www.serif.com/" style="fill-rule:evenodd;clip-rule:evenodd;stroke-linejoin:round;stroke-miterlimit:2;"><rect id="musiconn-icon-book-invert-30x30" x="-0" y="0" width="125" height="125" style="fill:none;"/><g id="musiconn-icon-book-invert-30x301" serif:id="musiconn-icon-book-invert-30x30"><path d="M10.031,110.03l0.001,-91.101c0,-10.453 8.476,-18.929 18.929,-18.929l78.962,0c3.891,0 7.044,3.15 7.044,7.049l0,87.139c0,3.892 -3.152,7.044 -7.044,7.044l-0.876,0l0,17.596l4.836,0c1.704,0 3.086,1.383 3.086,3.086c0,1.703 -1.382,3.086 -3.086,3.086l-86.883,-0c-8.266,-0 -14.969,-6.699 -14.969,-14.97Zm6.171,0c0,4.861 3.94,8.798 8.798,8.798l75.876,0l-0,-17.596l-75.878,0c-4.858,0 -8.796,3.941 -8.796,8.798Zm16.524,-39.566l37.428,0c1.699,0 3.079,-1.38 3.079,-3.079c0,-1.7 -1.38,-3.079 -3.079,-3.079l-37.428,-0c-1.7,-0 -3.08,1.379 -3.08,3.079c0,1.699 1.38,3.079 3.08,3.079Zm-0,-36.487l53.578,0c1.7,0 3.08,-1.38 3.08,-3.079c-0,-1.7 -1.38,-3.08 -3.08,-3.08l-53.578,0c-1.7,0 -3.08,1.38 -3.08,3.08c0,1.699 1.38,3.079 3.08,3.079Zm-0,18.243l24.509,0c1.699,0 3.079,-1.379 3.079,-3.079c-0,-1.699 -1.38,-3.079 -3.079,-3.079l-24.509,-0c-1.7,-0 -3.08,1.38 -3.08,3.079c0,1.7 1.38,3.079 3.08,3.079Z" style="fill:#005ade;"/></g></svg>