<?xml version="1.0" encoding="UTF-8" standalone="no"?><!DOCTYPE svg PUBLIC "-//W3C//DTD SVG 1.1//EN" "http://www.w3.org/Graphics/SVG/1.1/DTD/svg11.dtd"><svg width="100%" height="100%" viewBox="0 0 209 209" version="1.1" xmlns="http://www.w3.org/2000/svg" xmlns:xlink="http://www.w3.org/1999/xlink" xml:space="preserve" xmlns:serif="http://www.serif.com/" style="fill-rule:evenodd;clip-rule:evenodd;stroke-linejoin:round;stroke-miterlimit:2;"><rect id="musiconn-icon-book-color-50x50" x="0" y="0" width="208.333" height="208.333" style="fill:none;"/><clipPath id="_clip1"><rect id="musiconn-icon-book-color-50x501" serif:id="musiconn-icon-book-color-50x50" x="0" y="0" width="208.333" height="208.333"/></clipPath><g clip-path="url(#_clip1)"><g><g><path d="M43.997,53.171l0,-6.029c0,-13.694 11.101,-24.797 24.798,-24.797l112.845,-0l0,130.565l-12.577,-0l-0,55.423l-106.468,0c-10.273,0 -18.598,-8.325 -18.598,-18.598l-0,-28.771l-0,-41.022l67.597,0c2.666,0 4.831,-2.164 4.831,-4.83c0,-2.667 -2.165,-4.831 -4.831,-4.831l-67.597,-0l-0,-18.893l43.733,-0c2.666,-0 4.831,-2.165 4.831,-4.831c-0,-2.667 -2.165,-4.831 -4.831,-4.831l-43.733,-0l0,-18.893l97.429,-0c2.666,-0 4.831,-2.165 4.831,-4.831c-0,-2.667 -2.165,-4.831 -4.831,-4.831l-97.429,-0Z" style="fill:#f60;"/><path d="M22.041,172.222l0.001,-142.593c0,-16.363 13.264,-29.629 29.629,-29.629l123.591,-0c6.092,-0 11.029,4.937 11.029,11.03l0,136.393c0,6.092 -4.937,11.031 -11.029,11.031l-1.369,0l-0,27.536l7.568,-0c2.666,-0 4.831,2.164 4.831,4.83c-0,2.667 -2.165,4.831 -4.831,4.831l-135.991,0c-12.938,0 -23.429,-10.489 -23.429,-23.429Zm147.021,-23.43l6.2,0.001c0.756,-0 1.368,-0.614 1.368,-1.37l-0,-136.393c-0,-0.756 -0.613,-1.368 -1.368,-1.368l-123.591,-0c-11.029,-0 -19.967,8.94 -19.967,19.967l-0,123.633c3.865,-2.811 8.622,-4.469 13.768,-4.469l123.59,-0.001Zm-4.831,9.662l-118.759,0c-7.604,0 -13.769,6.164 -13.769,13.768c0,7.604 6.165,13.768 13.767,13.768l118.761,-0l-0,-27.536Z" style="fill:#005ade;"/></g></g></g></svg>