<?xml version="1.0" encoding="UTF-8" standalone="no"?><!DOCTYPE svg PUBLIC "-//W3C//DTD SVG 1.1//EN" "http://www.w3.org/Graphics/SVG/1.1/DTD/svg11.dtd"><svg width="100%" height="100%" viewBox="0 0 500 500" version="1.1" xmlns="http://www.w3.org/2000/svg" xmlns:xlink="http://www.w3.org/1999/xlink" xml:space="preserve" xmlns:serif="http://www.serif.com/" style="fill-rule:evenodd;clip-rule:evenodd;stroke-linejoin:round;stroke-miterlimit:2;"><rect id="musiconn-icon-essay-color-120x120" x="0" y="0" width="500" height="500" style="fill:none;"/><clipPath id="_clip1"><rect id="musiconn-icon-essay-color-120x1201" serif:id="musiconn-icon-essay-color-120x120" x="0" y="0" width="500" height="500"/></clipPath><g clip-path="url(#_clip1)"><g><path d="M465.558,452.153c0,15.717 -12.744,28.461 -28.461,28.461l-341.525,-0c-15.717,-0 -28.462,-12.744 -28.462,-28.461l0,-369.987c0,-15.717 12.745,-28.461 28.462,-28.461l284.603,-0c7.428,0.004 14.557,2.914 19.868,8.103l56.923,54.679c5.492,5.357 8.592,12.708 8.592,20.381l0,315.285Zm-336.893,-87.966l209.136,0c6.253,0 11.33,-5.077 11.33,-11.33c-0,-6.253 -5.077,-11.33 -11.33,-11.33l-209.136,-0c-6.253,-0 -11.33,5.077 -11.33,11.33c-0,6.253 5.077,11.33 11.33,11.33Zm169.923,-156.853l39.212,0c6.253,0 11.33,-5.077 11.33,-11.33c-0,-6.253 -5.077,-11.33 -11.33,-11.33l-39.212,-0c-6.253,-0 -11.33,5.077 -11.33,11.33c0,6.253 5.077,11.33 11.33,11.33Zm-128.969,-78.425l0,81.907l-14.812,-0c-6.253,-0 -11.33,5.077 -11.33,11.33c0,6.253 5.077,11.33 11.33,11.33l52.286,0c6.254,0 11.33,-5.077 11.33,-11.33c0,-6.253 -5.076,-11.33 -11.33,-11.33l-14.814,-0l0,-81.907l29.624,-0l-0,14.811c-0,6.253 5.077,11.33 11.33,11.33c6.253,-0 11.33,-5.077 11.33,-11.33l-0,-26.141c-0,-6.258 -5.073,-11.33 -11.33,-11.33l-52.284,-0.001l-52.284,0.001c-6.257,-0 -11.33,5.072 -11.33,11.33l-0,26.141c-0,6.253 5.077,11.33 11.33,11.33c6.253,-0 11.33,-5.077 11.33,-11.33l0,-14.811l29.624,-0Zm-40.954,156.852l209.136,-0c6.253,-0 11.33,-5.077 11.33,-11.331c-0,-6.253 -5.077,-11.33 -11.33,-11.33l-209.136,0c-6.253,0 -11.33,5.077 -11.33,11.33c-0,6.254 5.077,11.331 11.33,11.331Zm169.923,-156.853l39.212,-0c6.253,-0 11.33,-5.077 11.33,-11.331c-0,-6.253 -5.077,-11.33 -11.33,-11.33l-39.212,0c-6.253,0 -11.33,5.077 -11.33,11.33c0,6.254 5.077,11.331 11.33,11.331Z" style="fill:#f60;fill-rule:nonzero;"/><path d="M434.514,409.778c-0,21.974 -17.818,39.791 -39.791,39.791l-341.526,0c-21.974,0 -39.791,-17.817 -39.791,-39.791l-0,-369.987c-0,-21.98 17.817,-39.791 39.791,-39.791l284.608,0c10.361,0.006 20.307,4.054 27.727,11.277l56.939,54.694l0.031,0.03c7.678,7.489 12.012,17.759 12.012,28.492l-0,315.285Zm-22.66,-0l-0,-315.285c-0,-4.612 -1.859,-9.025 -5.152,-12.248l-56.917,-54.674l-0.034,-0.033c-3.197,-3.123 -7.487,-4.875 -11.957,-4.878l-284.597,0c-9.46,0 -17.131,7.668 -17.131,17.131l-0,369.987c-0,9.46 7.671,17.131 17.131,17.131l341.526,0c9.46,0 17.131,-7.671 17.131,-17.131Zm52.08,-342.823c0,-6.254 5.077,-11.331 11.33,-11.331c6.253,0 11.33,5.077 11.33,11.331l0,348.876c0,46.489 -37.68,84.169 -84.169,84.169l-260.937,-0c-6.253,0 -11.33,-5.077 -11.33,-11.33c0,-6.253 5.077,-11.33 11.33,-11.33l260.937,-0c33.973,-0 61.509,-27.536 61.509,-61.509l0,-348.876Z" style="fill:#005ade;"/></g></g></svg>