<?xml version="1.0" encoding="UTF-8" standalone="no"?><!DOCTYPE svg PUBLIC "-//W3C//DTD SVG 1.1//EN" "http://www.w3.org/Graphics/SVG/1.1/DTD/svg11.dtd"><svg width="100%" height="100%" viewBox="0 0 125 125" version="1.1" xmlns="http://www.w3.org/2000/svg" xmlns:xlink="http://www.w3.org/1999/xlink" xml:space="preserve" xmlns:serif="http://www.serif.com/" style="fill-rule:evenodd;clip-rule:evenodd;stroke-linejoin:round;stroke-miterlimit:2;"><rect id="musiconn-icon-essay-light-30x30" x="-0" y="0" width="125" height="125" style="fill:none;"/><clipPath id="_clip1"><rect id="musiconn-icon-essay-light-30x301" serif:id="musiconn-icon-essay-light-30x30" x="-0" y="0" width="125" height="125"/></clipPath><g clip-path="url(#_clip1)"><path d="M108.667,102.35c0,5.565 -4.512,10.072 -10.071,10.072l-85.177,-0c-5.564,-0 -10.076,-4.507 -10.076,-10.072l0,-92.274c0,-5.564 4.512,-10.076 10.076,-10.076l70.986,0c2.626,0.006 5.147,1.035 7.008,2.851l14.203,13.644l0.007,0.007c1.947,1.896 3.044,4.502 3.044,7.214l0,78.634Zm-5.947,0l-0,-78.634c-0,-1.108 -0.448,-2.173 -1.243,-2.949l-14.193,-13.634l-0.008,-0.009c-0.771,-0.752 -1.804,-1.174 -2.881,-1.176l-70.976,-0c-2.279,-0 -4.128,1.848 -4.128,4.128l0,92.274c0,2.279 1.849,4.124 4.128,4.124l85.177,0c2.276,0 4.124,-1.845 4.124,-4.124Zm-30.921,-72.721c-1.641,-0 -2.974,-1.333 -2.974,-2.974c0,-1.642 1.333,-2.974 2.974,-2.974l9.778,-0c1.642,-0 2.974,1.332 2.974,2.974c0,1.641 -1.332,2.974 -2.974,2.974l-9.778,-0Zm-42.379,58.679c-1.642,0 -2.974,-1.332 -2.974,-2.974c-0,-1.641 1.332,-2.974 2.974,-2.974l52.158,0c1.642,0 2.974,1.333 2.974,2.974c0,1.642 -1.332,2.974 -2.974,2.974l-52.158,0Zm-0,-19.559c-1.642,-0 -2.974,-1.333 -2.974,-2.974c-0,-1.642 1.332,-2.974 2.974,-2.974l52.158,-0c1.642,-0 2.974,1.332 2.974,2.974c0,1.641 -1.332,2.974 -2.974,2.974l-52.158,-0Zm10.066,-39.119l-7.092,-0l-0,3.545c-0,1.641 -1.333,2.974 -2.974,2.974c-1.642,-0 -2.974,-1.333 -2.974,-2.974l-0,-6.519c-0,-1.643 1.331,-2.974 2.974,-2.974l13.04,-0l13.039,-0c1.642,-0 2.974,1.331 2.974,2.974l-0,6.519c-0,1.641 -1.333,2.974 -2.974,2.974c-1.641,-0 -2.974,-1.333 -2.974,-2.974l0,-3.545l-7.091,-0l-0,20.131l3.547,-0c1.642,-0 2.974,1.332 2.974,2.974c0,1.641 -1.332,2.974 -2.974,2.974l-13.041,-0c-1.642,-0 -2.974,-1.333 -2.974,-2.974c-0,-1.642 1.332,-2.974 2.974,-2.974l3.546,-0l-0,-20.131Zm32.313,19.559c-1.641,-0 -2.974,-1.333 -2.974,-2.974c0,-1.642 1.333,-2.974 2.974,-2.974l9.778,-0c1.642,-0 2.974,1.332 2.974,2.974c0,1.641 -1.332,2.974 -2.974,2.974l-9.778,-0Zm43.91,-32.34c-0,-1.642 1.332,-2.974 2.974,-2.974c1.641,-0 2.974,1.332 2.974,2.974l-0,87.012c-0,11.675 -9.464,21.139 -21.139,21.139l-65.081,0c-1.641,-0 -2.974,-1.333 -2.974,-2.974c0,-1.641 1.333,-2.974 2.974,-2.974l65.081,0c8.39,0 15.191,-6.801 15.191,-15.191l-0,-87.012Z" style="fill:#005ade;"/></g></svg>