<?xml version="1.0" encoding="UTF-8" standalone="no"?><!DOCTYPE svg PUBLIC "-//W3C//DTD SVG 1.1//EN" "http://www.w3.org/Graphics/SVG/1.1/DTD/svg11.dtd"><svg width="100%" height="100%" viewBox="0 0 209 209" version="1.1" xmlns="http://www.w3.org/2000/svg" xmlns:xlink="http://www.w3.org/1999/xlink" xml:space="preserve" xmlns:serif="http://www.serif.com/" style="fill-rule:evenodd;clip-rule:evenodd;stroke-linejoin:round;stroke-miterlimit:2;"><rect id="musiconn-icon-essay-color-50x50" x="0" y="0" width="208.333" height="208.333" style="fill:none;"/><clipPath id="_clip1"><rect id="musiconn-icon-essay-color-50x501" serif:id="musiconn-icon-essay-color-50x50" x="0" y="0" width="208.333" height="208.333"/></clipPath><g clip-path="url(#_clip1)"><g><path d="M193.983,188.397c-0,6.549 -5.31,11.859 -11.859,11.859l-142.302,-0c-6.549,-0 -11.859,-5.31 -11.859,-11.859l-0,-154.161c-0,-6.549 5.31,-11.859 11.859,-11.859l118.584,-0c3.095,0.002 6.065,1.214 8.279,3.376l23.717,22.783c2.289,2.232 3.581,5.295 3.581,8.492l-0,131.369Zm-140.373,-36.652l87.14,-0c2.606,-0 4.721,-2.116 4.721,-4.721c0,-2.606 -2.115,-4.721 -4.721,-4.721l-87.14,-0c-2.605,-0 -4.72,2.115 -4.72,4.721c-0,2.605 2.115,4.721 4.72,4.721Zm70.802,-65.356l16.338,0c2.605,0 4.721,-2.115 4.721,-4.721c-0,-2.605 -2.116,-4.721 -4.721,-4.721l-16.338,0c-2.606,0 -4.721,2.116 -4.721,4.721c-0,2.606 2.115,4.721 4.721,4.721Zm-53.737,-32.677l-0,34.128l-6.172,-0c-2.606,-0 -4.721,2.115 -4.721,4.721c0,2.605 2.115,4.721 4.721,4.721l21.786,-0c2.605,-0 4.721,-2.116 4.721,-4.721c-0,-2.606 -2.116,-4.721 -4.721,-4.721l-6.173,-0l0,-34.128l12.343,0l0,6.171c0,2.606 2.116,4.721 4.721,4.721c2.606,0 4.721,-2.115 4.721,-4.721l0,-10.892c0,-2.607 -2.113,-4.721 -4.721,-4.721l-21.784,0l-21.786,0c-2.607,0 -4.72,2.114 -4.72,4.721l-0,10.892c-0,2.606 2.115,4.721 4.72,4.721c2.606,0 4.721,-2.115 4.721,-4.721l0,-6.171l12.344,0Zm-17.065,65.355l87.14,-0c2.606,-0 4.721,-2.115 4.721,-4.721c0,-2.606 -2.115,-4.721 -4.721,-4.721l-87.14,0c-2.605,0 -4.72,2.115 -4.72,4.721c-0,2.606 2.115,4.721 4.72,4.721Zm70.802,-65.356l16.338,0c2.605,0 4.721,-2.115 4.721,-4.72c-0,-2.606 -2.116,-4.721 -4.721,-4.721l-16.338,-0c-2.606,-0 -4.721,2.115 -4.721,4.721c-0,2.605 2.115,4.72 4.721,4.72Z" style="fill:#f60;fill-rule:nonzero;"/><path d="M181.047,170.741c0,9.156 -7.423,16.58 -16.579,16.58l-142.303,-0c-9.155,-0 -16.579,-7.424 -16.579,-16.58l-0,-154.161c-0,-9.159 7.424,-16.58 16.579,-16.58l118.587,0c4.317,0.003 8.461,1.689 11.553,4.699l23.725,22.789l0.012,0.012c3.2,3.121 5.005,7.4 5.005,11.872l0,131.369Zm-9.441,-0l-0,-131.369c-0,-1.921 -0.775,-3.76 -2.147,-5.103l-23.715,-22.781l-0.014,-0.014c-1.332,-1.301 -3.12,-2.031 -4.983,-2.032l-118.582,-0c-3.941,-0 -7.138,3.195 -7.138,7.138l0,154.161c0,3.942 3.197,7.138 7.138,7.138l142.303,-0c3.942,-0 7.138,-3.196 7.138,-7.138Zm21.7,-142.843c-0,-2.606 2.115,-4.721 4.721,-4.721c2.605,-0 4.721,2.115 4.721,4.721l-0,145.365c-0,19.37 -15.7,35.07 -35.071,35.07l-108.723,0c-2.606,0 -4.721,-2.115 -4.721,-4.721c-0,-2.605 2.115,-4.72 4.721,-4.72l108.723,-0c14.156,-0 25.629,-11.474 25.629,-25.629l-0,-145.365Z" style="fill:#005ade;"/></g></g></svg>