<?xml version="1.0" encoding="UTF-8" standalone="no"?><!DOCTYPE svg PUBLIC "-//W3C//DTD SVG 1.1//EN" "http://www.w3.org/Graphics/SVG/1.1/DTD/svg11.dtd"><svg width="100%" height="100%" viewBox="0 0 125 125" version="1.1" xmlns="http://www.w3.org/2000/svg" xmlns:xlink="http://www.w3.org/1999/xlink" xml:space="preserve" xmlns:serif="http://www.serif.com/" style="fill-rule:evenodd;clip-rule:evenodd;stroke-linejoin:round;stroke-miterlimit:2;"><rect id="musiconn-icon-essay-invert-30x30" x="-0" y="0" width="125" height="125" style="fill:none;"/><g id="musiconn-icon-essay-invert-30x301" serif:id="musiconn-icon-essay-invert-30x30"><path d="M108.667,102.35c0,5.565 -4.512,10.072 -10.071,10.072l-85.177,-0c-5.564,-0 -10.076,-4.507 -10.076,-10.072l0,-92.274c0,-5.564 4.512,-10.076 10.076,-10.076l70.986,0c2.626,0.006 5.147,1.035 7.008,2.851l14.203,13.644l0.007,0.007c1.947,1.896 3.044,4.496 3.044,7.214l0,78.634Zm-36.868,-72.721l9.778,-0c1.642,-0 2.974,-1.333 2.974,-2.974c0,-1.642 -1.332,-2.974 -2.974,-2.974l-9.778,-0c-1.641,-0 -2.974,1.332 -2.974,2.974c0,1.641 1.333,2.974 2.974,2.974Zm-42.379,58.679l52.158,0c1.642,0 2.974,-1.332 2.974,-2.974c0,-1.641 -1.332,-2.974 -2.974,-2.974l-52.158,0c-1.642,0 -2.974,1.333 -2.974,2.974c-0,1.642 1.332,2.974 2.974,2.974Zm42.379,-39.119l9.778,-0c1.642,-0 2.974,-1.333 2.974,-2.974c0,-1.642 -1.332,-2.974 -2.974,-2.974l-9.778,-0c-1.641,-0 -2.974,1.332 -2.974,2.974c0,1.641 1.333,2.974 2.974,2.974Zm-32.313,-19.559l-0,20.131l-3.546,-0c-1.642,-0 -2.974,1.332 -2.974,2.974c-0,1.641 1.332,2.974 2.974,2.974l13.041,-0c1.642,-0 2.974,-1.333 2.974,-2.974c0,-1.642 -1.332,-2.974 -2.974,-2.974l-3.547,-0l-0,-20.131l7.091,-0l0,3.545c0,1.641 1.333,2.974 2.974,2.974c1.641,-0 2.974,-1.333 2.974,-2.974l-0,-6.519c-0,-1.643 -1.332,-2.974 -2.974,-2.974l-13.039,-0l-13.04,-0c-1.643,-0 -2.974,1.331 -2.974,2.974l-0,6.519c-0,1.641 1.332,2.974 2.974,2.974c1.641,-0 2.974,-1.333 2.974,-2.974l-0,-3.545l7.092,-0Zm-10.066,39.118l52.158,0c1.642,0 2.974,-1.332 2.974,-2.974c0,-1.641 -1.332,-2.974 -2.974,-2.974l-52.158,0c-1.642,0 -2.974,1.333 -2.974,2.974c-0,1.642 1.332,2.974 2.974,2.974Zm86.289,-51.899c-0,-1.642 1.332,-2.974 2.974,-2.974c1.641,-0 2.974,1.332 2.974,2.974l-0,87.012c-0,11.675 -9.464,21.139 -21.139,21.139l-65.081,-0c-1.641,-0 -2.974,-1.333 -2.974,-2.974c0,-1.641 1.333,-2.974 2.974,-2.974l65.081,0c8.39,0 15.191,-6.801 15.191,-15.191l-0,-87.012Z" style="fill:#005ade;"/></g></svg>