<?xml version="1.0" encoding="UTF-8" standalone="no"?><!DOCTYPE svg PUBLIC "-//W3C//DTD SVG 1.1//EN" "http://www.w3.org/Graphics/SVG/1.1/DTD/svg11.dtd"><svg width="100%" height="100%" viewBox="0 0 125 125" version="1.1" xmlns="http://www.w3.org/2000/svg" xmlns:xlink="http://www.w3.org/1999/xlink" xml:space="preserve" xmlns:serif="http://www.serif.com/" style="fill-rule:evenodd;clip-rule:evenodd;stroke-linejoin:round;stroke-miterlimit:2;"><rect id="musiconn-icon-journal-invert-30x30" x="-0" y="0" width="125" height="125" style="fill:none;"/><clipPath id="_clip1"><rect id="musiconn-icon-journal-invert-30x301" serif:id="musiconn-icon-journal-invert-30x30" x="-0" y="0" width="125" height="125"/></clipPath><g clip-path="url(#_clip1)"><path d="M107.375,23.165l7.735,0c4.076,0 9.263,3.368 9.263,10.882l0.627,72.2l0,0.014c0,8.051 -6.711,14.762 -14.762,14.762l-14.348,-0l-81.127,-0.001c-8.052,-0 -14.763,-6.712 -14.763,-14.763l-0,-91.233c-0,-5.891 4.419,-11.049 11.049,-11.049l79.566,0c5.293,0 9.991,4.164 10.89,9.283l-0,94.172c-0,1.624 1.31,2.939 2.935,2.939c1.624,0 2.935,-1.315 2.935,-2.939l0,-84.267Zm-81.357,0.236c-3.464,0 -6.381,3.129 -7.242,6.587c-0.061,0.245 -0.092,0.496 -0.092,0.747l0,23.87c0,4.583 3.664,7.334 7.334,7.334l47.74,0c4.583,0 7.334,-3.663 7.334,-7.334l-0,-23.87c-0,-3.663 -2.751,-7.334 -7.334,-7.334l-47.74,0Zm0,6.184l47.74,0c0.719,0 1.15,0.576 1.15,1.15l-0,23.87c-0,0.576 -0.431,1.15 -1.15,1.15l-47.74,0c-0.576,0 -1.15,-0.431 -1.15,-1.15l-0,-23.438c0.156,-0.466 0.393,-0.912 0.71,-1.258c0.132,-0.144 0.249,-0.324 0.44,-0.324Zm-3.713,51.982l55.697,-0c1.706,-0 3.092,-1.386 3.092,-3.092c-0,-1.707 -1.386,-3.092 -3.092,-3.092l-55.697,-0c-1.706,-0 -3.092,1.385 -3.092,3.092c0,1.706 1.386,3.092 3.092,3.092Zm0,15.912l31.827,0c1.706,0 3.092,-1.385 3.092,-3.092c-0,-1.706 -1.386,-3.091 -3.092,-3.091l-31.827,-0c-1.706,-0 -3.092,1.385 -3.092,3.091c0,1.707 1.386,3.092 3.092,3.092Z" style="fill:#005ade;"/></g></svg>