<?xml version="1.0" encoding="UTF-8" standalone="no"?><!DOCTYPE svg PUBLIC "-//W3C//DTD SVG 1.1//EN" "http://www.w3.org/Graphics/SVG/1.1/DTD/svg11.dtd"><svg width="100%" height="100%" viewBox="0 0 500 500" version="1.1" xmlns="http://www.w3.org/2000/svg" xmlns:xlink="http://www.w3.org/1999/xlink" xml:space="preserve" xmlns:serif="http://www.serif.com/" style="fill-rule:evenodd;clip-rule:evenodd;stroke-linejoin:round;stroke-miterlimit:2;"><rect id="musiconn-icon-journal-color-120x120" x="0" y="0" width="500" height="500" style="fill:none;"/><clipPath id="_clip1"><rect id="musiconn-icon-journal-color-120x1201" serif:id="musiconn-icon-journal-color-120x120" x="0" y="0" width="500" height="500"/></clipPath><g clip-path="url(#_clip1)"><g><path d="M461.025,116.586c21.522,0 38.975,17.263 38.975,38.556c-0,0.671 -0.017,1.338 -0.052,2l0.052,0l-0,285.411c-0,24.117 -20.1,44.216 -44.216,44.216l-361.787,0c-24.122,0 -44.221,-20.099 -44.221,-44.216l-0,-345.709c-0,-16.078 12.06,-30.149 30.149,-30.149l290.991,-0l0,349.914l46.308,27.918l43.799,-24.036l0.002,-303.905Zm-349.817,-17.499c-12.901,0 -23.746,11.682 -26.965,24.582c-0.222,0.889 -0.334,1.801 -0.334,2.717l-0,90.448c-0,17.064 13.649,27.299 27.299,27.299l180.891,0c17.063,0 27.304,-13.65 27.304,-27.299l-0,-90.448c-0,-13.648 -10.241,-27.299 -27.304,-27.299l-180.891,0Zm-0,22.443l180.891,-0c3.037,-0 4.861,2.427 4.861,4.856l0,90.448c0,2.429 -1.824,4.857 -4.861,4.857l-180.891,-0c-2.429,-0 -4.857,-1.821 -4.857,-4.857l0,-88.889c0.608,-1.85 1.554,-3.641 2.827,-5.029c0.593,-0.647 1.168,-1.386 2.03,-1.386Zm-14.07,257.27l120.598,0c6.193,0 11.221,-5.028 11.221,-11.221c-0,-6.193 -5.028,-11.221 -11.221,-11.221l-120.598,-0c-6.193,-0 -11.221,5.028 -11.221,11.221c0,6.193 5.028,11.221 11.221,11.221Zm0,-60.298l211.041,0c6.193,0 11.221,-5.028 11.221,-11.221c0,-6.193 -5.028,-11.221 -11.221,-11.221l-211.041,-0c-6.193,-0 -11.221,5.028 -11.221,11.221c0,6.193 5.028,11.221 11.221,11.221Z" style="fill:#f60;"/><path d="M384.225,86.847l47.07,-0.018c22.758,-0 41.372,18.612 41.372,41.37l-0.005,272.111c0,30.748 -26.034,56.328 -56.945,55.438l-360.279,0c-30.491,0 -55.438,-24.947 -55.438,-55.438l0,-345.709c0,-22.062 16.549,-41.37 41.371,-41.37l301.488,-0c22.752,-0 41.366,18.618 41.366,41.37l0,32.246Zm-11.142,346.458c-7.237,-10.008 -11.3,-22.446 -11.3,-35.234l-0,-343.47c-0,-10.409 -8.515,-18.928 -18.924,-18.928l-301.488,0c-11.357,0 -18.928,8.834 -18.928,18.928l-0,345.709c-0,18.148 14.847,32.995 32.995,32.995l317.645,0Zm11.142,-324.016l0,288.782c0,14.416 8.03,28.431 21.621,33.232c22.568,7.974 44.374,-9.3 44.374,-30.993l0.004,-272.111c0,-10.412 -8.515,-18.928 -18.927,-18.928l-47.072,0.018Z" style="fill:#005ade;"/></g></g></svg>