<?xml version="1.0" encoding="UTF-8" standalone="no"?><!DOCTYPE svg PUBLIC "-//W3C//DTD SVG 1.1//EN" "http://www.w3.org/Graphics/SVG/1.1/DTD/svg11.dtd"><svg width="100%" height="100%" viewBox="0 0 125 125" version="1.1" xmlns="http://www.w3.org/2000/svg" xmlns:xlink="http://www.w3.org/1999/xlink" xml:space="preserve" xmlns:serif="http://www.serif.com/" style="fill-rule:evenodd;clip-rule:evenodd;stroke-linejoin:round;stroke-miterlimit:2;"><rect id="musiconn-icon-journal-light-30x30" x="-0" y="0" width="125" height="125" style="fill:none;"/><clipPath id="_clip1"><rect id="musiconn-icon-journal-light-30x301" serif:id="musiconn-icon-journal-light-30x30" x="-0" y="0" width="125" height="125"/></clipPath><g clip-path="url(#_clip1)"><path d="M101.661,23.402l12.29,-0.007c6.08,0 11.049,4.975 11.049,11.049l-0,71.813c-0,8.193 -6.943,15.009 -15.179,14.763l-95.062,0c-8.12,0 -14.759,-6.643 -14.759,-14.763l-0,-91.235c-0,-5.891 4.42,-11.049 11.049,-11.049l79.564,0c6.074,0 11.048,4.975 11.048,11.049l0,8.38Zm0,6.184l0,76.082c0,3.749 2.085,7.399 5.619,8.648c5.865,2.072 11.536,-2.419 11.536,-8.059l-0,-71.813c-0,-2.674 -2.188,-4.865 -4.865,-4.865l-12.29,0.007Zm-3.323,85.25c-1.834,-2.627 -2.861,-5.854 -2.861,-9.168l0,-90.646c0,-2.674 -2.19,-4.865 -4.864,-4.865l-79.564,0c-2.919,0 -4.865,2.271 -4.865,4.865l0,91.235c0,4.718 3.857,8.579 8.575,8.579l83.579,0Zm-76.034,-17.359c-1.707,0 -3.092,-1.385 -3.092,-3.092c-0,-1.706 1.385,-3.092 3.092,-3.092l31.827,0c1.706,0 3.092,1.386 3.092,3.092c-0,1.707 -1.386,3.092 -3.092,3.092l-31.827,0Zm3.713,-74.08l47.74,0c4.583,0 7.335,3.671 7.335,7.334l-0,23.871c-0,3.671 -2.752,7.334 -7.335,7.334l-47.74,0c-3.671,0 -7.335,-2.751 -7.335,-7.334l0,-23.871c0,-0.251 0.031,-0.502 0.092,-0.747c0.861,-3.458 3.778,-6.587 7.243,-6.587Zm-0,6.184c-0.192,0 -0.309,0.18 -0.44,0.324c-0.318,0.346 -0.555,0.792 -0.711,1.258l0,23.439c0,0.719 0.575,1.15 1.151,1.15l47.74,0c0.719,0 1.151,-0.574 1.151,-1.15l-0,-23.871c-0,-0.574 -0.432,-1.15 -1.151,-1.15l-47.74,0Zm-3.713,51.983c-1.707,0 -3.092,-1.385 -3.092,-3.092c-0,-1.706 1.385,-3.092 3.092,-3.092l55.697,0c1.707,0 3.092,1.386 3.092,3.092c0,1.707 -1.385,3.092 -3.092,3.092l-55.697,0Z" style="fill:#005ade;"/></g></svg>