<?xml version="1.0" encoding="UTF-8" standalone="no"?><!DOCTYPE svg PUBLIC "-//W3C//DTD SVG 1.1//EN" "http://www.w3.org/Graphics/SVG/1.1/DTD/svg11.dtd"><svg width="100%" height="100%" viewBox="0 0 209 209" version="1.1" xmlns="http://www.w3.org/2000/svg" xmlns:xlink="http://www.w3.org/1999/xlink" xml:space="preserve" xmlns:serif="http://www.serif.com/" style="fill-rule:evenodd;clip-rule:evenodd;stroke-linejoin:round;stroke-miterlimit:2;"><rect id="musiconn-icon-journal-color-50x50" x="0" y="0" width="208.333" height="208.333" style="fill:none;"/><clipPath id="_clip1"><rect id="musiconn-icon-journal-color-50x501" serif:id="musiconn-icon-journal-color-50x50" x="0" y="0" width="208.333" height="208.333"/></clipPath><g clip-path="url(#_clip1)"><g><path d="M192.094,48.578c8.967,-0 16.239,7.192 16.239,16.065c0,0.279 -0.007,0.557 -0.021,0.833l0.021,0l0,118.921c0,10.049 -8.374,18.424 -18.423,18.424l-150.745,-0c-10.05,-0 -18.425,-8.375 -18.425,-18.424l-0,-144.045c-0,-6.7 5.025,-12.563 12.562,-12.563l121.246,0l0,145.798l19.295,11.633l18.25,-10.015l0.001,-126.627Zm-145.758,-7.292c-5.375,0 -9.893,4.868 -11.235,10.243c-0.092,0.37 -0.139,0.75 -0.139,1.132l-0,37.687c-0,7.11 5.687,11.374 11.375,11.374l75.371,0c7.109,0 11.376,-5.687 11.376,-11.374l0,-37.687c0,-5.687 -4.267,-11.375 -11.376,-11.375l-75.372,0Zm0.001,9.351l75.371,0c1.265,0 2.025,1.012 2.025,2.024l0,37.687c0,1.012 -0.76,2.023 -2.025,2.023l-75.371,0c-1.012,0 -2.024,-0.759 -2.024,-2.023l-0,-37.037c0.253,-0.772 0.648,-1.518 1.178,-2.096c0.247,-0.269 0.486,-0.578 0.846,-0.578Zm-5.863,107.196l50.249,0c2.581,0 4.676,-2.095 4.676,-4.675c-0,-2.581 -2.095,-4.676 -4.676,-4.676l-50.249,0c-2.58,0 -4.675,2.095 -4.675,4.676c-0,2.58 2.095,4.675 4.675,4.675Zm0,-25.124l87.934,0c2.58,0 4.676,-2.095 4.676,-4.675c-0,-2.581 -2.096,-4.676 -4.676,-4.676l-87.934,0c-2.58,0 -4.675,2.095 -4.675,4.676c-0,2.58 2.095,4.675 4.675,4.675Z" style="fill:#f60;"/><path d="M160.094,36.186l19.612,-0.007c9.483,-0 17.238,7.755 17.238,17.237l-0.001,113.38c-0,12.811 -10.848,23.47 -23.727,23.099l-150.117,0c-12.704,0 -23.099,-10.395 -23.099,-23.099l0,-144.046c0,-9.192 6.896,-17.237 17.238,-17.237l125.62,-0c9.48,-0 17.236,7.757 17.236,17.237l-0,13.436Zm-4.643,144.358c-3.015,-4.17 -4.708,-9.353 -4.708,-14.681l-0,-143.113c-0,-4.337 -3.548,-7.886 -7.885,-7.886l-125.62,-0c-4.732,-0 -7.887,3.681 -7.887,7.886l0,144.046c0,7.561 6.187,13.748 13.748,13.748l132.352,-0Zm4.643,-135.007l-0,120.326c-0,6.006 3.346,11.846 9.008,13.846c9.404,3.323 18.49,-3.874 18.49,-12.913l0.001,-113.38c0,-4.338 -3.548,-7.886 -7.886,-7.886l-19.613,0.007Z" style="fill:#005ade;"/></g></g></svg>