<?xml version="1.0" encoding="UTF-8" standalone="no"?><!DOCTYPE svg PUBLIC "-//W3C//DTD SVG 1.1//EN" "http://www.w3.org/Graphics/SVG/1.1/DTD/svg11.dtd"><svg width="100%" height="100%" viewBox="0 0 209 209" version="1.1" xmlns="http://www.w3.org/2000/svg" xmlns:xlink="http://www.w3.org/1999/xlink" xml:space="preserve" xmlns:serif="http://www.serif.com/" style="fill-rule:evenodd;clip-rule:evenodd;stroke-linejoin:round;stroke-miterlimit:2;"><rect id="musiconn-icon-score-color-50x50" x="0" y="0" width="208.333" height="208.333" style="fill:none;"/><clipPath id="_clip1"><rect id="musiconn-icon-score-color-50x501" serif:id="musiconn-icon-score-color-50x50" x="0" y="0" width="208.333" height="208.333"/></clipPath><g clip-path="url(#_clip1)"><g><path d="M37.283,43.974c0.735,-12.212 4.603,-21.433 17.505,-21.433l102.11,0l0,21.433l-20.007,-0c-2.674,-0 -4.845,2.171 -4.845,4.845c-0,2.674 2.171,4.845 4.845,4.845l20.007,-0l0,12.85l36.833,-0l0,115.327c0,14.632 -11.86,26.492 -26.49,26.492l-100.723,0l0,-33.674l-29.376,-0l0,-17.316l21.495,-0.051c2.674,-0.007 4.839,-2.183 4.833,-4.857c-0.006,-2.674 -2.182,-4.84 -4.856,-4.833l-21.472,0.051l0,-24.842l9.776,-0c2.674,-0 4.845,-2.171 4.845,-4.845c-0,-2.674 -2.171,-4.845 -4.845,-4.845l-9.776,-0l0,-24.884l22.468,0c2.674,0 4.845,-2.171 4.845,-4.845c-0,-2.674 -2.171,-4.845 -4.845,-4.845l-22.468,0l0,-24.883l38.237,-0c2.674,-0 4.845,-2.171 4.845,-4.845c-0,-2.674 -2.171,-4.845 -4.845,-4.845l-38.096,-0Zm112.104,78.837l26.577,-0c2.675,-0 4.845,-2.171 4.845,-4.845c0,-2.674 -2.17,-4.845 -4.845,-4.845l-26.577,-0c-2.674,-0 -4.845,2.171 -4.845,4.845c0,2.674 2.171,4.845 4.845,4.845Zm-16.546,-34.389l43.217,-0.184c2.674,-0.012 4.835,-2.192 4.824,-4.866c-0.012,-2.674 -2.192,-4.836 -4.866,-4.824l-43.217,0.184c-2.674,0.011 -4.835,2.191 -4.824,4.865c0.011,2.674 2.192,4.836 4.866,4.825Zm-1.005,68.963l44.128,-0c2.674,-0 4.845,-2.171 4.845,-4.845c-0,-2.674 -2.171,-4.845 -4.845,-4.845l-44.128,-0c-2.674,-0 -4.845,2.171 -4.845,4.845c-0,2.674 2.171,4.845 4.845,4.845Zm-36.717,-78.248l-0.331,0.209c-4.102,2.588 -8.324,5.279 -12.192,8.574c-3.742,3.183 -12.419,10.695 -14.734,22.071c-3.12,15.328 4.922,28.387 20.007,32.499c2.724,0.742 5.483,1.148 8.216,1.246c-0.012,2.936 -0.029,5.371 -0.055,7.183c-0,0.044 -0.001,0.089 -0.001,0.133c-0.009,2.092 0.104,4.907 -1.036,6.539c-0.367,0.525 -0.788,1.003 -1.266,1.422c-0.945,0.644 -3.893,2.494 -8.405,0.266l-0.007,-0.004c-1.38,-0.829 -3.29,-0.889 -4.706,0.019c-2.189,1.398 -2.483,4.015 -0.798,5.831c1.462,1.575 3.376,2.711 5.494,3.309l0,0.017c3.702,0.919 6.078,0.447 8.404,-0.379l0,-0.025c3.465,-1.166 6.374,-3.308 8.352,-6.188c2.205,-3.208 2.36,-8.374 2.374,-10.807c0,-0.043 0.001,-0.085 0.001,-0.128c0.028,-1.985 0.046,-4.652 0.058,-7.86c10.153,-2.016 18.801,-8.298 22.301,-17.096c2.688,-6.764 2.488,-12.665 0.533,-17.535c-2.906,-7.241 -9.813,-12.27 -17.526,-14.372c-1.78,-0.485 -3.586,-0.733 -5.37,-0.765c-0.009,-3.527 -0.018,-7.062 -0.026,-10.569c7.643,-5.084 13.793,-10.692 14.471,-19.322c0.681,-8.671 -4.186,-14.046 -8.654,-18.711c-2.671,-2.787 -5.344,-5.324 -5.855,-8.925c-0.269,-1.886 -2.1,-3.504 -4.37,-3.406l-0.008,0c-0.371,0.018 -0.453,0.024 -0.064,0.004c-2.321,0.139 -3.918,1.968 -3.929,3.904c-0.06,10.707 -0.043,26.05 -0.007,42.319c-0.285,0.18 -0.574,0.361 -0.863,0.542l-0.008,0.005c-0.387,0.248 -0.27,0.17 0,0Zm9.246,-28.762c3.35,3.483 6.574,6.783 6.13,12.45c-0.191,2.447 -1.115,4.502 -2.526,6.345c-0.99,1.292 -2.207,2.481 -3.585,3.621c-0.016,-7.966 -0.024,-15.591 -0.019,-22.416Zm-8.27,73.81c2.327,0.827 4.703,1.299 8.404,0.38l0,-0.018c2.119,-0.597 4.033,-1.733 5.494,-3.308c1.686,-1.816 1.392,-4.433 -0.797,-5.831c-1.416,-0.909 -3.326,-0.848 -4.706,-0.019l-0.007,0.004c-4.512,2.228 -7.46,0.378 -8.405,-0.266c-0.478,-0.419 -0.903,-0.895 -1.266,-1.422c-1.379,-2.007 -1.691,-4.525 -0.812,-6.737c0.294,-0.738 0.704,-1.416 1.208,-2.028c0,0 0.041,-0.052 0.122,-0.144c0.224,-0.261 0.466,-0.509 0.723,-0.744l0,0.02c1.733,-1.558 6.105,-4.445 12.87,-2c4.655,1.617 8.755,4.757 10.526,9.266c1.293,3.294 1.29,7.287 -0.533,11.875c-2.315,5.822 -7.852,9.984 -14.41,11.748c-2.916,0.849 -5.868,1.096 -8.405,0.906l-0.03,-0.002c-1.943,-0.095 -3.902,-0.396 -5.836,-0.923c-12.383,-3.373 -15.997,-14.225 -14.118,-23.467c1.856,-9.113 8.834,-14.915 12.144,-17.732c2.445,-2.082 5.087,-3.917 7.75,-5.65c0.006,2.238 0.012,4.479 0.018,6.714c-4.55,1.807 -8.207,5.132 -9.905,9.406c-1.794,4.514 -1.199,9.658 1.619,13.76c1.979,2.88 4.888,5.022 8.352,6.188l0,0.024Z" style="fill:#f60;"/><path d="M171.192,48.819c-0,-2.674 2.171,-4.845 4.845,-4.845c2.674,-0 4.845,2.171 4.845,4.845l-0,115.327c-0,17.305 -14.03,31.337 -31.337,31.337l-106.537,0c-2.674,0 -4.845,-2.171 -4.845,-4.845c0,-2.674 2.171,-4.845 4.845,-4.845l106.537,0c11.955,0 21.647,-9.693 21.647,-21.647l-0,-115.327Zm-146.9,103.628c-0,2.674 -2.171,4.845 -4.845,4.845c-2.674,0 -4.845,-2.171 -4.845,-4.845l0,-121.11c0,-17.307 14.03,-31.337 31.337,-31.337l110.959,-0c2.674,0 4.845,2.171 4.845,4.845c0,2.674 -2.171,4.845 -4.845,4.845l-110.959,-0c-11.956,-0 -21.647,9.691 -21.647,21.647l-0,121.11Z" style="fill:#005ade;"/></g></g></svg>