<?xml version="1.0" encoding="UTF-8" standalone="no"?><!DOCTYPE svg PUBLIC "-//W3C//DTD SVG 1.1//EN" "http://www.w3.org/Graphics/SVG/1.1/DTD/svg11.dtd"><svg width="100%" height="100%" viewBox="0 0 125 125" version="1.1" xmlns="http://www.w3.org/2000/svg" xmlns:xlink="http://www.w3.org/1999/xlink" xml:space="preserve" xmlns:serif="http://www.serif.com/" style="fill-rule:evenodd;clip-rule:evenodd;stroke-linejoin:round;stroke-miterlimit:2;"><rect id="musiconn-icon-score-light-30x30" x="-0" y="0" width="125" height="125" style="fill:none;"/><clipPath id="_clip1"><rect id="musiconn-icon-score-light-30x301" serif:id="musiconn-icon-score-light-30x30" x="-0" y="0" width="125" height="125"/></clipPath><g clip-path="url(#_clip1)"><path d="M115.663,53.338l0,51.624c0,11.065 -8.971,20.038 -20.038,20.038l-68.124,-0c-1.71,0 -3.098,-1.388 -3.098,-3.098c-0,-1.71 1.388,-3.098 3.098,-3.098l68.124,-0c7.645,-0 13.842,-6.198 13.842,-13.842l-0,-4.324l-25.166,0c-1.71,0 -3.098,-1.388 -3.098,-3.098c0,-1.71 1.388,-3.098 3.098,-3.098l25.166,0l-0,-15.912l-13.943,0c-1.71,0 -3.098,-1.388 -3.098,-3.098c-0,-1.71 1.388,-3.098 3.098,-3.098l13.943,0l-0,-15.898l-24.523,0.104c-1.71,0.008 -3.104,-1.375 -3.112,-3.084c-0.007,-1.71 1.375,-3.104 3.085,-3.112l24.55,-0.104l-0,-15.925l-21.934,-0c-1.709,-0 -3.098,-1.388 -3.098,-3.098c0,-1.71 1.389,-3.098 3.098,-3.098l24.956,0c0.025,-0 0.051,-0 0.076,0c1.71,0 3.098,1.388 3.098,3.098c0,-0 0,22.112 0,22.121Zm-106.326,22.094l-0,-55.394c-0,-11.067 8.971,-20.038 20.038,-20.038l70.952,-0c1.71,0 3.098,1.388 3.098,3.098c0,1.71 -1.388,3.098 -3.098,3.098l-70.952,0c-7.645,0 -13.842,6.197 -13.842,13.842l0,8.081l30.009,-0c1.71,-0 3.098,1.388 3.098,3.098c-0,1.71 -1.388,3.098 -3.098,3.098l-30.009,-0l0,15.911l22.584,0c1.71,0 3.098,1.389 3.098,3.098c-0,1.71 -1.388,3.099 -3.098,3.099l-22.584,-0l0,15.911l14.468,0c1.71,0 3.098,1.388 3.098,3.098c0,1.71 -1.388,3.098 -3.098,3.098l-14.468,0l0,15.905l21.947,-0.052c1.71,-0.004 3.101,1.38 3.105,3.09c0.004,1.71 -1.381,3.102 -3.091,3.106l-25.052,0.059c-1.71,0.004 -3.101,-1.381 -3.105,-3.091c0,-0.022 -0,-0.044 0,-0.066l-0,-22.049Zm51.486,-24.828l0.005,-0.004c0.185,-0.115 0.369,-0.231 0.552,-0.347c-0.023,-10.403 -0.034,-20.214 0.004,-27.06c0.007,-1.238 1.028,-2.407 2.513,-2.496c-0.249,0.013 -0.194,0.008 0.043,-0.003c1.452,-0.062 2.625,0.972 2.797,2.178c0.327,2.303 2.036,3.925 3.744,5.707c2.857,2.983 5.969,6.42 5.534,11.965c-0.434,5.518 -4.367,9.104 -9.254,12.355c0.005,2.243 0.011,4.503 0.017,6.758c1.14,0.021 2.296,0.179 3.434,0.489c4.932,1.345 9.348,4.56 11.207,9.19c1.249,3.114 1.378,6.888 -0.342,11.213c-2.237,5.626 -7.767,9.643 -14.26,10.932c-0.007,2.052 -0.019,3.757 -0.036,5.026l-0.001,0.082c-0.009,1.555 -0.108,4.859 -1.518,6.911c-1.265,1.841 -3.125,3.211 -5.341,3.956l0,0.016c-1.487,0.528 -3.007,0.83 -5.373,0.243l-0,-0.012c-1.355,-0.382 -2.579,-1.108 -3.514,-2.115c-1.077,-1.161 -0.889,-2.835 0.511,-3.729c0.905,-0.581 2.129,-0.541 3.011,-0.011c2.885,1.425 4.772,0.243 5.376,-0.168c0.306,-0.269 0.576,-0.574 0.81,-0.91c0.729,-1.044 0.657,-2.844 0.663,-4.181l0.001,-0.085c0.016,-1.159 0.027,-2.716 0.034,-4.593c-1.747,-0.063 -3.512,-0.323 -5.253,-0.797c-9.646,-2.629 -14.788,-10.98 -12.794,-20.781c1.481,-7.275 7.029,-12.078 9.422,-14.114c2.474,-2.106 5.173,-3.827 7.796,-5.482l0.212,-0.133c-0.173,0.108 -0.248,0.158 -0,-0Zm0.624,28.805l0,-0.016c-2.215,-0.745 -4.075,-2.115 -5.341,-3.956c-1.802,-2.623 -2.182,-5.913 -1.035,-8.799c1.086,-2.733 3.424,-4.859 6.333,-6.014c-0.003,-1.43 -0.007,-2.863 -0.011,-4.293c-1.702,1.107 -3.392,2.281 -4.955,3.612c-2.117,1.801 -6.579,5.511 -7.766,11.339c-1.202,5.909 1.11,12.848 9.028,15.005c1.236,0.337 2.489,0.53 3.731,0.59l0.02,0.002c1.622,0.122 3.51,-0.037 5.374,-0.579c4.194,-1.128 7.734,-3.79 9.214,-7.513c1.166,-2.933 1.168,-5.486 0.341,-7.593c-1.132,-2.883 -3.754,-4.891 -6.73,-5.925c-4.326,-1.563 -7.122,0.283 -8.23,1.279l0,-0.013c-0.164,0.151 -0.319,0.309 -0.462,0.476c-0.052,0.059 -0.078,0.092 -0.078,0.092c-0.322,0.391 -0.585,0.825 -0.773,1.297c-0.562,1.414 -0.362,3.024 0.52,4.307c0.232,0.338 0.503,0.642 0.809,0.91c0.604,0.412 2.492,1.593 5.377,0.169c0.882,-0.53 2.105,-0.57 3.011,0.011c1.4,0.893 1.588,2.567 0.51,3.728c-0.935,1.007 -2.159,1.734 -3.513,2.116l-0,0.011c-2.367,0.588 -3.886,0.286 -5.374,-0.243Zm5.288,-47.197c-0.003,4.364 0.002,9.239 0.012,14.334c0.881,-0.729 1.66,-1.49 2.293,-2.316c0.902,-1.178 1.492,-2.493 1.615,-4.057c0.284,-3.624 -1.778,-5.734 -3.92,-7.961Z" style="fill:#005ade;"/></g></svg>