<?xml version="1.0" encoding="UTF-8" standalone="no"?><!DOCTYPE svg PUBLIC "-//W3C//DTD SVG 1.1//EN" "http://www.w3.org/Graphics/SVG/1.1/DTD/svg11.dtd"><svg width="100%" height="100%" viewBox="0 0 125 125" version="1.1" xmlns="http://www.w3.org/2000/svg" xmlns:xlink="http://www.w3.org/1999/xlink" xml:space="preserve" xmlns:serif="http://www.serif.com/" style="fill-rule:evenodd;clip-rule:evenodd;stroke-linejoin:round;stroke-miterlimit:2;"><rect id="musiconn-icon-score-invert-30x30" x="-0" y="0" width="125" height="125" style="fill:none;"/><g id="musiconn-icon-score-invert-30x301" serif:id="musiconn-icon-score-invert-30x30"><path d="M7.877,72.231l0,-15.71l29.568,-0c1.757,-0 3.183,-1.427 3.183,-3.183c0,-1.757 -1.426,-3.183 -3.183,-3.183l-29.568,-0l0,-15.711l37.197,0c1.757,0 3.183,-1.426 3.183,-3.183c-0,-1.756 -1.426,-3.183 -3.183,-3.183l-37.197,0l0,-7.979c0,-11.075 9.192,-20.099 20.587,-20.099l72.896,0c1.756,0 3.183,1.426 3.183,3.183c-0,1.35 -0.843,2.505 -2.03,2.967l14.61,0l-0,21.928l-28.907,0c-1.757,0 -3.183,1.427 -3.183,3.183c-0,1.757 1.426,3.183 3.183,3.183l28.907,0l-0,15.713l-31.593,0.115c-1.757,0.007 -3.178,1.438 -3.171,3.195c0.006,1.757 1.437,3.178 3.194,3.171l31.57,-0.115l-0,15.708l-20.698,-0c-1.756,-0 -3.183,1.426 -3.183,3.183c0,1.756 1.427,3.183 3.183,3.183l20.698,-0l-0,15.71l-32.228,0c-1.757,0 -3.183,1.426 -3.183,3.183c-0,1.757 1.426,3.183 3.183,3.183l32.228,0l-0,2.166c-0,0.148 -0.003,0.295 -0.007,0.442l-0,1.62c-0,11.074 -9.192,20.099 -20.587,20.099l-69.99,-0c-1.757,-0 -3.183,-1.426 -3.183,-3.183c-0,-1.287 0.766,-2.397 1.867,-2.898l-17.338,-0l0,-18.254l28.919,-0.051c1.757,-0.004 3.181,-1.432 3.178,-3.189c-0.004,-1.757 -1.432,-3.18 -3.189,-3.177l-28.916,0.051l0,-15.702l21.23,-0c1.757,-0 3.183,-1.427 3.183,-3.183c0,-1.757 -1.426,-3.183 -3.183,-3.183l-21.23,-0Zm52.897,-21.61c-0.255,0.158 -0.178,0.108 -0,-0l-0.218,0.133c-2.695,1.652 -5.468,3.371 -8.009,5.474c-2.459,2.033 -8.16,6.83 -9.681,14.094c-2.049,9.787 3.235,18.126 13.145,20.751c1.789,0.474 3.602,0.733 5.397,0.796c-0.007,1.874 -0.019,3.429 -0.036,4.586l-0.001,0.085c-0.005,1.336 0.068,3.133 -0.681,4.175c-0.24,0.335 -0.517,0.641 -0.831,0.909c-0.621,0.411 -2.56,1.591 -5.524,0.168c-0.907,-0.529 -2.164,-0.569 -3.094,0.011c-1.438,0.892 -1.631,2.564 -0.524,3.723c0.96,1.006 2.218,1.731 3.609,2.113l0,0.011c2.432,0.587 3.993,0.285 5.521,-0.242l0,-0.016c2.276,-0.744 4.187,-2.112 5.487,-3.951c1.449,-2.049 1.55,-5.347 1.56,-6.901l0,-0.081c0.019,-1.268 0.031,-2.971 0.038,-5.019c6.671,-1.288 12.352,-5.299 14.651,-10.916c1.766,-4.319 1.635,-8.088 0.35,-11.198c-1.909,-4.623 -6.446,-7.834 -11.513,-9.176c-1.17,-0.31 -2.357,-0.468 -3.528,-0.489c-0.006,-2.252 -0.012,-4.509 -0.018,-6.748c5.022,-3.246 9.062,-6.827 9.507,-12.338c0.448,-5.536 -2.749,-8.968 -5.685,-11.947c-1.754,-1.78 -3.51,-3.4 -3.847,-5.699c-0.176,-1.204 -1.381,-2.238 -2.873,-2.175c-0.243,0.011 -0.3,0.015 -0.044,0.002c-1.526,0.089 -2.574,1.257 -2.582,2.493c-0.039,6.837 -0.028,16.634 -0.004,27.022c-0.188,0.115 -0.377,0.231 -0.567,0.346l-0.005,0.004Zm6.074,-18.366c2.201,2.224 4.319,4.331 4.027,7.95c-0.126,1.562 -0.732,2.875 -1.66,4.051c-0.65,0.825 -1.45,1.584 -2.355,2.313c-0.01,-5.087 -0.016,-9.956 -0.012,-14.314Zm-5.433,47.13c1.528,0.528 3.089,0.829 5.521,0.243l-0,-0.012c1.392,-0.381 2.649,-1.106 3.609,-2.113c1.108,-1.159 0.914,-2.83 -0.524,-3.723c-0.93,-0.58 -2.187,-0.54 -3.094,-0.01c-2.964,1.422 -4.903,0.242 -5.523,-0.169c-0.314,-0.268 -0.594,-0.571 -0.832,-0.908c-0.906,-1.281 -1.111,-2.889 -0.534,-4.302c0.193,-0.471 0.463,-0.904 0.794,-1.294c-0,-0 0.027,-0.034 0.08,-0.093c0.148,-0.166 0.306,-0.324 0.475,-0.474l0,0.012c1.139,-0.995 4.01,-2.838 8.455,-1.277c3.058,1.032 5.752,3.038 6.915,5.917c0.85,2.103 0.848,4.653 -0.35,7.582c-1.521,3.717 -5.158,6.375 -9.466,7.502c-1.916,0.542 -3.855,0.7 -5.523,0.578l-0.019,-0.001c-1.277,-0.06 -2.564,-0.253 -3.834,-0.59c-8.135,-2.153 -10.51,-9.083 -9.275,-14.984c1.219,-5.819 5.804,-9.524 7.978,-11.322c1.606,-1.33 3.342,-2.502 5.091,-3.608c0.004,1.429 0.008,2.86 0.012,4.287c-2.989,1.154 -5.391,3.277 -6.507,6.006c-1.178,2.882 -0.788,6.167 1.064,8.787c1.3,1.838 3.211,3.206 5.487,3.95l-0,0.016Z" style="fill:#005ade;"/></g></svg>