<?xml version="1.0" encoding="UTF-8" standalone="no"?><!DOCTYPE svg PUBLIC "-//W3C//DTD SVG 1.1//EN" "http://www.w3.org/Graphics/SVG/1.1/DTD/svg11.dtd"><svg width="100%" height="100%" viewBox="0 0 500 500" version="1.1" xmlns="http://www.w3.org/2000/svg" xmlns:xlink="http://www.w3.org/1999/xlink" xml:space="preserve" xmlns:serif="http://www.serif.com/" style="fill-rule:evenodd;clip-rule:evenodd;stroke-linejoin:round;stroke-miterlimit:2;"><rect id="musiconn-icon-score-color-120x120" x="0" y="0" width="500" height="500" style="fill:none;"/><clipPath id="_clip1"><rect id="musiconn-icon-score-color-120x1201" serif:id="musiconn-icon-score-color-120x120" x="0" y="0" width="500" height="500"/></clipPath><g clip-path="url(#_clip1)"><g><path d="M89.479,105.537c1.763,-29.308 11.048,-51.438 42.012,-51.438l245.064,-0l0,51.438l-48.017,0c-6.417,0 -11.628,5.21 -11.628,11.628c0,6.418 5.211,11.628 11.628,11.628l48.017,-0l0,30.84l88.4,0l0,276.786c0,35.116 -28.465,63.581 -63.576,63.581l-241.735,-0l0,-80.818l-70.502,-0l-0,-41.56l51.586,-0.122c6.418,-0.016 11.616,-5.238 11.6,-11.656c-0.015,-6.417 -5.238,-11.615 -11.655,-11.6l-51.531,0.122l-0,-59.62l23.461,-0c6.417,-0 11.628,-5.21 11.628,-11.628c-0,-6.418 -5.211,-11.628 -11.628,-11.628l-23.461,0l-0,-59.721l53.921,0c6.418,0 11.628,-5.21 11.628,-11.628c0,-6.417 -5.21,-11.627 -11.628,-11.627l-53.921,-0l-0,-59.721l91.768,-0c6.417,-0 11.628,-5.21 11.628,-11.628c-0,-6.418 -5.211,-11.628 -11.628,-11.628l-91.431,0Zm269.05,189.209l63.786,-0c6.417,-0 11.628,-5.21 11.628,-11.628c-0,-6.418 -5.211,-11.628 -11.628,-11.628l-63.786,0c-6.418,0 -11.628,5.21 -11.628,11.628c-0,6.418 5.21,11.628 11.628,11.628Zm-39.711,-82.534l103.72,-0.442c6.418,-0.027 11.606,-5.26 11.579,-11.677c-0.028,-6.418 -5.26,-11.606 -11.678,-11.578l-103.721,0.441c-6.417,0.028 -11.605,5.26 -11.578,11.678c0.028,6.417 5.26,11.605 11.678,11.578Zm-2.412,165.511l105.907,0c6.418,0 11.628,-5.21 11.628,-11.628c-0,-6.417 -5.21,-11.628 -11.628,-11.628l-105.907,0c-6.417,0 -11.628,5.211 -11.628,11.628c0,6.418 5.211,11.628 11.628,11.628Zm-88.12,-187.794l-0.794,0.501c-9.846,6.211 -19.977,12.671 -29.261,20.577c-8.982,7.641 -29.807,25.668 -35.363,52.972c-7.487,36.787 11.814,68.129 48.018,77.996c6.536,1.781 13.159,2.755 19.718,2.992c-0.028,7.046 -0.069,12.89 -0.131,17.239c-0.001,0.106 -0.002,0.213 -0.003,0.319c-0.022,5.02 0.248,11.776 -2.488,15.692c-0.88,1.26 -1.891,2.408 -3.038,3.415c-2.267,1.545 -9.343,5.984 -20.171,0.638l-0.018,-0.009c-3.311,-1.991 -7.895,-2.136 -11.293,0.044c-5.255,3.355 -5.96,9.637 -1.915,13.994c3.509,3.782 8.102,6.508 13.186,7.942l-0,0.042c8.883,2.205 14.586,1.073 20.169,-0.911l0,-0.06c8.315,-2.797 15.296,-7.938 20.045,-14.849c5.292,-7.7 5.663,-20.1 5.697,-25.938c0.001,-0.103 0.002,-0.205 0.003,-0.307c0.067,-4.764 0.111,-11.165 0.138,-18.864c24.368,-4.838 45.124,-19.915 53.522,-41.03c6.453,-16.234 5.971,-30.398 1.28,-42.086c-6.974,-17.378 -23.552,-29.446 -42.061,-34.492c-4.273,-1.163 -8.609,-1.759 -12.889,-1.837c-0.022,-8.463 -0.043,-16.947 -0.063,-25.364c18.343,-12.201 33.104,-25.66 34.731,-46.373c1.633,-20.809 -10.046,-33.709 -20.769,-44.906c-6.41,-6.689 -12.826,-12.777 -14.054,-21.421c-0.643,-4.525 -5.038,-8.409 -10.487,-8.174l-0.02,0.001c-0.889,0.041 -1.086,0.058 -0.151,0.008c-5.573,0.335 -9.405,4.724 -9.43,9.369c-0.145,25.697 -0.103,62.52 -0.017,101.566c-0.686,0.433 -1.378,0.868 -2.072,1.302l-0.019,0.012c-0.929,0.596 -0.648,0.409 0,0Zm22.19,-69.03c8.04,8.36 15.778,16.28 14.713,29.88c-0.461,5.873 -2.676,10.806 -6.064,15.228c-2.375,3.101 -5.297,5.955 -8.604,8.692c-0.037,-19.12 -0.057,-37.418 -0.045,-53.8Zm-19.847,177.146c5.583,1.984 11.286,3.117 20.169,0.911l0,-0.042c5.084,-1.433 9.678,-4.16 13.186,-7.942c4.046,-4.357 3.34,-10.638 -1.915,-13.993c-3.398,-2.18 -7.982,-2.035 -11.293,-0.045l-0.018,0.009c-10.828,5.347 -17.904,0.907 -20.17,-0.638c-1.148,-1.007 -2.168,-2.148 -3.039,-3.414c-3.31,-4.815 -4.059,-10.859 -1.949,-16.167c0.705,-1.773 1.691,-3.4 2.899,-4.867c0,-0 0.098,-0.126 0.293,-0.347c0.539,-0.625 1.119,-1.22 1.736,-1.784l-0,0.046c4.159,-3.738 14.65,-10.667 30.887,-4.799c11.172,3.879 21.013,11.417 25.262,22.238c3.105,7.907 3.097,17.489 -1.279,28.5c-5.555,13.972 -18.845,23.963 -34.583,28.196c-6.998,2.037 -14.083,2.631 -20.173,2.173l-0.073,-0.005c-4.662,-0.226 -9.363,-0.95 -14.006,-2.215c-29.718,-8.095 -38.393,-34.14 -33.883,-56.321c4.455,-21.871 21.203,-35.796 29.147,-42.556c5.868,-4.997 12.209,-9.402 18.599,-13.559c0.014,5.37 0.028,10.749 0.042,16.114c-10.919,4.337 -19.694,12.317 -23.771,22.573c-4.305,10.833 -2.878,23.18 3.887,33.025c4.749,6.911 11.731,12.052 20.045,14.85l0,0.059Z" style="fill:#f60;"/><path d="M410.86,117.165c0,-6.418 5.211,-11.628 11.628,-11.628c6.418,0 11.628,5.21 11.628,11.628l0,276.785c0,41.533 -33.671,75.21 -75.209,75.21l-255.688,-0c-6.417,-0 -11.628,-5.211 -11.628,-11.628c0,-6.418 5.211,-11.628 11.628,-11.628l255.688,-0c28.694,-0 51.953,-23.263 51.953,-51.954l0,-276.785Zm-352.559,248.709c-0,6.417 -5.211,11.628 -11.628,11.628c-6.418,-0 -11.628,-5.211 -11.628,-11.628l-0,-290.665c-0,-41.538 33.671,-75.209 75.209,-75.209l266.302,-0c6.417,0 11.628,5.21 11.628,11.628c-0,6.417 -5.211,11.628 -11.628,11.628l-266.302,-0c-28.694,-0 -51.953,23.259 -51.953,51.953l-0,290.665Z" style="fill:#005ade;"/></g></g></svg>