<?xml version="1.0" encoding="UTF-8" standalone="no"?><!DOCTYPE svg PUBLIC "-//W3C//DTD SVG 1.1//EN" "http://www.w3.org/Graphics/SVG/1.1/DTD/svg11.dtd"><svg width="100%" height="100%" viewBox="0 0 209 209" version="1.1" xmlns="http://www.w3.org/2000/svg" xmlns:xlink="http://www.w3.org/1999/xlink" xml:space="preserve" xmlns:serif="http://www.serif.com/" style="fill-rule:evenodd;clip-rule:evenodd;stroke-linejoin:round;stroke-miterlimit:2;"><rect id="musiconn-icon-series-color-50x50" x="0" y="0" width="208.333" height="208.333" style="fill:none;"/><clipPath id="_clip1"><rect id="musiconn-icon-series-color-50x501" serif:id="musiconn-icon-series-color-50x50" x="0" y="0" width="208.333" height="208.333"/></clipPath><g clip-path="url(#_clip1)"><g><path d="M45.186,203.481c-11.722,-0.652 -21.04,-10.353 -21.04,-22.208l0,-28.234l23.807,-0c2.665,-0 4.829,-2.159 4.829,-4.817c-0,-2.659 -2.164,-4.818 -4.829,-4.818l-23.807,0l0,-119.317l42.079,-0l-0,157.186c-0,11.855 -9.317,21.556 -21.039,22.208Z" style="fill:#f60;"/><path d="M106.581,203.481c-11.722,-0.652 -21.039,-10.353 -21.039,-22.208l-0,-28.234l23.806,-0c2.666,-0 4.83,-2.159 4.83,-4.817c-0,-2.659 -2.164,-4.818 -4.83,-4.818l-23.806,0l-0,-119.317l42.079,-0l-0,157.186c-0,11.855 -9.318,21.556 -21.04,22.208Z" style="fill:#f60;"/><path d="M146.938,143.404l-0,-119.317l61.395,-0l0,157.186c0,12.276 -9.991,22.243 -22.297,22.243l-16.801,-0c-12.306,-0 -22.297,-9.967 -22.297,-22.243l-0,-28.234l23.806,-0c2.665,-0 4.829,-2.159 4.829,-4.817c0,-2.659 -2.164,-4.818 -4.829,-4.818l-23.806,0Z" style="fill:#f60;"/><path d="M0,181.273l0,-176.456c-0,-2.658 2.164,-4.817 4.829,-4.817c2.666,-0 4.829,2.159 4.829,4.817l0,45.632c0,9.617 7.828,17.425 17.469,17.425l16.8,0c9.641,0 17.469,-7.808 17.469,-17.425l-0,-45.632c-0,-2.658 2.164,-4.817 4.829,-4.817c2.665,-0 4.829,2.159 4.829,4.817l0,45.632c0,9.617 7.827,17.425 17.468,17.425l16.801,0c9.641,0 17.468,-7.808 17.468,-17.425l0,-45.632c0,-2.658 2.164,-4.817 4.83,-4.817c2.665,-0 4.829,2.159 4.829,4.817l-0,45.632c-0,9.617 7.827,17.425 17.468,17.425l16.801,0c9.641,0 17.468,-7.808 17.468,-17.425l0,-45.632c0,-2.658 2.164,-4.817 4.829,-4.817c2.666,0 4.83,2.159 4.83,4.817l-0,176.456c-0,14.935 -12.155,27.06 -27.127,27.06l-16.801,0c-9.234,0 -17.397,-4.613 -22.297,-11.652c-4.9,7.039 -13.063,11.652 -22.298,11.652l-16.801,0c-9.234,0 -17.397,-4.613 -22.297,-11.652c-4.9,7.039 -13.063,11.652 -22.298,11.652l-16.8,0c-14.972,0 -27.127,-12.125 -27.127,-27.06Zm61.396,-110.127c-4.721,3.97 -10.817,6.363 -17.469,6.363l-16.8,-0c-6.652,-0 -12.748,-2.393 -17.469,-6.363l0,110.127c0,9.618 7.828,17.426 17.469,17.426l16.8,-0c9.641,-0 17.469,-7.808 17.469,-17.426l-0,-110.127Zm61.395,-0c-4.72,3.97 -10.816,6.363 -17.468,6.363l-16.801,-0c-6.651,-0 -12.747,-2.393 -17.468,-6.363l0,110.127c0,9.618 7.827,17.426 17.468,17.426l16.801,-0c9.641,-0 17.468,-7.808 17.468,-17.426l0,-110.127Zm61.396,-0c-4.721,3.97 -10.816,6.363 -17.468,6.363l-16.801,-0c-6.652,-0 -12.747,-2.393 -17.468,-6.363l-0,110.127c-0,9.618 7.827,17.426 17.468,17.426l16.801,-0c9.641,-0 17.468,-7.808 17.468,-17.426l0,-110.127Z" style="fill:#005ade;"/></g></g></svg>