<?xml version="1.0" encoding="UTF-8" standalone="no"?><!DOCTYPE svg PUBLIC "-//W3C//DTD SVG 1.1//EN" "http://www.w3.org/Graphics/SVG/1.1/DTD/svg11.dtd"><svg width="100%" height="100%" viewBox="0 0 500 500" version="1.1" xmlns="http://www.w3.org/2000/svg" xmlns:xlink="http://www.w3.org/1999/xlink" xml:space="preserve" xmlns:serif="http://www.serif.com/" style="fill-rule:evenodd;clip-rule:evenodd;stroke-linejoin:round;stroke-miterlimit:2;"><rect id="musiconn-icon-series-color-120x120" x="0" y="0" width="500" height="500" style="fill:none;"/><clipPath id="_clip1"><rect id="musiconn-icon-series-color-120x1201" serif:id="musiconn-icon-series-color-120x120" x="0" y="0" width="500" height="500"/></clipPath><g clip-path="url(#_clip1)"><g><path d="M108.445,488.355c-28.132,-1.564 -50.494,-24.847 -50.494,-53.299l-0,-67.763l57.135,0c6.397,0 11.591,-5.18 11.591,-11.561c-0,-6.381 -5.194,-11.562 -11.591,-11.562l-57.135,0l-0,-286.362l100.989,0l-0,377.248c-0,28.452 -22.362,51.735 -50.495,53.299Z" style="fill:#f60;"/><path d="M255.795,488.355c-28.133,-1.564 -50.495,-24.847 -50.495,-53.299l0,-67.763l57.136,0c6.397,0 11.59,-5.18 11.59,-11.561c0,-6.381 -5.193,-11.562 -11.59,-11.562l-57.136,0l0,-286.362l100.99,0l-0,377.248c-0,28.452 -22.362,51.735 -50.495,53.299Z" style="fill:#f60;"/><path d="M352.65,344.17l0,-286.362l147.35,0l0,377.248c0,29.463 -23.979,53.382 -53.514,53.382l-40.322,0c-29.535,0 -53.514,-23.919 -53.514,-53.382l0,-67.763l57.136,0c6.397,0 11.59,-5.18 11.59,-11.561c0,-6.381 -5.193,-11.562 -11.59,-11.562l-57.136,0Z" style="fill:#f60;"/><path d="M0,435.056l0,-423.494c-0,-6.381 5.193,-11.562 11.59,-11.562c6.397,-0 11.59,5.181 11.59,11.562l0,109.516c0,23.081 18.786,41.82 41.924,41.82l40.322,0c23.138,0 41.924,-18.739 41.924,-41.82l-0,-109.516c-0,-6.381 5.193,-11.562 11.59,-11.562c6.397,-0 11.59,5.181 11.59,11.562l0,109.516c0,23.081 18.785,41.82 41.924,41.82l40.322,0c23.138,0 41.924,-18.739 41.924,-41.82l-0,-109.516c-0,-6.381 5.193,-11.562 11.59,-11.562c6.396,-0 11.59,5.181 11.59,11.562l-0,109.516c-0,23.081 18.785,41.82 41.924,41.82l40.321,0c23.139,0 41.924,-18.739 41.924,-41.82l0,-109.516c0,-6.381 5.194,-11.562 11.59,-11.562c6.397,0 11.591,5.181 11.591,11.562l-0,423.494c-0,35.844 -29.173,64.944 -65.105,64.944l-40.321,0c-22.163,0 -41.754,-11.071 -53.514,-27.967c-11.761,16.896 -31.352,27.967 -53.514,27.967l-40.322,0c-22.163,0 -41.754,-11.071 -53.514,-27.967c-11.76,16.896 -31.351,27.967 -53.514,27.967l-40.322,0c-35.932,0 -65.104,-29.1 -65.104,-64.944Zm147.35,-264.306c-11.33,9.527 -25.96,15.271 -41.924,15.271l-40.322,0c-15.964,0 -30.594,-5.744 -41.924,-15.271l0,264.306c0,23.081 18.786,41.821 41.924,41.821l40.322,-0c23.138,-0 41.924,-18.74 41.924,-41.821l-0,-264.306Zm147.35,-0c-11.33,9.527 -25.96,15.271 -41.924,15.271l-40.322,0c-15.964,0 -30.594,-5.744 -41.924,-15.271l0,264.306c0,23.081 18.785,41.821 41.924,41.821l40.322,-0c23.138,-0 41.924,-18.74 41.924,-41.821l-0,-264.306Zm147.349,-0c-11.33,9.527 -25.959,15.271 -41.924,15.271l-40.321,0c-15.964,0 -30.594,-5.744 -41.924,-15.271l-0,264.306c-0,23.081 18.785,41.821 41.924,41.821l40.321,-0c23.139,-0 41.924,-18.74 41.924,-41.821l0,-264.306Z" style="fill:#005ade;"/></g></g></svg>