<?xml version="1.0" encoding="UTF-8" standalone="no"?><!DOCTYPE svg PUBLIC "-//W3C//DTD SVG 1.1//EN" "http://www.w3.org/Graphics/SVG/1.1/DTD/svg11.dtd"><svg width="100%" height="100%" viewBox="0 0 125 125" version="1.1" xmlns="http://www.w3.org/2000/svg" xmlns:xlink="http://www.w3.org/1999/xlink" xml:space="preserve" xmlns:serif="http://www.serif.com/" style="fill-rule:evenodd;clip-rule:evenodd;stroke-linejoin:round;stroke-miterlimit:2;"><rect id="musiconn-icon-series-invert-30x30" x="0" y="0" width="125" height="125" style="fill:none;"/><g id="musiconn-icon-series-invert-30x301" serif:id="musiconn-icon-series-invert-30x30"><path d="M4.45,108.361l0,-104.952c0,-1.881 1.528,-3.409 3.409,-3.409c1.882,-0 3.409,1.528 3.409,3.409l0,27.141c0,5.42 4.401,9.82 9.821,9.82l9.968,0c5.42,0 9.82,-4.4 9.82,-9.82l0,-27.141c0,-1.881 1.528,-3.409 3.409,-3.409c1.882,0 3.41,1.528 3.41,3.409l-0,27.141c-0,5.42 4.4,9.82 9.82,9.82l9.968,0c5.42,0 9.82,-4.4 9.82,-9.82l0,-27.141c0,-1.881 1.528,-3.409 3.41,-3.409c1.881,0 3.409,1.528 3.409,3.409l-0,27.141c-0,5.42 4.4,9.82 9.82,9.82l9.968,0c5.42,0 9.821,-4.4 9.821,-9.82l-0,-27.141c-0,-1.881 1.527,-3.409 3.409,-3.409c1.881,0 3.409,1.528 3.409,3.409l-0,104.952c-0,9.184 -7.456,16.639 -16.639,16.639l-9.968,-0c-5.392,-0 -10.188,-2.57 -13.229,-6.551c-3.042,3.981 -7.838,6.551 -13.23,6.551l-9.968,-0c-5.392,-0 -10.188,-2.57 -13.23,-6.551c-3.041,3.981 -7.837,6.551 -13.229,6.551l-9.968,-0c-9.183,-0 -16.639,-7.455 -16.639,-16.639Zm14.251,-16.249l14.744,0c1.882,0 3.409,-1.528 3.409,-3.409c0,-1.882 -1.527,-3.409 -3.409,-3.409l-14.744,-0c-1.882,-0 -3.409,1.527 -3.409,3.409c-0,1.881 1.527,3.409 3.409,3.409Zm36.427,0l14.744,0c1.882,0 3.409,-1.528 3.409,-3.409c0,-1.882 -1.527,-3.409 -3.409,-3.409l-14.744,-0c-1.882,-0 -3.409,1.527 -3.409,3.409c-0,1.881 1.527,3.409 3.409,3.409Zm36.427,0l14.744,0c1.882,0 3.409,-1.528 3.409,-3.409c0,-1.882 -1.527,-3.409 -3.409,-3.409l-14.744,-0c-1.882,-0 -3.409,1.527 -3.409,3.409c-0,1.881 1.527,3.409 3.409,3.409Z" style="fill:#005ade;"/></g></svg>