<?xml version="1.0" encoding="UTF-8" standalone="no"?>
<!DOCTYPE svg PUBLIC "-//W3C//DTD SVG 1.1//EN" "http://www.w3.org/Graphics/SVG/1.1/DTD/svg11.dtd">
<svg width="100%" height="100%" viewBox="0 0 129 58" version="1.1" xmlns="http://www.w3.org/2000/svg" xmlns:xlink="http://www.w3.org/1999/xlink" xml:space="preserve" style="fill-rule:evenodd;clip-rule:evenodd;stroke-linejoin:round;stroke-miterlimit:1.41421;">
    <g id="headline--additional-strip" transform="matrix(0.996195,-0.0871557,0.0871557,0.996195,-1054.91,-70.7478)">
        <path d="M1170.38,179.594C1170.32,180.273 1169.94,180.189 1169.75,180.548L1169.74,180.588C1169.67,180.635 1169.61,180.631 1169.55,180.605C1169.52,181.138 1169.5,181.673 1169.47,182.204C1169.39,182.332 1169.32,182.459 1169.24,182.587C1169.17,182.605 1169.11,182.628 1169.05,182.652C1169.05,182.803 1169.05,182.954 1169.05,183.105C1168.61,183.652 1168.74,184.406 1168.86,185.159C1168.86,185.178 1168.85,185.191 1168.84,185.21C1168.88,185.18 1168.92,185.154 1168.96,185.131C1169.36,185.452 1169.4,186.094 1169.21,186.647C1168.98,187.29 1169,188.071 1168.8,188.703C1168.65,188.911 1168.64,189.229 1168.61,189.536C1168.69,189.842 1168.77,190.148 1168.84,190.456C1168.87,191.166 1169.29,191.763 1169.03,192.556C1168.9,192.874 1168.75,193.151 1168.62,193.457C1168.59,193.582 1168.58,193.713 1168.59,193.851C1168.53,193.984 1168.47,194.13 1168.42,194.289C1168.16,194.846 1168.31,195.453 1168.37,196.05C1168.52,196.914 1168.56,197.773 1168.34,198.613C1167.89,199.551 1167.9,200.621 1168.12,201.75C1168.1,201.866 1168.11,201.978 1168.14,202.086C1168.28,202.824 1168.49,203.528 1168.47,204.355C1168.49,204.487 1168.5,204.62 1168.51,204.754C1168.52,204.758 1168.53,204.765 1168.54,204.768C1168.54,204.851 1168.54,204.934 1168.54,205.018C1168.57,205.268 1168.6,205.517 1168.62,205.767C1168.66,205.946 1168.66,206.121 1168.61,206.294C1168.62,206.291 1168.62,206.288 1168.62,206.286C1169.02,206.475 1169.01,207.291 1169.23,207.76C1169.45,209.662 1169.42,211.524 1169,213.318L1169.01,213.298C1168.95,213.467 1168.87,213.61 1168.78,213.728L1168.78,213.744C1168.78,213.739 1168.78,213.731 1168.78,213.728C1168.72,213.909 1168.64,214.039 1168.55,214.175C1168.43,214.339 1168.46,214.483 1168.57,214.619C1168.64,214.785 1168.65,214.964 1168.6,215.159C1168.6,215.178 1168.59,215.193 1168.58,215.214C1168.78,215.846 1168.67,216.518 1168.6,217.185C1168.55,217.777 1168.52,218.382 1168.34,218.892C1168.18,218.893 1168.04,218.893 1167.89,218.893C1167.84,218.966 1167.78,218.996 1167.71,218.982C1167.41,219.845 1167.02,219.79 1166.59,219.372L1166.57,219.372C1166.58,219.396 1166.59,219.413 1166.6,219.439C1166.5,220.127 1166.19,219.97 1165.96,219.975C1161.88,220.045 1157.85,221.492 1153.76,221.459C1153.69,221.459 1153.63,221.565 1153.56,221.634C1153.42,221.64 1153.28,221.646 1153.14,221.653C1151.93,222.017 1150.72,221.939 1149.52,221.862C1149.39,221.697 1149.26,221.565 1149.13,221.441C1149.12,221.478 1149.12,221.506 1149.11,221.544C1148.89,222.033 1148.62,221.986 1148.33,221.834C1148.19,221.49 1148.05,221.448 1147.9,221.796C1147.47,221.929 1147.03,221.466 1146.61,221.906C1146.55,221.851 1146.5,221.851 1146.44,221.907C1145.54,222.004 1144.65,222.753 1143.75,221.904C1143.68,221.901 1143.6,221.895 1143.53,221.89C1143.08,221.851 1142.64,221.813 1142.19,221.775C1141.06,221.788 1139.93,222.397 1138.79,221.824C1138.73,221.881 1138.66,221.88 1138.6,221.82C1138.32,222.106 1138.04,222.146 1137.75,221.84C1136.52,222.493 1135.25,221.975 1134,222.079C1132.71,222.185 1131.41,222.028 1130.11,221.986C1129.82,221.985 1129.52,221.985 1129.22,221.983L1128.55,221.976C1128.25,222.103 1127.95,222.074 1127.66,221.949C1127.51,221.951 1127.36,221.954 1127.21,221.955C1126.62,221.946 1126.02,221.937 1125.42,221.928C1125.35,221.925 1125.27,221.922 1125.2,221.919C1124.68,221.924 1124.15,221.93 1123.63,221.938C1123.11,221.907 1122.59,221.877 1122.07,221.848C1120.5,222.016 1118.94,221.87 1117.38,221.774C1115.63,221.76 1113.88,221.738 1112.13,221.74C1111.57,221.74 1111.01,221.655 1110.47,221.99C1110.28,221.604 1110.01,221.792 1109.79,221.67C1109.28,221.933 1108.77,221.643 1108.26,221.638C1107.7,222.185 1107.1,221.94 1106.52,221.953C1105.59,221.97 1104.67,221.925 1103.74,221.908C1102.1,221.743 1100.46,222.544 1098.82,221.858C1098.53,221.962 1098.24,222.069 1097.95,222.172C1097.61,221.737 1097.24,221.924 1096.87,221.962C1096.1,222.044 1095.33,222.182 1094.57,221.783C1093.84,221.769 1079.11,221.754 1078.38,221.74C1078.38,221.734 1078.37,221.727 1078.37,221.72C1078.41,222.044 1078.29,222.25 1078.1,222.413C1076.49,222.398 1074.88,222.253 1073.26,222.29C1072.99,222.296 1072.75,222.298 1072.53,221.993C1072.46,221.979 1072.38,221.964 1072.31,221.95C1071.42,221.659 1070.5,222.072 1069.63,221.493C1068.41,221.693 1067.2,221.156 1065.99,221.096C1064.22,221.008 1062.46,220.941 1060.69,220.866C1056.99,220.748 1053.3,221.667 1049.6,221.02C1048.28,220.788 1046.95,220.643 1045.67,219.787L1045.54,219.62C1045.53,219.672 1045.53,219.723 1045.52,219.775C1045.42,219.871 1045.35,219.825 1045.31,219.651C1045.31,219.654 1045.31,219.659 1045.32,219.661L1045.29,219.588C1045.3,219.614 1045.31,219.63 1045.31,219.651C1045.18,219.553 1045.09,219.374 1045.07,219.097L1045.09,218.95L1045.03,218.838C1044.91,218.54 1044.92,218.154 1044.85,217.825L1044.87,217.675L1044.82,217.544C1044.67,216.965 1044.61,216.294 1044.38,215.782L1044.39,215.793C1044.3,215.649 1044.21,215.509 1044.19,215.262L1044.22,215.324C1043.94,214.781 1043.99,214.227 1044.19,213.666L1044.18,213.697C1044.32,212.234 1044.35,210.773 1044.16,209.309C1043.93,207.3 1044.02,205.297 1044.21,203.298L1044.19,203.326C1044.37,201.14 1044.28,198.95 1044.19,196.757L1044.2,196.782C1044.01,196.355 1044,195.937 1044.22,195.534L1044.2,195.561C1044.31,193.906 1044.37,192.252 1044.21,190.594L1044.2,190.466C1044.45,189.462 1044.12,188.303 1044.42,187.314L1044.42,187.325C1044.69,186.368 1044.38,185.267 1044.61,184.299C1044.62,184.036 1044.64,183.772 1044.65,183.508C1044.79,183.257 1044.69,182.736 1044.87,182.54C1044.87,181.78 1044.82,181.016 1044.87,180.268C1044.93,179.164 1044.84,178.178 1044.47,177.298L1044.47,176.578C1044.62,175.423 1044.22,174.267 1044.46,173.115C1044.76,172.863 1044.97,172.29 1045.33,172.211C1045.33,172.089 1045.34,171.967 1045.36,171.847C1046.5,170.875 1047.68,171.558 1048.84,171.752C1050.24,171.988 1051.63,172.044 1053.03,171.707C1054.38,171.384 1055.74,171.279 1057.1,171.079C1057.67,170.647 1058.26,170.728 1058.85,170.726C1062.68,170.702 1066.51,170.781 1070.33,171.383C1072.11,171.662 1073.9,171.21 1075.68,171.502C1076.01,171.068 1076.39,171.186 1076.76,171.178C1080.25,171.091 1097.73,171.002 1101.22,170.939C1105.88,170.854 1110.53,170.79 1115.19,170.718C1115.65,170.255 1116.1,170.349 1116.54,170.796C1119.84,170.855 1123.15,170.907 1126.45,170.974C1131.38,171.074 1136.32,171.181 1141.25,171.296C1141.51,171.302 1141.76,171.404 1142.02,171.46C1143.99,171.368 1145.95,171.143 1147.91,171.889C1150.01,172.684 1152.14,172.313 1154.26,172.501C1154.87,172.555 1155.5,173.17 1156.12,172.527C1156.33,172.653 1156.55,172.778 1156.77,172.902C1159.59,172.976 1162.42,173.094 1165.24,173.085C1165.91,173.085 1166.39,174.115 1167.04,174.018C1167.22,174.525 1167.46,174.789 1167.77,174.825C1168.18,174.87 1168.54,175.141 1168.84,175.693C1168.85,175.67 1168.85,175.646 1168.86,175.625C1169.23,175.399 1169.47,175.88 1169.72,176.254L1169.71,176.221C1169.94,176.542 1169.74,177.172 1169.95,177.51C1170.06,177.767 1170.27,177.701 1170.38,177.98C1170.58,178.375 1170.52,178.8 1170.42,179.232C1170.38,179.343 1170.37,179.463 1170.38,179.594Z" style="fill:rgb(255,221,0);"/>
    </g>
</svg>
