<?xml version="1.0" encoding="UTF-8" standalone="no"?>
<!DOCTYPE svg PUBLIC "-//W3C//DTD SVG 1.1//EN" "http://www.w3.org/Graphics/SVG/1.1/DTD/svg11.dtd">
<svg width="100%" height="100%" viewBox="0 0 120 44" version="1.1" xmlns="http://www.w3.org/2000/svg" xmlns:xlink="http://www.w3.org/1999/xlink" xml:space="preserve" style="fill-rule:evenodd;clip-rule:evenodd;stroke-linejoin:round;stroke-miterlimit:1.41421;">
    <g id="headline--background-strip" transform="matrix(0.505303,0,0,0.762248,-429.508,-84.0895)">
        <path d="M1085.87,122.181C1085.81,122.86 1085.43,122.776 1085.24,123.135L1085.23,123.175C1085.16,123.222 1085.1,123.218 1085.04,123.192C1085.01,123.725 1084.99,124.26 1084.96,124.791C1084.89,124.919 1084.81,125.046 1084.73,125.173C1084.66,125.192 1084.6,125.215 1084.54,125.239C1084.54,125.389 1084.54,125.541 1084.54,125.692C1084.1,126.239 1084.23,126.993 1084.35,127.746C1084.35,127.765 1084.34,127.778 1084.34,127.797C1084.37,127.767 1084.41,127.741 1084.45,127.718C1084.85,128.039 1084.9,128.681 1084.7,129.234C1084.47,129.877 1084.49,130.657 1084.29,131.29C1084.15,131.498 1084.13,131.816 1084.11,132.123C1084.18,132.429 1084.26,132.735 1084.34,133.043C1084.36,133.753 1084.78,134.35 1084.52,135.143C1084.39,135.461 1084.24,135.738 1084.11,136.044C1084.08,136.169 1084.07,136.3 1084.08,136.438C1084.02,136.571 1083.96,136.717 1083.92,136.876C1083.65,137.433 1083.8,138.04 1083.87,138.637C1084.01,139.501 1084.05,140.36 1083.84,141.2C1083.39,142.138 1083.4,143.208 1083.61,144.337C1083.59,144.453 1083.6,144.565 1083.63,144.673C1083.77,145.411 1083.98,146.115 1083.96,146.942C1083.98,147.074 1083.99,147.207 1084.01,147.34C1084.01,147.345 1084.02,147.352 1084.03,147.355C1084.03,147.438 1084.03,147.521 1084.03,147.605C1084.06,147.855 1084.09,148.103 1084.11,148.354C1084.15,148.533 1084.15,148.708 1084.11,148.881C1084.11,148.878 1084.11,148.875 1084.11,148.873C1084.51,149.061 1084.5,149.878 1084.72,150.347C1084.94,152.249 1084.91,154.111 1084.49,155.905L1084.5,155.885C1084.44,156.054 1084.37,156.197 1084.28,156.315L1084.27,156.331C1084.27,156.326 1084.27,156.318 1084.28,156.315C1084.21,156.496 1084.13,156.626 1084.04,156.762C1083.92,156.926 1083.95,157.07 1084.06,157.206C1084.13,157.371 1084.15,157.55 1084.1,157.746C1084.09,157.765 1084.08,157.78 1084.07,157.801C1084.27,158.433 1084.16,159.105 1084.1,159.772C1084.04,160.364 1084.01,160.969 1083.83,161.479C1083.68,161.48 1083.53,161.48 1083.38,161.48C1083.33,161.553 1083.27,161.583 1083.21,161.569C1082.9,162.432 1082.51,162.377 1082.08,161.959L1082.06,161.959C1082.07,161.983 1082.08,162 1082.09,162.026C1082,162.714 1081.69,162.557 1081.46,162.562C1077.38,162.632 1073.36,164.079 1069.28,164.046C1069.22,164.046 1069.15,164.152 1069.09,164.221C1068.94,164.227 1068.8,164.233 1068.66,164.239C1067.46,164.604 1066.25,164.526 1065.05,164.449C1064.92,164.284 1064.79,164.152 1064.66,164.028C1064.65,164.065 1064.65,164.093 1064.65,164.131C1064.42,164.62 1064.15,164.573 1063.87,164.421C1063.73,164.077 1063.59,164.035 1063.43,164.383C1063.01,164.516 1062.56,164.053 1062.15,164.493C1062.09,164.438 1062.03,164.438 1061.98,164.494C1061.08,164.591 1060.19,165.34 1059.29,164.491C1059.22,164.488 1059.14,164.481 1059.07,164.477C1058.63,164.438 1058.18,164.4 1057.74,164.362C1056.61,164.375 1055.48,164.984 1054.34,164.411C1054.28,164.468 1054.22,164.467 1054.16,164.407C1053.88,164.693 1053.59,164.733 1053.31,164.427C1052.07,165.08 1050.81,164.562 1049.56,164.665C1048.28,164.772 1046.98,164.615 1045.69,164.573C1045.39,164.572 1045.09,164.572 1044.79,164.57L1044.12,164.563C1043.83,164.69 1043.53,164.66 1043.24,164.536C1043.09,164.538 1042.94,164.541 1042.79,164.542C1042.19,164.533 1041.6,164.523 1041,164.515C1040.93,164.512 1040.86,164.509 1040.78,164.506C1040.26,164.511 1039.74,164.517 1039.22,164.525C1038.7,164.494 1038.18,164.464 1037.65,164.435C1036.1,164.602 1034.53,164.457 1032.97,164.36C1031.23,164.347 1029.48,164.325 1027.74,164.327C1027.18,164.327 1026.62,164.242 1026.08,164.577C1025.89,164.191 1025.62,164.379 1025.4,164.257C1024.89,164.52 1024.38,164.23 1023.88,164.225C1023.32,164.772 1022.72,164.527 1022.14,164.539C1021.21,164.557 1020.29,164.512 1019.37,164.495C1017.73,164.33 1016.09,165.131 1014.46,164.444C1014.17,164.549 1013.88,164.656 1013.59,164.759C1013.25,164.323 1012.87,164.511 1012.51,164.549C1011.74,164.631 1010.97,164.769 1010.22,164.37C1009.49,164.356 885.016,164.341 884.289,164.327C884.283,164.321 884.277,164.314 884.271,164.307C884.312,164.631 884.192,164.837 884.007,165C882.396,164.985 880.787,164.84 879.178,164.877C878.909,164.883 878.67,164.885 878.447,164.58C878.372,164.565 878.299,164.551 878.224,164.537C877.337,164.246 876.423,164.659 875.548,164.08C874.331,164.28 873.132,163.743 871.921,163.683C870.157,163.595 868.392,163.528 866.627,163.453C862.937,163.335 859.255,164.254 855.562,163.607C854.242,163.375 852.915,163.23 851.645,162.374L851.512,162.207C851.503,162.259 851.5,162.31 851.49,162.362C851.39,162.458 851.322,162.412 851.282,162.238C851.284,162.241 851.285,162.246 851.289,162.248L851.266,162.175C851.27,162.201 851.277,162.217 851.282,162.238C851.15,162.139 851.066,161.96 851.043,161.684L851.059,161.537L851.007,161.425C850.885,161.127 850.895,160.741 850.82,160.412L850.842,160.262L850.797,160.131C850.642,159.552 850.587,158.881 850.359,158.369L850.362,158.38C850.273,158.236 850.18,158.096 850.163,157.849L850.192,157.911C849.919,157.368 849.961,156.813 850.169,156.253L850.152,156.284C850.295,154.821 850.325,153.36 850.139,151.896C849.909,149.887 849.997,147.884 850.18,145.885L850.162,145.913C850.345,143.727 850.252,141.537 850.168,139.344L850.179,139.369C849.984,138.942 849.971,138.524 850.192,138.121L850.176,138.148C850.279,136.493 850.343,134.839 850.18,133.181L850.178,133.053C850.429,132.049 850.098,130.89 850.393,129.901L850.39,129.912C850.659,128.955 850.355,127.854 850.582,126.886C850.597,126.623 850.613,126.359 850.629,126.094C850.763,125.844 850.662,125.323 850.844,125.127C850.838,124.367 850.797,123.603 850.839,122.855C850.9,121.751 850.808,120.765 850.447,119.884L850.441,119.165C850.597,118.01 850.19,116.854 850.434,115.702C850.737,115.45 850.948,114.877 851.3,114.798C851.304,114.676 851.314,114.554 851.327,114.434C852.473,113.462 853.651,114.145 854.803,114.339C856.206,114.574 857.588,114.631 858.987,114.294C860.333,113.971 861.695,113.866 863.05,113.666C863.614,113.234 864.207,113.315 864.797,113.313C868.619,113.289 872.437,113.368 876.254,113.97C878.028,114.249 879.812,113.797 881.591,114.089C881.923,113.655 882.303,113.773 882.669,113.765C886.147,113.678 1013.37,113.589 1016.85,113.526C1021.5,113.441 1026.14,113.377 1030.8,113.305C1031.25,112.842 1031.7,112.936 1032.14,113.383C1035.44,113.442 1038.73,113.494 1042.03,113.561C1046.95,113.661 1051.87,113.768 1056.8,113.883C1057.05,113.889 1057.31,113.991 1057.57,114.047C1059.53,113.955 1061.49,113.73 1063.44,114.476C1065.54,115.271 1067.66,114.9 1069.78,115.088C1070.39,115.142 1071.02,115.757 1071.63,115.114C1071.85,115.24 1072.07,115.365 1072.29,115.489C1075.11,115.563 1077.92,115.681 1080.74,115.672C1081.41,115.672 1081.89,116.702 1082.54,116.605C1082.71,117.112 1082.95,117.376 1083.26,117.412C1083.67,117.457 1084.03,117.728 1084.33,118.279C1084.34,118.257 1084.34,118.233 1084.35,118.212C1084.72,117.986 1084.96,118.467 1085.21,118.841L1085.2,118.808C1085.43,119.129 1085.23,119.759 1085.44,120.097C1085.55,120.354 1085.76,120.288 1085.87,120.567C1086.06,120.962 1086.01,121.387 1085.91,121.819C1085.87,121.93 1085.86,122.05 1085.87,122.181Z" style="fill:rgb(255,221,0);"/>
    </g>
</svg>
