<svg xmlns="http://www.w3.org/2000/svg" viewBox="0 0 415.31 95.98"><defs><style>.cls-1,.cls-2,.cls-4{fill:none;}.cls-1,.cls-5{stroke:#c60804;}.cls-1,.cls-2,.cls-4,.cls-5,.cls-6{stroke-miterlimit:10;}.cls-1{stroke-width:3px;}.cls-2,.cls-6{stroke:#000;}.cls-2,.cls-4,.cls-5{stroke-width:2px;}.cls-3,.cls-5{fill:#c60804;}.cls-4{stroke:#1c1c1c;}</style></defs><title>logo0</title><g id="Ebene_2" data-name="Ebene 2"><g id="Layout"><polyline class="cls-1" points="43.13 86.48 300.89 86.48 327.39 56.98 405.89 56.98"/><polyline class="cls-2" points="10.03 75.48 331.89 75.48 350.39 94.98 376.89 94.98"/><circle class="cls-3" cx="410.31" cy="57.58" r="5"/><circle class="cls-4" cx="6" cy="74.93" r="5"/><path class="cls-5" d="M83.61,1.46h29.33L111.3,6H87L79.87,24.67h21.61l-1.71,4.52H78.31L68.63,54.55h-5.2Z"/><path class="cls-5" d="M121.92,1.46h5.2L107,54.55h-5.28Z"/><path class="cls-5" d="M138.87,2.46a58.82,58.82,0,0,1,7-1.15A60.3,60.3,0,0,1,151.93,1q11.72,0,16.59,5.67t3.4,16.09a39.17,39.17,0,0,1-4.12,13A34,34,0,0,1,159.58,46a36.93,36.93,0,0,1-12.07,6.67A48.89,48.89,0,0,1,131.78,55c-1,0-2.1,0-3.24-.11s-2.25-.17-3.33-.27-2.12-.24-3.12-.42a18.06,18.06,0,0,1-2.59-.65ZM126.06,50c1.25.2,2.46.34,3.62.42s2.33.11,3.51.11a37.44,37.44,0,0,0,13-2.11,30.94,30.94,0,0,0,10-5.78,29.21,29.21,0,0,0,6.78-8.69A34.31,34.31,0,0,0,166.3,23q1.23-8.82-2.55-13.18T150.62,5.44c-1.27,0-2.57,0-3.88.16s-2.65.25-4,.46Z"/><path class="cls-6" d="M187.86,26.72c.58-.18,1.24-.37,2-.55s1.49-.35,2.29-.5,1.61-.27,2.43-.36a21.86,21.86,0,0,1,2.35-.14,12.43,12.43,0,0,1,4.15.64,5.36,5.36,0,0,1,2.86,2.3,26.78,26.78,0,0,1,5.27-2.3,15.24,15.24,0,0,1,4.26-.64,13.37,13.37,0,0,1,3.45.42A6,6,0,0,1,219.53,27a5.64,5.64,0,0,1,1.55,2.71,10.88,10.88,0,0,1,.11,4.37,22.62,22.62,0,0,1-.64,3c-.29,1-.64,2-1,3.07l-5.44,14.23h-3.58l4.83-12.74c.47-1.21.92-2.45,1.35-3.7a18.94,18.94,0,0,0,.9-3.6,7.88,7.88,0,0,0,0-2.86,3.53,3.53,0,0,0-1-1.79,3.73,3.73,0,0,0-1.72-.92,9.69,9.69,0,0,0-2.23-.25,15.05,15.05,0,0,0-3.07.42A17.2,17.2,0,0,0,204.77,31a13.65,13.65,0,0,1-.1,3.1,22.62,22.62,0,0,1-.64,3c-.29,1-.64,2-1,3.07l-5.43,14.23H194l4.83-12.74c.47-1.21.92-2.45,1.35-3.7a18.94,18.94,0,0,0,.9-3.6,7.64,7.64,0,0,0-.05-2.86,3.6,3.6,0,0,0-1-1.79,3.81,3.81,0,0,0-1.73-.92,9.81,9.81,0,0,0-2.25-.25,19.75,19.75,0,0,0-2.75.22,27.55,27.55,0,0,0-2.74.56L181,54.35h-3.59Z"/><path class="cls-6" d="M251.89,34.69a27.61,27.61,0,0,1-2.74,9,23.82,23.82,0,0,1-4.65,6.34,18.39,18.39,0,0,1-5.62,3.74A15,15,0,0,1,233.2,55a10.31,10.31,0,0,1-3.6-.61,7.23,7.23,0,0,1-2.81-1.82,7,7,0,0,1-1.68-3,10,10,0,0,1-.19-4.18,27.85,27.85,0,0,1,2.73-9A23.73,23.73,0,0,1,232.31,30a18.48,18.48,0,0,1,5.61-3.71,15,15,0,0,1,5.68-1.21,10.54,10.54,0,0,1,3.6.6A7.37,7.37,0,0,1,250,27.55a7,7,0,0,1,1.68,3A9.75,9.75,0,0,1,251.89,34.69ZM228.6,45.16q-.45,3.27,1.14,4.93a5.5,5.5,0,0,0,4.14,1.66,10.15,10.15,0,0,0,4.24-1,14.14,14.14,0,0,0,4.28-3.1A20.37,20.37,0,0,0,246,42.39,24,24,0,0,0,248.2,35q.45-3.27-1.14-4.93a5.5,5.5,0,0,0-4.14-1.66,10.15,10.15,0,0,0-4.24,1,14.14,14.14,0,0,0-4.28,3.1,20.37,20.37,0,0,0-3.62,5.23A24,24,0,0,0,228.6,45.16Z"/><path class="cls-6" d="M257.85,54.35q-.51-6.15-.58-13.51a112.1,112.1,0,0,1,.92-15.12h3.54c-.24,2-.45,4.1-.61,6.32s-.28,4.43-.33,6.64-.06,4.36,0,6.42.19,3.92.4,5.54q2-2.22,4.38-5.29t4.76-6.48q2.37-3.4,4.43-6.81a64.56,64.56,0,0,0,3.41-6.34h3.55A72.59,72.59,0,0,1,277.81,33q-2.31,3.82-5,7.59t-5.66,7.31q-3,3.54-5.75,6.42Z"/><path class="cls-6" d="M305.08,32.42a9,9,0,0,1-2.23,5,12.57,12.57,0,0,1-4.69,3.08,29.05,29.05,0,0,1-6.82,1.63c-2.62.33-5.5.57-8.66.72l-.16,1.16a12.7,12.7,0,0,0-.09,3,4.87,4.87,0,0,0,.88,2.41,5,5,0,0,0,2.23,1.63,10.72,10.72,0,0,0,4,.61,15.13,15.13,0,0,0,4-.55,16.82,16.82,0,0,0,4-1.66l-.08,3.32A19.89,19.89,0,0,1,293,54.43a19.35,19.35,0,0,1-4.68.58,14,14,0,0,1-5-.77,7.31,7.31,0,0,1-3.08-2.16,6.75,6.75,0,0,1-1.38-3.32,15.33,15.33,0,0,1,0-4.27,25.73,25.73,0,0,1,2.07-7A24.1,24.1,0,0,1,285,31.21a20,20,0,0,1,5.81-4.46,15.63,15.63,0,0,1,7.24-1.69q3.87,0,5.67,2A6.36,6.36,0,0,1,305.08,32.42Zm-7.78-4.09a10.42,10.42,0,0,0-4.28.91,15.11,15.11,0,0,0-3.84,2.46A20.13,20.13,0,0,0,286,35.3a20.89,20.89,0,0,0-2.3,4.32,64.33,64.33,0,0,0,8-.61,22.73,22.73,0,0,0,5.37-1.38,7.8,7.8,0,0,0,3.09-2.13,5.82,5.82,0,0,0,1.24-2.85,3.52,3.52,0,0,0-.85-3.24A4.57,4.57,0,0,0,297.3,28.33Z"/></g></g></svg>